<svg width="100" height="100" viewBox="0 0 100 100" fill="none" xmlns="http://www.w3.org/2000/svg">
<g id="whatsapp 3">
<g id="Graphics-_x2F_-App-Icons-_x2F_-WhatsApp">
<g id="Icon_6_">
<path id="Background_7_" d="M28.4 5C27.9 5 26.9 5 26 5C24 5.1 21.4 5.2 20.3 5.5C18.5 5.9 16.8 6.4 15.4 7.1C13.8 7.9 12.3 9 11 10.3C9.70001 11.6 8.70001 13 7.80001 14.7C7.10001 16.1 6.50001 17.8 6.20001 19.5C6.00001 20.7 5.80001 23.3 5.70001 25.3C5.70001 26.1 5.70001 27.2 5.70001 27.7V71.6C5.70001 72.1 5.70001 73.1 5.70001 74C5.80001 76 5.90001 78.6 6.20001 79.7C6.60001 81.5 7.10001 83.2 7.80001 84.6C8.60001 86.2 9.70001 87.7 11 89C12.3 90.3 13.7 91.3 15.4 92.2C16.8 92.9 18.5 93.5 20.2 93.8C21.4 94 24 94.2 26 94.3C26.8 94.3 27.9 94.3 28.4 94.3H72.3C72.8 94.3 73.8 94.3 74.7 94.3C76.7 94.2 79.3 94.1 80.4 93.8C82.2 93.4 83.9 92.9 85.3 92.2C86.9 91.4 88.4 90.3 89.7 89C91 87.7 92 86.3 92.9 84.6C93.6 83.2 94.2 81.5 94.5 79.8C94.7 78.6 94.9 76 95 74C95 73.2 95 72.1 95 71.6V27.7C95 27.2 95 26.2 95 25.3C94.9 23.3 94.8 20.7 94.5 19.6C94.1 17.8 93.6 16.1 92.9 14.7C92.1 13.1 91 11.6 89.7 10.3C88.4 9 87 8 85.3 7.1C83.9 6.4 82.2 5.8 80.5 5.5C79.3 5.3 76.7 5.1 74.7 5C73.9 5 72.8 5 72.3 5H28.4Z" fill="url(#paint0_linear_150_2)"/>
<g id="Coffing Logo">
<g id="Vector 1">
<path d="M29.8832 54.7694C29.1738 66.7093 37.1602 74.3881 41.2421 76.7351C41.1576 76.6852 41.3941 76.9106 43.0156 78.2107C45.0424 79.8359 52.5165 79.5599 54.7545 79.0961C56.5449 78.7251 58.1467 77.4518 58.7238 76.8616C60.6493 75.6473 63.3546 73.0671 64.4666 71.9288C69.6351 70.5459 72.7852 68.8229 73.7141 68.1343C82.566 61.9367 75.3188 57.4255 73.7407 57.4255C73.3925 57.4255 72.2628 57.0882 70.1671 57.552V54.7694C69.8293 52.9565 63.7487 50.216 49.5607 50.3004C34.2544 50.3913 30.0662 53.3781 29.8832 54.7694Z" fill="#003568"/>
<path d="M76.2477 68.05C75.9437 67.9151 75.5017 68.3873 75.3188 68.6402C85.4869 76.2966 62.6508 80.5295 50.2785 80.5295C25.2383 79.8128 21.9024 74.3741 22.198 71.6758C22.4345 69.5172 26.4065 67.6565 28.363 66.996C29.0809 66.8133 30.5419 66.3804 30.6433 66.1106C30.7446 65.8408 30.3758 65.4641 30.1788 65.3096C25.1792 66.5912 22.6906 68.7105 22.0713 69.6099C17.173 75.5546 30.221 79.8128 37.9906 83.6494C44.2064 86.7187 52.6291 86.1369 56.0635 85.4623C61.1307 84.9986 78.1051 76.44 78.8658 73.3622C79.6681 70.1159 76.6278 68.2186 76.2477 68.05Z" fill="#003568"/>
</g>
<path id="Vector 7" d="M69.3492 63.4967C68.889 65.4782 67.1253 67.6003 66.4356 68.9354C67.2379 68.9354 71.6451 67.2608 72.743 66.5744C77.2612 63.7496 76.5433 60.3683 73.8831 59.5335C70.9272 58.606 70.0248 60.5876 69.3492 63.4967Z" fill="#D4D4D4" stroke="#003568"/>
<path id="Vector 6" d="M68.9426 54.7694C66.5797 51.8908 54.9516 51.3403 49.5607 51.3122C43.9023 50.9749 31.7834 52.95 31.0655 54.7694C29.6794 58.2824 42.8044 59.3649 49.4762 59.3227C56.528 59.66 71.2228 57.5473 68.9426 54.7694Z" fill="#D9D9D9" stroke="#003568"/>
<path id="Vector 2" d="M49.071 29.4327L49.986 36.0257C50.2448 37.9134 46.8318 39.2767 46.2333 37.3555C45.6349 35.4342 48.082 34.4635 49.071 34.9284C48.7505 32.7059 48.1041 28.1736 48.082 27.8239C48.0598 27.4743 48.2268 27.3931 48.313 27.3962C50.5807 26.6368 55.2139 25.0919 55.6058 24.9877C55.9977 24.8836 56.108 25.1179 56.1142 25.2481L57.2881 34.0822C57.057 35.5979 54.1338 36.6952 53.5539 35.0214C52.8492 32.9874 55.3101 32.3495 56.3453 32.4828L55.6058 27.2753L49.071 29.4327Z" fill="#003568"/>
<path id="Vector 4" d="M46.78 23.5509L47.0862 14.28C47.0862 14.1277 47.4493 13.6639 47.8716 14.4228C47.9944 14.6436 49.4887 15.9977 50.16 16.7389C50.6971 17.3319 51.0876 18.3438 50.9963 19.1027C50.8697 20.1567 49.2179 23.245 50.16 20.3979C50.9846 17.906 48.8842 16.6644 47.7929 16.3742L47.5102 25.0216C47.0862 26.5628 43.901 27.3628 43.5532 25.3275C43.2234 23.398 45.618 23.2607 46.78 23.5509Z" fill="#003568"/>
<path id="Vector 5" d="M51.7561 44.8001L51.9426 39.1304C51.9426 39.0372 52.1637 38.7536 52.4209 39.2177C52.4957 39.3527 53.4059 40.1809 53.8148 40.6341C54.1419 40.9968 54.3797 41.6156 54.3242 42.0797C54.247 42.7243 53.2409 44.613 53.8148 42.8718C54.317 41.3479 53.0377 40.5886 52.373 40.4111L52.2008 45.6995C51.9426 46.6421 50.0025 47.1313 49.7906 45.8866C49.5897 44.7066 51.0483 44.6226 51.7561 44.8001Z" fill="#003568"/>
<path id="smoke" d="M42.4794 40.3504C38.9999 36.2355 41.7897 31.8621 43.6195 30.1897C42.9579 32.0307 41.2898 35.249 44.9285 40.1396C47.5634 43.6811 45.4071 47.2085 43.9995 48.5296C44.9426 47.5177 45.9588 44.4653 42.4794 40.3504Z" fill="#003568"/>
</g>
</g>
</g>
</g>
<defs>
<linearGradient id="paint0_linear_150_2" x1="50.35" y1="5" x2="50.35" y2="94.3" gradientUnits="userSpaceOnUse">
<stop stop-color="white"/>
<stop offset="0.6875" stop-color="#D1D1D1"/>
<stop offset="0.958333" stop-color="#9A9A9A"/>
</linearGradient>
</defs>
</svg>
