<svg width="171" height="100" viewBox="0 0 171 100" fill="none" xmlns="http://www.w3.org/2000/svg">
<path d="M49.7784 38C48.3484 38 47.2044 37.571 46.3464 36.713C45.5144 35.855 45.0984 34.698 45.0984 33.242V22.868C45.0984 21.23 45.5274 19.969 46.3854 19.085C47.2434 18.175 48.4914 17.72 50.1294 17.72H54.4584V20.06H50.2074C49.6094 20.06 49.1284 20.268 48.7644 20.684C48.4004 21.074 48.2184 21.581 48.2184 22.205V33.515C48.2184 34.139 48.4004 34.659 48.7644 35.075C49.1544 35.465 49.6484 35.66 50.2464 35.66H54.4584V38H49.7784ZM57.1808 17.72H59.5988L59.9498 19.163L60.9248 18.695C61.7568 18.279 62.4458 17.967 62.9918 17.759C63.5638 17.551 64.1358 17.447 64.7078 17.447V19.748C64.3698 19.748 63.9148 19.852 63.3428 20.06C62.7708 20.242 61.7568 20.684 60.3008 21.386V38H57.1808V17.72ZM67.6164 14.405V11.285H70.7364V14.405H67.6164ZM67.6164 38V17.72H70.7364V38H67.6164ZM79.558 38C78.622 38 77.751 37.766 76.945 37.298C76.165 36.83 75.541 36.193 75.073 35.387C74.631 34.581 74.41 33.671 74.41 32.657V30.629C74.41 29.407 74.709 28.38 75.307 27.548C75.931 26.716 76.698 26.131 77.608 25.793L82.444 23.999V22.166C82.444 21.542 82.249 21.035 81.859 20.645C81.495 20.229 81.014 20.021 80.416 20.021H76.009V17.72H80.689C82.119 17.72 83.25 18.149 84.082 19.007C84.94 19.839 85.369 20.983 85.369 22.439V38H79.558ZM82.444 35.621V26.456L79.012 27.743C78.336 28.003 77.855 28.354 77.569 28.796C77.309 29.238 77.179 29.94 77.179 30.902V33.086C77.179 33.788 77.439 34.386 77.959 34.88C78.479 35.374 79.103 35.621 79.831 35.621H82.444ZM95.9471 39.248C96.8831 39.248 97.5981 39.417 98.0921 39.755C98.5861 40.093 98.8331 40.704 98.8331 41.588C98.8331 43.356 97.8191 44.24 95.7911 44.24H91.6181V42.407H94.7381C95.3361 42.407 95.7781 42.342 96.0641 42.212C96.3501 42.082 96.4931 41.861 96.4931 41.549C96.4931 41.211 96.3891 40.99 96.1811 40.886C95.9731 40.782 95.6351 40.73 95.1671 40.73H93.1391L93.8021 38H93.9581C92.5281 38 91.3841 37.571 90.5261 36.713C89.6941 35.855 89.2781 34.698 89.2781 33.242V22.868C89.2781 21.23 89.7071 19.969 90.5651 19.085C91.4231 18.175 92.6711 17.72 94.3091 17.72H98.6381V20.06H94.3871C93.7891 20.06 93.3081 20.268 92.9441 20.684C92.5801 21.074 92.3981 21.581 92.3981 22.205V33.515C92.3981 34.139 92.5801 34.659 92.9441 35.075C93.3341 35.465 93.8281 35.66 94.4261 35.66H98.6381V38H96.2201L95.9471 39.248ZM100.464 15.77C100.49 14.6 100.711 13.716 101.127 13.118C101.543 12.494 102.297 12.182 103.389 12.182C103.675 12.182 104.52 12.39 105.924 12.806C107.302 13.248 108.186 13.469 108.576 13.469C108.888 13.469 109.096 13.378 109.2 13.196C109.304 12.988 109.369 12.741 109.395 12.455C109.447 12.169 109.486 11.948 109.512 11.792H111.969C111.943 12.676 111.878 13.391 111.774 13.937C111.67 14.457 111.397 14.899 110.955 15.263C110.539 15.601 109.902 15.77 109.044 15.77C108.654 15.77 107.77 15.549 106.392 15.107C104.988 14.691 104.143 14.483 103.857 14.483C103.519 14.483 103.298 14.548 103.194 14.678C103.116 14.808 103.051 14.99 102.999 15.224C102.973 15.458 102.947 15.64 102.921 15.77H100.464ZM105.495 38C104.559 38 103.688 37.766 102.882 37.298C102.102 36.83 101.478 36.193 101.01 35.387C100.568 34.581 100.347 33.671 100.347 32.657V30.629C100.347 29.407 100.646 28.38 101.244 27.548C101.868 26.716 102.635 26.131 103.545 25.793L108.381 23.999V22.166C108.381 21.542 108.186 21.035 107.796 20.645C107.432 20.229 106.951 20.021 106.353 20.021H101.946V17.72H106.626C108.056 17.72 109.187 18.149 110.019 19.007C110.877 19.839 111.306 20.983 111.306 22.439V38H105.495ZM108.381 35.621V26.456L104.949 27.743C104.273 28.003 103.792 28.354 103.506 28.796C103.246 29.238 103.116 29.94 103.116 30.902V33.086C103.116 33.788 103.376 34.386 103.896 34.88C104.416 35.374 105.04 35.621 105.768 35.621H108.381ZM120.558 38.273C118.738 38.273 117.321 37.818 116.307 36.908C115.319 35.972 114.825 34.685 114.825 33.047V22.673C114.825 21.035 115.319 19.761 116.307 18.851C117.321 17.915 118.738 17.447 120.558 17.447C122.378 17.447 123.782 17.915 124.77 18.851C125.784 19.761 126.291 21.035 126.291 22.673V33.047C126.291 34.685 125.784 35.972 124.77 36.908C123.782 37.818 122.378 38.273 120.558 38.273ZM120.558 35.855C121.39 35.855 122.04 35.621 122.508 35.153C123.002 34.659 123.249 33.957 123.249 33.047V22.673C123.249 21.763 123.002 21.074 122.508 20.606C122.04 20.112 121.39 19.865 120.558 19.865C119.726 19.865 119.063 20.112 118.569 20.606C118.101 21.074 117.867 21.763 117.867 22.673V33.047C117.867 33.957 118.101 34.659 118.569 35.153C119.063 35.621 119.726 35.855 120.558 35.855Z" fill="#FF461E"/>
<rect y="50.0054" width="171" height="49.9946" fill="#FF461E"/>
<path d="M47.2036 88C45.5656 88 44.2396 87.519 43.2256 86.557C42.2116 85.595 41.7046 84.308 41.7046 82.696V72.985C41.7046 71.867 42.0036 70.918 42.6016 70.138C43.2256 69.358 43.9926 68.825 44.9026 68.539L50.1286 66.706V60.7H53.2486V88H47.2036ZM50.1286 85.66V69.28L46.6576 70.45C45.9816 70.658 45.5006 70.996 45.2146 71.464C44.9546 71.906 44.8246 72.621 44.8246 73.609V82.696C44.8246 83.632 45.0976 84.36 45.6436 84.88C46.1896 85.4 46.9306 85.66 47.8666 85.66H50.1286ZM61.9935 88C60.5635 88 59.4195 87.571 58.5615 86.713C57.7295 85.855 57.3135 84.698 57.3135 83.242V72.868C57.3135 71.178 57.7815 69.852 58.7175 68.89C59.6535 67.928 61.0445 67.447 62.8905 67.447C64.7365 67.447 66.1145 67.928 67.0245 68.89C67.9605 69.852 68.4285 71.178 68.4285 72.868V74.662C68.4285 75.754 68.1165 76.586 67.4925 77.158C66.8685 77.704 66.0495 78.12 65.0355 78.406L60.4335 79.693V83.515C60.4335 84.139 60.6155 84.659 60.9795 85.075C61.3695 85.465 61.8635 85.66 62.4615 85.66H66.6735V88H61.9935ZM62.8125 76.573C63.6705 76.339 64.2425 76.17 64.5285 76.066C64.8405 75.936 65.0485 75.754 65.1525 75.52C65.2565 75.286 65.3085 74.896 65.3085 74.35V72.205C65.3085 71.373 65.0875 70.762 64.6455 70.372C64.2295 69.982 63.6445 69.787 62.8905 69.787C62.1625 69.787 61.5645 69.995 61.0965 70.411C60.6545 70.827 60.4335 71.425 60.4335 72.205V77.236L62.8125 76.573ZM81.5334 88C80.5974 88 79.7264 87.766 78.9204 87.298C78.1404 86.83 77.5164 86.193 77.0484 85.387C76.6064 84.581 76.3854 83.671 76.3854 82.657V80.629C76.3854 79.407 76.6844 78.38 77.2824 77.548C77.9064 76.716 78.6734 76.131 79.5834 75.793L84.4194 73.999V72.166C84.4194 71.542 84.2244 71.035 83.8344 70.645C83.4704 70.229 82.9894 70.021 82.3914 70.021H77.9844V67.72H82.6644C84.0944 67.72 85.2254 68.149 86.0574 69.007C86.9154 69.839 87.3444 70.983 87.3444 72.439V88H81.5334ZM84.4194 85.621V76.456L80.9874 77.743C80.3114 78.003 79.8304 78.354 79.5444 78.796C79.2844 79.238 79.1544 79.94 79.1544 80.902V83.086C79.1544 83.788 79.4144 84.386 79.9344 84.88C80.4544 85.374 81.0784 85.621 81.8064 85.621H84.4194ZM91.6435 67.72H97.9615C99.3915 67.72 100.601 68.188 101.589 69.124C102.603 70.06 103.11 71.23 103.11 72.634V83.125C103.11 84.529 102.616 85.699 101.628 86.635C100.64 87.545 99.4305 88 98.0005 88H94.7635V94.24H91.6435V67.72ZM97.3375 85.699C98.0655 85.699 98.6895 85.452 99.2095 84.958C99.7295 84.464 99.9895 83.853 99.9895 83.125V72.634C99.9895 71.906 99.7295 71.295 99.2095 70.801C98.6895 70.307 98.0655 70.06 97.3375 70.06H94.7635V85.699H97.3375ZM106.802 67.72H113.12C114.55 67.72 115.759 68.188 116.747 69.124C117.761 70.06 118.268 71.23 118.268 72.634V83.125C118.268 84.529 117.774 85.699 116.786 86.635C115.798 87.545 114.589 88 113.159 88H109.922V94.24H106.802V67.72ZM112.496 85.699C113.224 85.699 113.848 85.452 114.368 84.958C114.888 84.464 115.148 83.853 115.148 83.125V72.634C115.148 71.906 114.888 71.295 114.368 70.801C113.848 70.307 113.224 70.06 112.496 70.06H109.922V85.699H112.496ZM120.79 85.66H124.105C125.223 85.66 126.029 85.361 126.523 84.763C127.043 84.139 127.303 83.333 127.303 82.345C127.303 81.565 127.069 80.902 126.601 80.356C126.133 79.81 125.431 79.173 124.495 78.445C123.689 77.795 123.039 77.236 122.545 76.768C122.077 76.274 121.661 75.676 121.297 74.974C120.959 74.246 120.79 73.414 120.79 72.478C120.79 71.1 121.245 69.969 122.155 69.085C123.091 68.175 124.339 67.72 125.899 67.72H129.292V70.06H126.484C124.638 70.06 123.715 70.931 123.715 72.673C123.715 73.349 123.923 73.934 124.339 74.428C124.755 74.922 125.405 75.507 126.289 76.183C127.095 76.807 127.758 77.379 128.278 77.899C128.798 78.393 129.24 79.03 129.604 79.81C129.968 80.564 130.15 81.461 130.15 82.501C130.15 84.347 129.656 85.725 128.668 86.635C127.706 87.545 126.341 88 124.573 88H120.79V85.66Z" fill="#241B53"/>
</svg>
