<svg width="171" height="100" viewBox="0 0 171 100" fill="none" xmlns="http://www.w3.org/2000/svg">
<path d="M49.7784 38C48.3484 38 47.2044 37.571 46.3464 36.713C45.5144 35.855 45.0984 34.698 45.0984 33.242V22.868C45.0984 21.23 45.5274 19.969 46.3854 19.085C47.2434 18.175 48.4914 17.72 50.1294 17.72H54.4584V20.06H50.2074C49.6094 20.06 49.1284 20.268 48.7644 20.684C48.4004 21.074 48.2184 21.581 48.2184 22.205V33.515C48.2184 34.139 48.4004 34.659 48.7644 35.075C49.1544 35.465 49.6484 35.66 50.2464 35.66H54.4584V38H49.7784ZM57.1808 17.72H59.5988L59.9498 19.163L60.9248 18.695C61.7568 18.279 62.4458 17.967 62.9918 17.759C63.5638 17.551 64.1358 17.447 64.7078 17.447V19.748C64.3698 19.748 63.9148 19.852 63.3428 20.06C62.7708 20.242 61.7568 20.684 60.3008 21.386V38H57.1808V17.72ZM67.6164 14.405V11.285H70.7364V14.405H67.6164ZM67.6164 38V17.72H70.7364V38H67.6164ZM79.558 38C78.622 38 77.751 37.766 76.945 37.298C76.165 36.83 75.541 36.193 75.073 35.387C74.631 34.581 74.41 33.671 74.41 32.657V30.629C74.41 29.407 74.709 28.38 75.307 27.548C75.931 26.716 76.698 26.131 77.608 25.793L82.444 23.999V22.166C82.444 21.542 82.249 21.035 81.859 20.645C81.495 20.229 81.014 20.021 80.416 20.021H76.009V17.72H80.689C82.119 17.72 83.25 18.149 84.082 19.007C84.94 19.839 85.369 20.983 85.369 22.439V38H79.558ZM82.444 35.621V26.456L79.012 27.743C78.336 28.003 77.855 28.354 77.569 28.796C77.309 29.238 77.179 29.94 77.179 30.902V33.086C77.179 33.788 77.439 34.386 77.959 34.88C78.479 35.374 79.103 35.621 79.831 35.621H82.444ZM95.9471 39.248C96.8831 39.248 97.5981 39.417 98.0921 39.755C98.5861 40.093 98.8331 40.704 98.8331 41.588C98.8331 43.356 97.8191 44.24 95.7911 44.24H91.6181V42.407H94.7381C95.3361 42.407 95.7781 42.342 96.0641 42.212C96.3501 42.082 96.4931 41.861 96.4931 41.549C96.4931 41.211 96.3891 40.99 96.1811 40.886C95.9731 40.782 95.6351 40.73 95.1671 40.73H93.1391L93.8021 38H93.9581C92.5281 38 91.3841 37.571 90.5261 36.713C89.6941 35.855 89.2781 34.698 89.2781 33.242V22.868C89.2781 21.23 89.7071 19.969 90.5651 19.085C91.4231 18.175 92.6711 17.72 94.3091 17.72H98.6381V20.06H94.3871C93.7891 20.06 93.3081 20.268 92.9441 20.684C92.5801 21.074 92.3981 21.581 92.3981 22.205V33.515C92.3981 34.139 92.5801 34.659 92.9441 35.075C93.3341 35.465 93.8281 35.66 94.4261 35.66H98.6381V38H96.2201L95.9471 39.248ZM100.464 15.77C100.49 14.6 100.711 13.716 101.127 13.118C101.543 12.494 102.297 12.182 103.389 12.182C103.675 12.182 104.52 12.39 105.924 12.806C107.302 13.248 108.186 13.469 108.576 13.469C108.888 13.469 109.096 13.378 109.2 13.196C109.304 12.988 109.369 12.741 109.395 12.455C109.447 12.169 109.486 11.948 109.512 11.792H111.969C111.943 12.676 111.878 13.391 111.774 13.937C111.67 14.457 111.397 14.899 110.955 15.263C110.539 15.601 109.902 15.77 109.044 15.77C108.654 15.77 107.77 15.549 106.392 15.107C104.988 14.691 104.143 14.483 103.857 14.483C103.519 14.483 103.298 14.548 103.194 14.678C103.116 14.808 103.051 14.99 102.999 15.224C102.973 15.458 102.947 15.64 102.921 15.77H100.464ZM105.495 38C104.559 38 103.688 37.766 102.882 37.298C102.102 36.83 101.478 36.193 101.01 35.387C100.568 34.581 100.347 33.671 100.347 32.657V30.629C100.347 29.407 100.646 28.38 101.244 27.548C101.868 26.716 102.635 26.131 103.545 25.793L108.381 23.999V22.166C108.381 21.542 108.186 21.035 107.796 20.645C107.432 20.229 106.951 20.021 106.353 20.021H101.946V17.72H106.626C108.056 17.72 109.187 18.149 110.019 19.007C110.877 19.839 111.306 20.983 111.306 22.439V38H105.495ZM108.381 35.621V26.456L104.949 27.743C104.273 28.003 103.792 28.354 103.506 28.796C103.246 29.238 103.116 29.94 103.116 30.902V33.086C103.116 33.788 103.376 34.386 103.896 34.88C104.416 35.374 105.04 35.621 105.768 35.621H108.381ZM120.558 38.273C118.738 38.273 117.321 37.818 116.307 36.908C115.319 35.972 114.825 34.685 114.825 33.047V22.673C114.825 21.035 115.319 19.761 116.307 18.851C117.321 17.915 118.738 17.447 120.558 17.447C122.378 17.447 123.782 17.915 124.77 18.851C125.784 19.761 126.291 21.035 126.291 22.673V33.047C126.291 34.685 125.784 35.972 124.77 36.908C123.782 37.818 122.378 38.273 120.558 38.273ZM120.558 35.855C121.39 35.855 122.04 35.621 122.508 35.153C123.002 34.659 123.249 33.957 123.249 33.047V22.673C123.249 21.763 123.002 21.074 122.508 20.606C122.04 20.112 121.39 19.865 120.558 19.865C119.726 19.865 119.063 20.112 118.569 20.606C118.101 21.074 117.867 21.763 117.867 22.673V33.047C117.867 33.957 118.101 34.659 118.569 35.153C119.063 35.621 119.726 35.855 120.558 35.855Z" fill="#FF461E"/>
<rect y="50.0054" width="171" height="49.9946" fill="#FF461E"/>
<path d="M49.3174 88C47.6794 88 46.3534 87.519 45.3394 86.557C44.3254 85.595 43.8184 84.308 43.8184 82.696V72.985C43.8184 71.867 44.1174 70.918 44.7154 70.138C45.3394 69.358 46.1064 68.825 47.0164 68.539L52.2424 66.706V60.7H55.3624V88H49.3174ZM52.2424 85.66V69.28L48.7714 70.45C48.0954 70.658 47.6144 70.996 47.3284 71.464C47.0684 71.906 46.9384 72.621 46.9384 73.609V82.696C46.9384 83.632 47.2114 84.36 47.7574 84.88C48.3034 85.4 49.0444 85.66 49.9804 85.66H52.2424ZM64.1073 88C62.6773 88 61.5333 87.571 60.6753 86.713C59.8433 85.855 59.4273 84.698 59.4273 83.242V72.868C59.4273 71.178 59.8953 69.852 60.8313 68.89C61.7673 67.928 63.1583 67.447 65.0043 67.447C66.8503 67.447 68.2283 67.928 69.1383 68.89C70.0743 69.852 70.5423 71.178 70.5423 72.868V74.662C70.5423 75.754 70.2303 76.586 69.6063 77.158C68.9823 77.704 68.1633 78.12 67.1493 78.406L62.5473 79.693V83.515C62.5473 84.139 62.7293 84.659 63.0933 85.075C63.4833 85.465 63.9773 85.66 64.5753 85.66H68.7873V88H64.1073ZM64.9263 76.573C65.7843 76.339 66.3563 76.17 66.6423 76.066C66.9543 75.936 67.1623 75.754 67.2663 75.52C67.3703 75.286 67.4223 74.896 67.4223 74.35V72.205C67.4223 71.373 67.2013 70.762 66.7593 70.372C66.3433 69.982 65.7583 69.787 65.0043 69.787C64.2763 69.787 63.6783 69.995 63.2103 70.411C62.7683 70.827 62.5473 71.425 62.5473 72.205V77.236L64.9263 76.573ZM79.5522 88V60.7H82.6722V88H79.5522ZM92.2738 88.273C90.4538 88.273 89.0368 87.818 88.0228 86.908C87.0348 85.972 86.5408 84.685 86.5408 83.047V72.673C86.5408 71.035 87.0348 69.761 88.0228 68.851C89.0368 67.915 90.4538 67.447 92.2738 67.447C94.0938 67.447 95.4978 67.915 96.4858 68.851C97.4998 69.761 98.0068 71.035 98.0068 72.673V83.047C98.0068 84.685 97.4998 85.972 96.4858 86.908C95.4978 87.818 94.0938 88.273 92.2738 88.273ZM92.2738 85.855C93.1058 85.855 93.7558 85.621 94.2238 85.153C94.7178 84.659 94.9648 83.957 94.9648 83.047V72.673C94.9648 71.763 94.7178 71.074 94.2238 70.606C93.7558 70.112 93.1058 69.865 92.2738 69.865C91.4418 69.865 90.7788 70.112 90.2848 70.606C89.8168 71.074 89.5828 71.763 89.5828 72.673V83.047C89.5828 83.957 89.8168 84.659 90.2848 85.153C90.7788 85.621 91.4418 85.855 92.2738 85.855ZM103.546 91.9H107.563C108.161 91.9 108.629 91.692 108.967 91.276C109.331 90.886 109.513 90.379 109.513 89.755V88.039H106.276C104.846 88.039 103.637 87.571 102.649 86.635C101.661 85.699 101.167 84.529 101.167 83.125V72.634C101.167 71.23 101.661 70.06 102.649 69.124C103.663 68.188 104.885 67.72 106.315 67.72H112.672V89.482C112.672 90.938 112.269 92.095 111.463 92.953C110.683 93.811 109.578 94.24 108.148 94.24H103.546V91.9ZM109.552 85.699V70.06H106.939C106.211 70.06 105.587 70.307 105.067 70.801C104.547 71.295 104.287 71.906 104.287 72.634V83.125C104.287 83.853 104.547 84.464 105.067 84.958C105.587 85.452 106.211 85.699 106.939 85.699H109.552ZM121.905 88.273C120.085 88.273 118.668 87.818 117.654 86.908C116.666 85.972 116.172 84.685 116.172 83.047V72.673C116.172 71.035 116.666 69.761 117.654 68.851C118.668 67.915 120.085 67.447 121.905 67.447C123.725 67.447 125.129 67.915 126.117 68.851C127.131 69.761 127.638 71.035 127.638 72.673V83.047C127.638 84.685 127.131 85.972 126.117 86.908C125.129 87.818 123.725 88.273 121.905 88.273ZM121.905 85.855C122.737 85.855 123.387 85.621 123.855 85.153C124.349 84.659 124.596 83.957 124.596 83.047V72.673C124.596 71.763 124.349 71.074 123.855 70.606C123.387 70.112 122.737 69.865 121.905 69.865C121.073 69.865 120.41 70.112 119.916 70.606C119.448 71.074 119.214 71.763 119.214 72.673V83.047C119.214 83.957 119.448 84.659 119.916 85.153C120.41 85.621 121.073 85.855 121.905 85.855Z" fill="#241B53"/>
</svg>
