<svg width="171" height="72" viewBox="0 0 171 72" fill="none" xmlns="http://www.w3.org/2000/svg">
<path d="M40.3995 27.252C38.7195 27.252 37.2169 26.916 35.8915 26.244C34.5662 25.572 33.5302 24.6387 32.7835 23.444C32.0555 22.2493 31.6915 20.896 31.6915 19.384C31.6915 17.872 32.0555 16.528 32.7835 15.352C33.5302 14.1573 34.5662 13.2333 35.8915 12.58C37.2169 11.908 38.7195 11.572 40.3995 11.572C42.1169 11.572 43.6009 11.9453 44.8515 12.692C46.1022 13.42 46.9889 14.4373 47.5115 15.744L43.3955 17.844C42.7049 16.4813 41.6969 15.8 40.3715 15.8C39.4195 15.8 38.6262 16.1173 37.9915 16.752C37.3755 17.3867 37.0675 18.264 37.0675 19.384C37.0675 20.5227 37.3755 21.4187 37.9915 22.072C38.6262 22.7067 39.4195 23.024 40.3715 23.024C41.6969 23.024 42.7049 22.3427 43.3955 20.98L47.5115 23.08C46.9889 24.3867 46.1022 25.4133 44.8515 26.16C43.6009 26.888 42.1169 27.252 40.3995 27.252ZM54.5826 13.644C55.124 12.9533 55.824 12.44 56.6826 12.104C57.56 11.7493 58.5586 11.572 59.6786 11.572V16.36C59.1933 16.304 58.792 16.276 58.4746 16.276C57.336 16.276 56.44 16.584 55.7866 17.2C55.152 17.816 54.8346 18.7587 54.8346 20.028V27H49.5146V11.824H54.5826V13.644ZM61.874 11.824H67.194V27H61.874V11.824ZM64.534 10.144C63.5633 10.144 62.7793 9.87333 62.182 9.332C61.5847 8.79067 61.286 8.11867 61.286 7.316C61.286 6.51333 61.5847 5.84133 62.182 5.3C62.7793 4.75867 63.5633 4.488 64.534 4.488C65.5047 4.488 66.2887 4.74933 66.886 5.272C67.4833 5.776 67.782 6.42933 67.782 7.232C67.782 8.072 67.4833 8.772 66.886 9.332C66.2887 9.87333 65.5047 10.144 64.534 10.144ZM77.1194 11.572C79.6394 11.572 81.562 12.1507 82.8874 13.308C84.2127 14.4467 84.8754 16.2013 84.8754 18.572V27H79.9194V25.04C79.154 26.5147 77.6607 27.252 75.4394 27.252C74.2634 27.252 73.246 27.0467 72.3874 26.636C71.5287 26.2253 70.8754 25.6747 70.4274 24.984C69.998 24.2747 69.7834 23.472 69.7834 22.576C69.7834 21.1387 70.334 20.028 71.4354 19.244C72.5367 18.4413 74.2354 18.04 76.5314 18.04H79.5554C79.462 16.4347 78.3887 15.632 76.3354 15.632C75.6074 15.632 74.87 15.7533 74.1234 15.996C73.3767 16.22 72.742 16.5373 72.2194 16.948L70.4274 13.336C71.2674 12.776 72.2847 12.3467 73.4794 12.048C74.6927 11.7307 75.906 11.572 77.1194 11.572ZM76.9234 23.892C77.5394 23.892 78.0807 23.7427 78.5474 23.444C79.014 23.1453 79.35 22.7067 79.5554 22.128V20.812H77.2594C75.71 20.812 74.9354 21.3253 74.9354 22.352C74.9354 22.8187 75.1127 23.192 75.4674 23.472C75.822 23.752 76.3074 23.892 76.9234 23.892ZM96.2081 27.252C94.5281 27.252 93.0255 26.916 91.7001 26.244C90.3748 25.572 89.3388 24.6387 88.5921 23.444C87.8641 22.2493 87.5001 20.896 87.5001 19.384C87.5001 17.872 87.8641 16.528 88.5921 15.352C89.3388 14.1573 90.3748 13.2333 91.7001 12.58C93.0255 11.908 94.5281 11.572 96.2081 11.572C97.9255 11.572 99.4095 11.9453 100.66 12.692C101.911 13.42 102.797 14.4373 103.32 15.744L99.2041 17.844C98.5135 16.4813 97.5055 15.8 96.1801 15.8C95.2281 15.8 94.4348 16.1173 93.8001 16.752C93.1841 17.3867 92.8761 18.264 92.8761 19.384C92.8761 20.5227 93.1841 21.4187 93.8001 22.072C94.4348 22.7067 95.2281 23.024 96.1801 23.024C97.5055 23.024 98.5135 22.3427 99.2041 20.98L103.32 23.08C102.797 24.3867 101.911 25.4133 100.66 26.16C99.4095 26.888 97.9255 27.252 96.2081 27.252ZM94.4441 33.608C93.9775 33.608 93.4921 33.552 92.9881 33.44C92.5028 33.328 92.1015 33.188 91.7841 33.02L92.5121 30.92C93.0721 31.1813 93.6508 31.312 94.2481 31.312C95.1815 31.312 95.6481 31.0507 95.6481 30.528C95.6481 30.0613 95.2281 29.828 94.3881 29.828H93.3521L94.0801 26.748H96.8521L96.4601 28.428C97.2815 28.5213 97.8881 28.7733 98.2801 29.184C98.6721 29.6133 98.8681 30.1173 98.8681 30.696C98.8681 31.592 98.4668 32.3013 97.6641 32.824C96.8615 33.3467 95.7881 33.608 94.4441 33.608ZM111.791 11.572C114.311 11.572 116.234 12.1507 117.559 13.308C118.885 14.4467 119.547 16.2013 119.547 18.572V27H114.591V25.04C113.826 26.5147 112.333 27.252 110.111 27.252C108.935 27.252 107.918 27.0467 107.059 26.636C106.201 26.2253 105.547 25.6747 105.099 24.984C104.67 24.2747 104.455 23.472 104.455 22.576C104.455 21.1387 105.006 20.028 106.107 19.244C107.209 18.4413 108.907 18.04 111.203 18.04H114.227C114.134 16.4347 113.061 15.632 111.007 15.632C110.279 15.632 109.542 15.7533 108.795 15.996C108.049 16.22 107.414 16.5373 106.891 16.948L105.099 13.336C105.939 12.776 106.957 12.3467 108.151 12.048C109.365 11.7307 110.578 11.572 111.791 11.572ZM111.595 23.892C112.211 23.892 112.753 23.7427 113.219 23.444C113.686 23.1453 114.022 22.7067 114.227 22.128V20.812H111.931C110.382 20.812 109.607 21.3253 109.607 22.352C109.607 22.8187 109.785 23.192 110.139 23.472C110.494 23.752 110.979 23.892 111.595 23.892ZM114.563 10.2C114.059 10.2 113.602 10.1067 113.191 9.92C112.799 9.71467 112.361 9.444 111.875 9.108C111.521 8.86533 111.25 8.69733 111.063 8.604C110.895 8.51067 110.718 8.464 110.531 8.464C110.158 8.464 109.859 8.59467 109.635 8.856C109.411 9.11733 109.281 9.48133 109.243 9.948H106.639C106.677 8.58533 107.013 7.50267 107.647 6.7C108.282 5.89733 109.131 5.496 110.195 5.496C110.699 5.496 111.147 5.58933 111.539 5.776C111.931 5.96267 112.379 6.224 112.883 6.56C113.238 6.80267 113.499 6.97067 113.667 7.064C113.854 7.15733 114.041 7.204 114.227 7.204C114.601 7.204 114.899 7.08267 115.123 6.84C115.347 6.57867 115.478 6.23333 115.515 5.804H118.119C118.082 7.12933 117.746 8.19333 117.111 8.996C116.477 9.79867 115.627 10.2 114.563 10.2ZM130.74 27.252C129.116 27.252 127.651 26.916 126.344 26.244C125.037 25.572 124.011 24.6387 123.264 23.444C122.536 22.2493 122.172 20.896 122.172 19.384C122.172 17.8907 122.536 16.5467 123.264 15.352C124.011 14.1573 125.028 13.2333 126.316 12.58C127.623 11.908 129.097 11.572 130.74 11.572C132.383 11.572 133.857 11.908 135.164 12.58C136.471 13.2333 137.488 14.1573 138.216 15.352C138.944 16.528 139.308 17.872 139.308 19.384C139.308 20.896 138.944 22.2493 138.216 23.444C137.488 24.6387 136.471 25.572 135.164 26.244C133.857 26.916 132.383 27.252 130.74 27.252ZM130.74 23.024C131.673 23.024 132.439 22.7067 133.036 22.072C133.633 21.4187 133.932 20.5227 133.932 19.384C133.932 18.264 133.633 17.3867 133.036 16.752C132.439 16.1173 131.673 15.8 130.74 15.8C129.807 15.8 129.041 16.1173 128.444 16.752C127.847 17.3867 127.548 18.264 127.548 19.384C127.548 20.5227 127.847 21.4187 128.444 22.072C129.041 22.7067 129.807 23.024 130.74 23.024Z" fill="#FF461E"/>
<rect y="36.0038" width="171" height="35.9961" fill="#FF461E"/>
<path d="M47.2101 41.966V62H42.3231V60.542C41.3691 61.676 39.9381 62.243 38.0301 62.243C36.6981 62.243 35.4831 61.937 34.3851 61.325C33.2871 60.695 32.4141 59.804 31.7661 58.652C31.1361 57.5 30.8211 56.168 30.8211 54.656C30.8211 53.144 31.1361 51.821 31.7661 50.687C32.4141 49.535 33.2871 48.653 34.3851 48.041C35.4831 47.429 36.6981 47.123 38.0301 47.123C39.7761 47.123 41.1261 47.627 42.0801 48.635V41.966H47.2101ZM39.1101 58.166C39.9921 58.166 40.7211 57.86 41.2971 57.248C41.8731 56.618 42.1611 55.754 42.1611 54.656C42.1611 53.576 41.8731 52.73 41.2971 52.118C40.7391 51.506 40.0101 51.2 39.1101 51.2C38.2101 51.2 37.4721 51.506 36.8961 52.118C36.3201 52.73 36.0321 53.576 36.0321 54.656C36.0321 55.754 36.3201 56.618 36.8961 57.248C37.4721 57.86 38.2101 58.166 39.1101 58.166ZM65.4686 54.71C65.4686 54.746 65.4416 55.169 65.3876 55.979H54.7496C54.9656 56.735 55.3796 57.32 55.9916 57.734C56.6216 58.13 57.4046 58.328 58.3406 58.328C59.0426 58.328 59.6456 58.229 60.1496 58.031C60.6716 57.833 61.1936 57.509 61.7156 57.059L64.4156 59.867C62.9936 61.451 60.9146 62.243 58.1786 62.243C56.4686 62.243 54.9656 61.919 53.6696 61.271C52.3736 60.623 51.3656 59.723 50.6456 58.571C49.9436 57.419 49.5926 56.114 49.5926 54.656C49.5926 53.216 49.9346 51.929 50.6186 50.795C51.3206 49.643 52.2836 48.743 53.5076 48.095C54.7316 47.447 56.1086 47.123 57.6386 47.123C59.0966 47.123 60.4196 47.429 61.6076 48.041C62.7956 48.635 63.7316 49.508 64.4156 50.66C65.1176 51.794 65.4686 53.144 65.4686 54.71ZM57.6656 50.768C56.8736 50.768 56.2076 50.993 55.6676 51.443C55.1456 51.893 54.8126 52.505 54.6686 53.279H60.6626C60.5186 52.505 60.1766 51.893 59.6366 51.443C59.1146 50.993 58.4576 50.768 57.6656 50.768ZM81.0103 62.243C79.7863 62.243 78.5803 62.108 77.3923 61.838C76.2043 61.55 75.2503 61.181 74.5303 60.731L76.0693 57.221C76.7353 57.635 77.5273 57.968 78.4453 58.22C79.3633 58.454 80.2723 58.571 81.1723 58.571C82.0003 58.571 82.5853 58.49 82.9273 58.328C83.2873 58.148 83.4673 57.896 83.4673 57.572C83.4673 57.248 83.2513 57.023 82.8193 56.897C82.4053 56.753 81.7393 56.618 80.8213 56.492C79.6513 56.348 78.6523 56.159 77.8243 55.925C77.0143 55.691 76.3123 55.259 75.7183 54.629C75.1243 53.999 74.8273 53.117 74.8273 51.983C74.8273 51.047 75.1063 50.219 75.6643 49.499C76.2223 48.761 77.0323 48.185 78.0943 47.771C79.1743 47.339 80.4613 47.123 81.9553 47.123C83.0173 47.123 84.0703 47.231 85.1143 47.447C86.1583 47.663 87.0313 47.969 87.7333 48.365L86.1943 51.848C84.8983 51.128 83.4943 50.768 81.9823 50.768C81.1723 50.768 80.5783 50.867 80.2003 51.065C79.8223 51.245 79.6333 51.488 79.6333 51.794C79.6333 52.136 79.8403 52.379 80.2543 52.523C80.6683 52.649 81.3523 52.784 82.3063 52.928C83.5123 53.108 84.5113 53.315 85.3033 53.549C86.0953 53.783 86.7793 54.215 87.3553 54.845C87.9493 55.457 88.2463 56.321 88.2463 57.437C88.2463 58.355 87.9673 59.183 87.4093 59.921C86.8513 60.641 86.0233 61.208 84.9253 61.622C83.8453 62.036 82.5403 62.243 81.0103 62.243ZM90.4569 47.366H95.5869V62H90.4569V47.366ZM93.0219 45.746C92.0859 45.746 91.3299 45.485 90.7539 44.963C90.1779 44.441 89.8899 43.793 89.8899 43.019C89.8899 42.245 90.1779 41.597 90.7539 41.075C91.3299 40.553 92.0859 40.292 93.0219 40.292C93.9579 40.292 94.7139 40.544 95.2899 41.048C95.8659 41.534 96.1539 42.164 96.1539 42.938C96.1539 43.748 95.8659 44.423 95.2899 44.963C94.7139 45.485 93.9579 45.746 93.0219 45.746ZM109.019 61.406C108.587 61.676 108.056 61.883 107.426 62.027C106.814 62.171 106.157 62.243 105.455 62.243C103.547 62.243 102.08 61.775 101.054 60.839C100.028 59.903 99.5148 58.508 99.5148 56.654V51.74H97.3818V47.906H99.5148V44.099H104.645V47.906H107.993V51.74H104.645V56.6C104.645 57.122 104.78 57.536 105.05 57.842C105.338 58.13 105.716 58.274 106.184 58.274C106.778 58.274 107.3 58.121 107.75 57.815L109.019 61.406ZM125.533 54.71C125.533 54.746 125.506 55.169 125.452 55.979H114.814C115.03 56.735 115.444 57.32 116.056 57.734C116.686 58.13 117.469 58.328 118.405 58.328C119.107 58.328 119.71 58.229 120.214 58.031C120.736 57.833 121.258 57.509 121.78 57.059L124.48 59.867C123.058 61.451 120.979 62.243 118.243 62.243C116.533 62.243 115.03 61.919 113.734 61.271C112.438 60.623 111.43 59.723 110.71 58.571C110.008 57.419 109.657 56.114 109.657 54.656C109.657 53.216 109.999 51.929 110.683 50.795C111.385 49.643 112.348 48.743 113.572 48.095C114.796 47.447 116.173 47.123 117.703 47.123C119.161 47.123 120.484 47.429 121.672 48.041C122.86 48.635 123.796 49.508 124.48 50.66C125.182 51.794 125.533 53.144 125.533 54.71ZM117.73 50.768C116.938 50.768 116.272 50.993 115.732 51.443C115.21 51.893 114.877 52.505 114.733 53.279H120.727C120.583 52.505 120.241 51.893 119.701 51.443C119.179 50.993 118.522 50.768 117.73 50.768ZM133.217 62.243C131.993 62.243 130.787 62.108 129.599 61.838C128.411 61.55 127.457 61.181 126.737 60.731L128.276 57.221C128.942 57.635 129.734 57.968 130.652 58.22C131.57 58.454 132.479 58.571 133.379 58.571C134.207 58.571 134.792 58.49 135.134 58.328C135.494 58.148 135.674 57.896 135.674 57.572C135.674 57.248 135.458 57.023 135.026 56.897C134.612 56.753 133.946 56.618 133.028 56.492C131.858 56.348 130.859 56.159 130.031 55.925C129.221 55.691 128.519 55.259 127.925 54.629C127.331 53.999 127.034 53.117 127.034 51.983C127.034 51.047 127.313 50.219 127.871 49.499C128.429 48.761 129.239 48.185 130.301 47.771C131.381 47.339 132.668 47.123 134.162 47.123C135.224 47.123 136.277 47.231 137.321 47.447C138.365 47.663 139.238 47.969 139.94 48.365L138.401 51.848C137.105 51.128 135.701 50.768 134.189 50.768C133.379 50.768 132.785 50.867 132.407 51.065C132.029 51.245 131.84 51.488 131.84 51.794C131.84 52.136 132.047 52.379 132.461 52.523C132.875 52.649 133.559 52.784 134.513 52.928C135.719 53.108 136.718 53.315 137.51 53.549C138.302 53.783 138.986 54.215 139.562 54.845C140.156 55.457 140.453 56.321 140.453 57.437C140.453 58.355 140.174 59.183 139.616 59.921C139.058 60.641 138.23 61.208 137.132 61.622C136.052 62.036 134.747 62.243 133.217 62.243Z" fill="#241B53"/>
</svg>
