<svg width="171" height="100" viewBox="0 0 171 100" fill="none" xmlns="http://www.w3.org/2000/svg">
<path d="M49.7784 38C48.3484 38 47.2044 37.571 46.3464 36.713C45.5144 35.855 45.0984 34.698 45.0984 33.242V22.868C45.0984 21.23 45.5274 19.969 46.3854 19.085C47.2434 18.175 48.4914 17.72 50.1294 17.72H54.4584V20.06H50.2074C49.6094 20.06 49.1284 20.268 48.7644 20.684C48.4004 21.074 48.2184 21.581 48.2184 22.205V33.515C48.2184 34.139 48.4004 34.659 48.7644 35.075C49.1544 35.465 49.6484 35.66 50.2464 35.66H54.4584V38H49.7784ZM57.1808 17.72H59.5988L59.9498 19.163L60.9248 18.695C61.7568 18.279 62.4458 17.967 62.9918 17.759C63.5638 17.551 64.1358 17.447 64.7078 17.447V19.748C64.3698 19.748 63.9148 19.852 63.3428 20.06C62.7708 20.242 61.7568 20.684 60.3008 21.386V38H57.1808V17.72ZM67.6164 14.405V11.285H70.7364V14.405H67.6164ZM67.6164 38V17.72H70.7364V38H67.6164ZM79.558 38C78.622 38 77.751 37.766 76.945 37.298C76.165 36.83 75.541 36.193 75.073 35.387C74.631 34.581 74.41 33.671 74.41 32.657V30.629C74.41 29.407 74.709 28.38 75.307 27.548C75.931 26.716 76.698 26.131 77.608 25.793L82.444 23.999V22.166C82.444 21.542 82.249 21.035 81.859 20.645C81.495 20.229 81.014 20.021 80.416 20.021H76.009V17.72H80.689C82.119 17.72 83.25 18.149 84.082 19.007C84.94 19.839 85.369 20.983 85.369 22.439V38H79.558ZM82.444 35.621V26.456L79.012 27.743C78.336 28.003 77.855 28.354 77.569 28.796C77.309 29.238 77.179 29.94 77.179 30.902V33.086C77.179 33.788 77.439 34.386 77.959 34.88C78.479 35.374 79.103 35.621 79.831 35.621H82.444ZM95.9471 39.248C96.8831 39.248 97.5981 39.417 98.0921 39.755C98.5861 40.093 98.8331 40.704 98.8331 41.588C98.8331 43.356 97.8191 44.24 95.7911 44.24H91.6181V42.407H94.7381C95.3361 42.407 95.7781 42.342 96.0641 42.212C96.3501 42.082 96.4931 41.861 96.4931 41.549C96.4931 41.211 96.3891 40.99 96.1811 40.886C95.9731 40.782 95.6351 40.73 95.1671 40.73H93.1391L93.8021 38H93.9581C92.5281 38 91.3841 37.571 90.5261 36.713C89.6941 35.855 89.2781 34.698 89.2781 33.242V22.868C89.2781 21.23 89.7071 19.969 90.5651 19.085C91.4231 18.175 92.6711 17.72 94.3091 17.72H98.6381V20.06H94.3871C93.7891 20.06 93.3081 20.268 92.9441 20.684C92.5801 21.074 92.3981 21.581 92.3981 22.205V33.515C92.3981 34.139 92.5801 34.659 92.9441 35.075C93.3341 35.465 93.8281 35.66 94.4261 35.66H98.6381V38H96.2201L95.9471 39.248ZM100.464 15.77C100.49 14.6 100.711 13.716 101.127 13.118C101.543 12.494 102.297 12.182 103.389 12.182C103.675 12.182 104.52 12.39 105.924 12.806C107.302 13.248 108.186 13.469 108.576 13.469C108.888 13.469 109.096 13.378 109.2 13.196C109.304 12.988 109.369 12.741 109.395 12.455C109.447 12.169 109.486 11.948 109.512 11.792H111.969C111.943 12.676 111.878 13.391 111.774 13.937C111.67 14.457 111.397 14.899 110.955 15.263C110.539 15.601 109.902 15.77 109.044 15.77C108.654 15.77 107.77 15.549 106.392 15.107C104.988 14.691 104.143 14.483 103.857 14.483C103.519 14.483 103.298 14.548 103.194 14.678C103.116 14.808 103.051 14.99 102.999 15.224C102.973 15.458 102.947 15.64 102.921 15.77H100.464ZM105.495 38C104.559 38 103.688 37.766 102.882 37.298C102.102 36.83 101.478 36.193 101.01 35.387C100.568 34.581 100.347 33.671 100.347 32.657V30.629C100.347 29.407 100.646 28.38 101.244 27.548C101.868 26.716 102.635 26.131 103.545 25.793L108.381 23.999V22.166C108.381 21.542 108.186 21.035 107.796 20.645C107.432 20.229 106.951 20.021 106.353 20.021H101.946V17.72H106.626C108.056 17.72 109.187 18.149 110.019 19.007C110.877 19.839 111.306 20.983 111.306 22.439V38H105.495ZM108.381 35.621V26.456L104.949 27.743C104.273 28.003 103.792 28.354 103.506 28.796C103.246 29.238 103.116 29.94 103.116 30.902V33.086C103.116 33.788 103.376 34.386 103.896 34.88C104.416 35.374 105.04 35.621 105.768 35.621H108.381ZM120.558 38.273C118.738 38.273 117.321 37.818 116.307 36.908C115.319 35.972 114.825 34.685 114.825 33.047V22.673C114.825 21.035 115.319 19.761 116.307 18.851C117.321 17.915 118.738 17.447 120.558 17.447C122.378 17.447 123.782 17.915 124.77 18.851C125.784 19.761 126.291 21.035 126.291 22.673V33.047C126.291 34.685 125.784 35.972 124.77 36.908C123.782 37.818 122.378 38.273 120.558 38.273ZM120.558 35.855C121.39 35.855 122.04 35.621 122.508 35.153C123.002 34.659 123.249 33.957 123.249 33.047V22.673C123.249 21.763 123.002 21.074 122.508 20.606C122.04 20.112 121.39 19.865 120.558 19.865C119.726 19.865 119.063 20.112 118.569 20.606C118.101 21.074 117.867 21.763 117.867 22.673V33.047C117.867 33.957 118.101 34.659 118.569 35.153C119.063 35.621 119.726 35.855 120.558 35.855Z" fill="#FF461E"/>
<rect y="50.0054" width="171" height="49.9946" fill="#FF461E"/>
<path d="M47.7559 88C46.1179 88 44.7919 87.519 43.7779 86.557C42.7639 85.595 42.2569 84.308 42.2569 82.696V72.985C42.2569 71.867 42.5559 70.918 43.1539 70.138C43.7779 69.358 44.5449 68.825 45.4549 68.539L50.6809 66.706V60.7H53.8009V88H47.7559ZM50.6809 85.66V69.28L47.2099 70.45C46.5339 70.658 46.0529 70.996 45.7669 71.464C45.5069 71.906 45.3769 72.621 45.3769 73.609V82.696C45.3769 83.632 45.6499 84.36 46.1959 84.88C46.7419 85.4 47.4829 85.66 48.4189 85.66H50.6809ZM62.5457 88C61.1157 88 59.9717 87.571 59.1137 86.713C58.2817 85.855 57.8657 84.698 57.8657 83.242V72.868C57.8657 71.178 58.3337 69.852 59.2697 68.89C60.2057 67.928 61.5967 67.447 63.4427 67.447C65.2887 67.447 66.6667 67.928 67.5767 68.89C68.5127 69.852 68.9807 71.178 68.9807 72.868V74.662C68.9807 75.754 68.6687 76.586 68.0447 77.158C67.4207 77.704 66.6017 78.12 65.5877 78.406L60.9857 79.693V83.515C60.9857 84.139 61.1677 84.659 61.5317 85.075C61.9217 85.465 62.4157 85.66 63.0137 85.66H67.2257V88H62.5457ZM63.3647 76.573C64.2227 76.339 64.7947 76.17 65.0807 76.066C65.3927 75.936 65.6007 75.754 65.7047 75.52C65.8087 75.286 65.8607 74.896 65.8607 74.35V72.205C65.8607 71.373 65.6397 70.762 65.1977 70.372C64.7817 69.982 64.1967 69.787 63.4427 69.787C62.7147 69.787 62.1167 69.995 61.6487 70.411C61.2067 70.827 60.9857 71.425 60.9857 72.205V77.236L63.3647 76.573ZM76.7816 85.66H80.0966C81.2146 85.66 82.0206 85.361 82.5146 84.763C83.0346 84.139 83.2946 83.333 83.2946 82.345C83.2946 81.565 83.0606 80.902 82.5926 80.356C82.1246 79.81 81.4226 79.173 80.4866 78.445C79.6806 77.795 79.0306 77.236 78.5366 76.768C78.0686 76.274 77.6526 75.676 77.2886 74.974C76.9506 74.246 76.7816 73.414 76.7816 72.478C76.7816 71.1 77.2366 69.969 78.1466 69.085C79.0826 68.175 80.3306 67.72 81.8906 67.72H85.2836V70.06H82.4756C80.6296 70.06 79.7066 70.931 79.7066 72.673C79.7066 73.349 79.9146 73.934 80.3306 74.428C80.7466 74.922 81.3966 75.507 82.2806 76.183C83.0866 76.807 83.7496 77.379 84.2696 77.899C84.7896 78.393 85.2316 79.03 85.5956 79.81C85.9596 80.564 86.1416 81.461 86.1416 82.501C86.1416 84.347 85.6476 85.725 84.6596 86.635C83.6976 87.545 82.3326 88 80.5646 88H76.7816V85.66ZM89.644 64.405V61.285H92.764V64.405H89.644ZM89.644 88V67.72H92.764V88H89.644ZM103.107 88C101.677 88 100.546 87.571 99.7136 86.713C98.8816 85.855 98.4656 84.698 98.4656 83.242V70.06H96.1256V67.72H98.4656V61.831L101.586 60.661V67.72H104.706V70.06H101.586V83.515C101.586 84.139 101.755 84.659 102.093 85.075C102.457 85.465 102.938 85.66 103.536 85.66H104.706V88H103.107ZM111.867 88C110.437 88 109.293 87.571 108.435 86.713C107.603 85.855 107.187 84.698 107.187 83.242V72.868C107.187 71.178 107.655 69.852 108.591 68.89C109.527 67.928 110.918 67.447 112.764 67.447C114.61 67.447 115.988 67.928 116.898 68.89C117.834 69.852 118.302 71.178 118.302 72.868V74.662C118.302 75.754 117.99 76.586 117.366 77.158C116.742 77.704 115.923 78.12 114.909 78.406L110.307 79.693V83.515C110.307 84.139 110.489 84.659 110.853 85.075C111.243 85.465 111.737 85.66 112.335 85.66H116.547V88H111.867ZM112.686 76.573C113.544 76.339 114.116 76.17 114.402 76.066C114.714 75.936 114.922 75.754 115.026 75.52C115.13 75.286 115.182 74.896 115.182 74.35V72.205C115.182 71.373 114.961 70.762 114.519 70.372C114.103 69.982 113.518 69.787 112.764 69.787C112.036 69.787 111.438 69.995 110.97 70.411C110.528 70.827 110.307 71.425 110.307 72.205V77.236L112.686 76.573ZM120.238 85.66H123.553C124.671 85.66 125.477 85.361 125.971 84.763C126.491 84.139 126.751 83.333 126.751 82.345C126.751 81.565 126.517 80.902 126.049 80.356C125.581 79.81 124.879 79.173 123.943 78.445C123.137 77.795 122.487 77.236 121.993 76.768C121.525 76.274 121.109 75.676 120.745 74.974C120.407 74.246 120.238 73.414 120.238 72.478C120.238 71.1 120.693 69.969 121.603 69.085C122.539 68.175 123.787 67.72 125.347 67.72H128.74V70.06H125.932C124.086 70.06 123.163 70.931 123.163 72.673C123.163 73.349 123.371 73.934 123.787 74.428C124.203 74.922 124.853 75.507 125.737 76.183C126.543 76.807 127.206 77.379 127.726 77.899C128.246 78.393 128.688 79.03 129.052 79.81C129.416 80.564 129.598 81.461 129.598 82.501C129.598 84.347 129.104 85.725 128.116 86.635C127.154 87.545 125.789 88 124.021 88H120.238V85.66Z" fill="#241B53"/>
</svg>
