<svg width="171" height="72" viewBox="0 0 171 72" fill="none" xmlns="http://www.w3.org/2000/svg">
<path d="M40.3995 27.252C38.7195 27.252 37.2169 26.916 35.8915 26.244C34.5662 25.572 33.5302 24.6387 32.7835 23.444C32.0555 22.2493 31.6915 20.896 31.6915 19.384C31.6915 17.872 32.0555 16.528 32.7835 15.352C33.5302 14.1573 34.5662 13.2333 35.8915 12.58C37.2169 11.908 38.7195 11.572 40.3995 11.572C42.1169 11.572 43.6009 11.9453 44.8515 12.692C46.1022 13.42 46.9889 14.4373 47.5115 15.744L43.3955 17.844C42.7049 16.4813 41.6969 15.8 40.3715 15.8C39.4195 15.8 38.6262 16.1173 37.9915 16.752C37.3755 17.3867 37.0675 18.264 37.0675 19.384C37.0675 20.5227 37.3755 21.4187 37.9915 22.072C38.6262 22.7067 39.4195 23.024 40.3715 23.024C41.6969 23.024 42.7049 22.3427 43.3955 20.98L47.5115 23.08C46.9889 24.3867 46.1022 25.4133 44.8515 26.16C43.6009 26.888 42.1169 27.252 40.3995 27.252ZM54.5826 13.644C55.124 12.9533 55.824 12.44 56.6826 12.104C57.56 11.7493 58.5586 11.572 59.6786 11.572V16.36C59.1933 16.304 58.792 16.276 58.4746 16.276C57.336 16.276 56.44 16.584 55.7866 17.2C55.152 17.816 54.8346 18.7587 54.8346 20.028V27H49.5146V11.824H54.5826V13.644ZM61.874 11.824H67.194V27H61.874V11.824ZM64.534 10.144C63.5633 10.144 62.7793 9.87333 62.182 9.332C61.5847 8.79067 61.286 8.11867 61.286 7.316C61.286 6.51333 61.5847 5.84133 62.182 5.3C62.7793 4.75867 63.5633 4.488 64.534 4.488C65.5047 4.488 66.2887 4.74933 66.886 5.272C67.4833 5.776 67.782 6.42933 67.782 7.232C67.782 8.072 67.4833 8.772 66.886 9.332C66.2887 9.87333 65.5047 10.144 64.534 10.144ZM77.1194 11.572C79.6394 11.572 81.562 12.1507 82.8874 13.308C84.2127 14.4467 84.8754 16.2013 84.8754 18.572V27H79.9194V25.04C79.154 26.5147 77.6607 27.252 75.4394 27.252C74.2634 27.252 73.246 27.0467 72.3874 26.636C71.5287 26.2253 70.8754 25.6747 70.4274 24.984C69.998 24.2747 69.7834 23.472 69.7834 22.576C69.7834 21.1387 70.334 20.028 71.4354 19.244C72.5367 18.4413 74.2354 18.04 76.5314 18.04H79.5554C79.462 16.4347 78.3887 15.632 76.3354 15.632C75.6074 15.632 74.87 15.7533 74.1234 15.996C73.3767 16.22 72.742 16.5373 72.2194 16.948L70.4274 13.336C71.2674 12.776 72.2847 12.3467 73.4794 12.048C74.6927 11.7307 75.906 11.572 77.1194 11.572ZM76.9234 23.892C77.5394 23.892 78.0807 23.7427 78.5474 23.444C79.014 23.1453 79.35 22.7067 79.5554 22.128V20.812H77.2594C75.71 20.812 74.9354 21.3253 74.9354 22.352C74.9354 22.8187 75.1127 23.192 75.4674 23.472C75.822 23.752 76.3074 23.892 76.9234 23.892ZM96.2081 27.252C94.5281 27.252 93.0255 26.916 91.7001 26.244C90.3748 25.572 89.3388 24.6387 88.5921 23.444C87.8641 22.2493 87.5001 20.896 87.5001 19.384C87.5001 17.872 87.8641 16.528 88.5921 15.352C89.3388 14.1573 90.3748 13.2333 91.7001 12.58C93.0255 11.908 94.5281 11.572 96.2081 11.572C97.9255 11.572 99.4095 11.9453 100.66 12.692C101.911 13.42 102.797 14.4373 103.32 15.744L99.2041 17.844C98.5135 16.4813 97.5055 15.8 96.1801 15.8C95.2281 15.8 94.4348 16.1173 93.8001 16.752C93.1841 17.3867 92.8761 18.264 92.8761 19.384C92.8761 20.5227 93.1841 21.4187 93.8001 22.072C94.4348 22.7067 95.2281 23.024 96.1801 23.024C97.5055 23.024 98.5135 22.3427 99.2041 20.98L103.32 23.08C102.797 24.3867 101.911 25.4133 100.66 26.16C99.4095 26.888 97.9255 27.252 96.2081 27.252ZM94.4441 33.608C93.9775 33.608 93.4921 33.552 92.9881 33.44C92.5028 33.328 92.1015 33.188 91.7841 33.02L92.5121 30.92C93.0721 31.1813 93.6508 31.312 94.2481 31.312C95.1815 31.312 95.6481 31.0507 95.6481 30.528C95.6481 30.0613 95.2281 29.828 94.3881 29.828H93.3521L94.0801 26.748H96.8521L96.4601 28.428C97.2815 28.5213 97.8881 28.7733 98.2801 29.184C98.6721 29.6133 98.8681 30.1173 98.8681 30.696C98.8681 31.592 98.4668 32.3013 97.6641 32.824C96.8615 33.3467 95.7881 33.608 94.4441 33.608ZM111.791 11.572C114.311 11.572 116.234 12.1507 117.559 13.308C118.885 14.4467 119.547 16.2013 119.547 18.572V27H114.591V25.04C113.826 26.5147 112.333 27.252 110.111 27.252C108.935 27.252 107.918 27.0467 107.059 26.636C106.201 26.2253 105.547 25.6747 105.099 24.984C104.67 24.2747 104.455 23.472 104.455 22.576C104.455 21.1387 105.006 20.028 106.107 19.244C107.209 18.4413 108.907 18.04 111.203 18.04H114.227C114.134 16.4347 113.061 15.632 111.007 15.632C110.279 15.632 109.542 15.7533 108.795 15.996C108.049 16.22 107.414 16.5373 106.891 16.948L105.099 13.336C105.939 12.776 106.957 12.3467 108.151 12.048C109.365 11.7307 110.578 11.572 111.791 11.572ZM111.595 23.892C112.211 23.892 112.753 23.7427 113.219 23.444C113.686 23.1453 114.022 22.7067 114.227 22.128V20.812H111.931C110.382 20.812 109.607 21.3253 109.607 22.352C109.607 22.8187 109.785 23.192 110.139 23.472C110.494 23.752 110.979 23.892 111.595 23.892ZM114.563 10.2C114.059 10.2 113.602 10.1067 113.191 9.92C112.799 9.71467 112.361 9.444 111.875 9.108C111.521 8.86533 111.25 8.69733 111.063 8.604C110.895 8.51067 110.718 8.464 110.531 8.464C110.158 8.464 109.859 8.59467 109.635 8.856C109.411 9.11733 109.281 9.48133 109.243 9.948H106.639C106.677 8.58533 107.013 7.50267 107.647 6.7C108.282 5.89733 109.131 5.496 110.195 5.496C110.699 5.496 111.147 5.58933 111.539 5.776C111.931 5.96267 112.379 6.224 112.883 6.56C113.238 6.80267 113.499 6.97067 113.667 7.064C113.854 7.15733 114.041 7.204 114.227 7.204C114.601 7.204 114.899 7.08267 115.123 6.84C115.347 6.57867 115.478 6.23333 115.515 5.804H118.119C118.082 7.12933 117.746 8.19333 117.111 8.996C116.477 9.79867 115.627 10.2 114.563 10.2ZM130.74 27.252C129.116 27.252 127.651 26.916 126.344 26.244C125.037 25.572 124.011 24.6387 123.264 23.444C122.536 22.2493 122.172 20.896 122.172 19.384C122.172 17.8907 122.536 16.5467 123.264 15.352C124.011 14.1573 125.028 13.2333 126.316 12.58C127.623 11.908 129.097 11.572 130.74 11.572C132.383 11.572 133.857 11.908 135.164 12.58C136.471 13.2333 137.488 14.1573 138.216 15.352C138.944 16.528 139.308 17.872 139.308 19.384C139.308 20.896 138.944 22.2493 138.216 23.444C137.488 24.6387 136.471 25.572 135.164 26.244C133.857 26.916 132.383 27.252 130.74 27.252ZM130.74 23.024C131.673 23.024 132.439 22.7067 133.036 22.072C133.633 21.4187 133.932 20.5227 133.932 19.384C133.932 18.264 133.633 17.3867 133.036 16.752C132.439 16.1173 131.673 15.8 130.74 15.8C129.807 15.8 129.041 16.1173 128.444 16.752C127.847 17.3867 127.548 18.264 127.548 19.384C127.548 20.5227 127.847 21.4187 128.444 22.072C129.041 22.7067 129.807 23.024 130.74 23.024Z" fill="#FF461E"/>
<rect y="36.0038" width="171" height="35.9961" fill="#FF461E"/>
<path d="M46.0631 41.966V62H41.1761V60.542C40.2221 61.676 38.7911 62.243 36.8831 62.243C35.5511 62.243 34.3361 61.937 33.2381 61.325C32.1401 60.695 31.2671 59.804 30.6191 58.652C29.9891 57.5 29.6741 56.168 29.6741 54.656C29.6741 53.144 29.9891 51.821 30.6191 50.687C31.2671 49.535 32.1401 48.653 33.2381 48.041C34.3361 47.429 35.5511 47.123 36.8831 47.123C38.6291 47.123 39.9791 47.627 40.9331 48.635V41.966H46.0631ZM37.9631 58.166C38.8451 58.166 39.5741 57.86 40.1501 57.248C40.7261 56.618 41.0141 55.754 41.0141 54.656C41.0141 53.576 40.7261 52.73 40.1501 52.118C39.5921 51.506 38.8631 51.2 37.9631 51.2C37.0631 51.2 36.3251 51.506 35.7491 52.118C35.1731 52.73 34.8851 53.576 34.8851 54.656C34.8851 55.754 35.1731 56.618 35.7491 57.248C36.3251 57.86 37.0631 58.166 37.9631 58.166ZM64.3216 54.71C64.3216 54.746 64.2946 55.169 64.2406 55.979H53.6026C53.8186 56.735 54.2326 57.32 54.8446 57.734C55.4746 58.13 56.2576 58.328 57.1936 58.328C57.8956 58.328 58.4986 58.229 59.0026 58.031C59.5246 57.833 60.0466 57.509 60.5686 57.059L63.2686 59.867C61.8466 61.451 59.7676 62.243 57.0316 62.243C55.3216 62.243 53.8186 61.919 52.5226 61.271C51.2266 60.623 50.2186 59.723 49.4986 58.571C48.7966 57.419 48.4456 56.114 48.4456 54.656C48.4456 53.216 48.7876 51.929 49.4716 50.795C50.1736 49.643 51.1366 48.743 52.3606 48.095C53.5846 47.447 54.9616 47.123 56.4916 47.123C57.9496 47.123 59.2726 47.429 60.4606 48.041C61.6486 48.635 62.5846 49.508 63.2686 50.66C63.9706 51.794 64.3216 53.144 64.3216 54.71ZM56.5186 50.768C55.7266 50.768 55.0606 50.993 54.5206 51.443C53.9986 51.893 53.6656 52.505 53.5216 53.279H59.5156C59.3716 52.505 59.0296 51.893 58.4896 51.443C57.9676 50.993 57.3106 50.768 56.5186 50.768ZM80.7813 47.123C83.2113 47.123 85.0653 47.681 86.3433 48.797C87.6213 49.895 88.2603 51.587 88.2603 53.873V62H83.4813V60.11C82.7433 61.532 81.3033 62.243 79.1613 62.243C78.0273 62.243 77.0463 62.045 76.2183 61.649C75.3903 61.253 74.7603 60.722 74.3283 60.056C73.9143 59.372 73.7073 58.598 73.7073 57.734C73.7073 56.348 74.2383 55.277 75.3003 54.521C76.3623 53.747 78.0003 53.36 80.2143 53.36H83.1303C83.0403 51.812 82.0053 51.038 80.0253 51.038C79.3233 51.038 78.6123 51.155 77.8923 51.389C77.1723 51.605 76.5603 51.911 76.0563 52.307L74.3283 48.824C75.1383 48.284 76.1193 47.87 77.2713 47.582C78.4413 47.276 79.6113 47.123 80.7813 47.123ZM80.5923 59.003C81.1863 59.003 81.7083 58.859 82.1583 58.571C82.6083 58.283 82.9323 57.86 83.1303 57.302V56.033H80.9163C79.4223 56.033 78.6753 56.528 78.6753 57.518C78.6753 57.968 78.8463 58.328 79.1883 58.598C79.5303 58.868 79.9983 59.003 80.5923 59.003ZM100.705 47.123C102.037 47.123 103.243 47.438 104.323 48.068C105.421 48.68 106.285 49.562 106.915 50.714C107.563 51.848 107.887 53.171 107.887 54.683C107.887 56.195 107.563 57.527 106.915 58.679C106.285 59.813 105.421 60.695 104.323 61.325C103.243 61.937 102.037 62.243 100.705 62.243C98.9954 62.243 97.6364 61.73 96.6284 60.704V67.238H91.4984V47.366H96.3854V48.824C97.3394 47.69 98.7794 47.123 100.705 47.123ZM99.6254 58.166C100.525 58.166 101.263 57.86 101.839 57.248C102.415 56.618 102.703 55.763 102.703 54.683C102.703 53.603 102.415 52.757 101.839 52.145C101.263 51.515 100.525 51.2 99.6254 51.2C98.7254 51.2 97.9874 51.515 97.4114 52.145C96.8354 52.757 96.5474 53.603 96.5474 54.683C96.5474 55.763 96.8354 56.618 97.4114 57.248C97.9874 57.86 98.7254 58.166 99.6254 58.166ZM119.479 47.123C120.811 47.123 122.017 47.438 123.097 48.068C124.195 48.68 125.059 49.562 125.689 50.714C126.337 51.848 126.661 53.171 126.661 54.683C126.661 56.195 126.337 57.527 125.689 58.679C125.059 59.813 124.195 60.695 123.097 61.325C122.017 61.937 120.811 62.243 119.479 62.243C117.769 62.243 116.41 61.73 115.402 60.704V67.238H110.272V47.366H115.159V48.824C116.113 47.69 117.553 47.123 119.479 47.123ZM118.399 58.166C119.299 58.166 120.037 57.86 120.613 57.248C121.189 56.618 121.477 55.763 121.477 54.683C121.477 53.603 121.189 52.757 120.613 52.145C120.037 51.515 119.299 51.2 118.399 51.2C117.499 51.2 116.761 51.515 116.185 52.145C115.609 52.757 115.321 53.603 115.321 54.683C115.321 55.763 115.609 56.618 116.185 57.248C116.761 57.86 117.499 58.166 118.399 58.166ZM134.364 62.243C133.14 62.243 131.934 62.108 130.746 61.838C129.558 61.55 128.604 61.181 127.884 60.731L129.423 57.221C130.089 57.635 130.881 57.968 131.799 58.22C132.717 58.454 133.626 58.571 134.526 58.571C135.354 58.571 135.939 58.49 136.281 58.328C136.641 58.148 136.821 57.896 136.821 57.572C136.821 57.248 136.605 57.023 136.173 56.897C135.759 56.753 135.093 56.618 134.175 56.492C133.005 56.348 132.006 56.159 131.178 55.925C130.368 55.691 129.666 55.259 129.072 54.629C128.478 53.999 128.181 53.117 128.181 51.983C128.181 51.047 128.46 50.219 129.018 49.499C129.576 48.761 130.386 48.185 131.448 47.771C132.528 47.339 133.815 47.123 135.309 47.123C136.371 47.123 137.424 47.231 138.468 47.447C139.512 47.663 140.385 47.969 141.087 48.365L139.548 51.848C138.252 51.128 136.848 50.768 135.336 50.768C134.526 50.768 133.932 50.867 133.554 51.065C133.176 51.245 132.987 51.488 132.987 51.794C132.987 52.136 133.194 52.379 133.608 52.523C134.022 52.649 134.706 52.784 135.66 52.928C136.866 53.108 137.865 53.315 138.657 53.549C139.449 53.783 140.133 54.215 140.709 54.845C141.303 55.457 141.6 56.321 141.6 57.437C141.6 58.355 141.321 59.183 140.763 59.921C140.205 60.641 139.377 61.208 138.279 61.622C137.199 62.036 135.894 62.243 134.364 62.243Z" fill="#241B53"/>
</svg>
