<svg width="171" height="100" viewBox="0 0 171 100" fill="none" xmlns="http://www.w3.org/2000/svg">
<path d="M53.0549 38C51.4169 38 50.0909 37.519 49.0769 36.557C48.0629 35.595 47.5559 34.308 47.5559 32.696V22.985C47.5559 21.867 47.8549 20.918 48.4529 20.138C49.0769 19.358 49.8439 18.825 50.7539 18.539L55.9799 16.706V10.7H59.0999V38H53.0549ZM55.9799 35.66V19.28L52.5089 20.45C51.8329 20.658 51.3519 20.996 51.0659 21.464C50.8059 21.906 50.6759 22.621 50.6759 23.609V32.696C50.6759 33.632 50.9489 34.36 51.4949 34.88C52.0409 35.4 52.7819 35.66 53.7179 35.66H55.9799ZM67.8447 38C66.4147 38 65.2707 37.571 64.4127 36.713C63.5807 35.855 63.1647 34.698 63.1647 33.242V22.868C63.1647 21.178 63.6327 19.852 64.5687 18.89C65.5047 17.928 66.8957 17.447 68.7417 17.447C70.5877 17.447 71.9657 17.928 72.8757 18.89C73.8117 19.852 74.2797 21.178 74.2797 22.868V24.662C74.2797 25.754 73.9677 26.586 73.3437 27.158C72.7197 27.704 71.9007 28.12 70.8867 28.406L66.2847 29.693V33.515C66.2847 34.139 66.4667 34.659 66.8307 35.075C67.2207 35.465 67.7147 35.66 68.3127 35.66H72.5247V38H67.8447ZM68.6637 26.573C69.5217 26.339 70.0937 26.17 70.3797 26.066C70.6917 25.936 70.8997 25.754 71.0037 25.52C71.1077 25.286 71.1597 24.896 71.1597 24.35V22.205C71.1597 21.373 70.9387 20.762 70.4967 20.372C70.0807 19.982 69.4957 19.787 68.7417 19.787C68.0137 19.787 67.4157 19.995 66.9477 20.411C66.5057 20.827 66.2847 21.425 66.2847 22.205V27.236L68.6637 26.573ZM76.2154 35.66H79.5304C80.6484 35.66 81.4544 35.361 81.9484 34.763C82.4684 34.139 82.7284 33.333 82.7284 32.345C82.7284 31.565 82.4944 30.902 82.0264 30.356C81.5584 29.81 80.8564 29.173 79.9204 28.445C79.1144 27.795 78.4644 27.236 77.9704 26.768C77.5024 26.274 77.0864 25.676 76.7224 24.974C76.3844 24.246 76.2154 23.414 76.2154 22.478C76.2154 21.1 76.6704 19.969 77.5804 19.085C78.5164 18.175 79.7644 17.72 81.3244 17.72H84.7174V20.06H81.9094C80.0634 20.06 79.1404 20.931 79.1404 22.673C79.1404 23.349 79.3484 23.934 79.7644 24.428C80.1804 24.922 80.8304 25.507 81.7144 26.183C82.5204 26.807 83.1834 27.379 83.7034 27.899C84.2234 28.393 84.6654 29.03 85.0294 29.81C85.3934 30.564 85.5754 31.461 85.5754 32.501C85.5754 34.347 85.0814 35.725 84.0934 36.635C83.1314 37.545 81.7664 38 79.9984 38H76.2154V35.66ZM89.0778 14.405V11.285H92.1978V14.405H89.0778ZM89.0778 38V17.72H92.1978V38H89.0778ZM98.5234 41.9H102.54C103.138 41.9 103.606 41.692 103.944 41.276C104.308 40.886 104.49 40.379 104.49 39.755V38.039H101.253C99.8234 38.039 98.6144 37.571 97.6264 36.635C96.6384 35.699 96.1444 34.529 96.1444 33.125V22.634C96.1444 21.23 96.6384 20.06 97.6264 19.124C98.6404 18.188 99.8624 17.72 101.292 17.72H107.649V39.482C107.649 40.938 107.246 42.095 106.44 42.953C105.66 43.811 104.555 44.24 103.125 44.24H98.5234V41.9ZM104.529 35.699V20.06H101.916C101.188 20.06 100.564 20.307 100.044 20.801C99.5244 21.295 99.2644 21.906 99.2644 22.634V33.125C99.2644 33.853 99.5244 34.464 100.044 34.958C100.564 35.452 101.188 35.699 101.916 35.699H104.529ZM111.929 17.72H114.347L114.698 18.851L116.297 18.383C117.389 18.045 118.247 17.811 118.871 17.681C119.521 17.525 120.132 17.447 120.704 17.447C121.64 17.447 122.329 17.772 122.771 18.422C123.213 19.072 123.434 19.917 123.434 20.957V38H120.314V21.971C120.314 21.217 120.262 20.697 120.158 20.411C120.054 20.099 119.794 19.943 119.378 19.943C119.17 19.943 117.727 20.359 115.049 21.191V38H111.929V17.72Z" fill="#FF461E"/>
<rect y="50.0054" width="171" height="49.9946" fill="#FF461E"/>
<path d="M43.4712 88C41.8332 88 40.5072 87.519 39.4932 86.557C38.4792 85.595 37.9722 84.308 37.9722 82.696V72.985C37.9722 71.867 38.2712 70.918 38.8692 70.138C39.4932 69.358 40.2602 68.825 41.1702 68.539L46.3962 66.706V60.7H49.5162V88H43.4712ZM46.3962 85.66V69.28L42.9252 70.45C42.2492 70.658 41.7682 70.996 41.4822 71.464C41.2222 71.906 41.0922 72.621 41.0922 73.609V82.696C41.0922 83.632 41.3652 84.36 41.9112 84.88C42.4572 85.4 43.1982 85.66 44.1342 85.66H46.3962ZM58.2611 88C56.8311 88 55.6871 87.571 54.8291 86.713C53.9971 85.855 53.5811 84.698 53.5811 83.242V72.868C53.5811 71.178 54.0491 69.852 54.9851 68.89C55.9211 67.928 57.3121 67.447 59.1581 67.447C61.0041 67.447 62.3821 67.928 63.2921 68.89C64.2281 69.852 64.6961 71.178 64.6961 72.868V74.662C64.6961 75.754 64.3841 76.586 63.7601 77.158C63.1361 77.704 62.3171 78.12 61.3031 78.406L56.7011 79.693V83.515C56.7011 84.139 56.8831 84.659 57.2471 85.075C57.6371 85.465 58.1311 85.66 58.7291 85.66H62.9411V88H58.2611ZM59.0801 76.573C59.9381 76.339 60.5101 76.17 60.7961 76.066C61.1081 75.936 61.3161 75.754 61.4201 75.52C61.5241 75.286 61.5761 74.896 61.5761 74.35V72.205C61.5761 71.373 61.3551 70.762 60.9131 70.372C60.4971 69.982 59.9121 69.787 59.1581 69.787C58.4301 69.787 57.8321 69.995 57.3641 70.411C56.9221 70.827 56.7011 71.425 56.7011 72.205V77.236L59.0801 76.573ZM73.706 88V60.7H76.826V88H73.706ZM86.4276 88.273C84.6076 88.273 83.1906 87.818 82.1766 86.908C81.1886 85.972 80.6946 84.685 80.6946 83.047V72.673C80.6946 71.035 81.1886 69.761 82.1766 68.851C83.1906 67.915 84.6076 67.447 86.4276 67.447C88.2476 67.447 89.6516 67.915 90.6396 68.851C91.6536 69.761 92.1606 71.035 92.1606 72.673V83.047C92.1606 84.685 91.6536 85.972 90.6396 86.908C89.6516 87.818 88.2476 88.273 86.4276 88.273ZM86.4276 85.855C87.2596 85.855 87.9096 85.621 88.3776 85.153C88.8716 84.659 89.1186 83.957 89.1186 83.047V72.673C89.1186 71.763 88.8716 71.074 88.3776 70.606C87.9096 70.112 87.2596 69.865 86.4276 69.865C85.5956 69.865 84.9326 70.112 84.4386 70.606C83.9706 71.074 83.7366 71.763 83.7366 72.673V83.047C83.7366 83.957 83.9706 84.659 84.4386 85.153C84.9326 85.621 85.5956 85.855 86.4276 85.855ZM97.6995 91.9H101.717C102.315 91.9 102.783 91.692 103.121 91.276C103.485 90.886 103.667 90.379 103.667 89.755V88.039H100.43C98.9995 88.039 97.7905 87.571 96.8025 86.635C95.8145 85.699 95.3205 84.529 95.3205 83.125V72.634C95.3205 71.23 95.8145 70.06 96.8025 69.124C97.8165 68.188 99.0385 67.72 100.469 67.72H106.826V89.482C106.826 90.938 106.423 92.095 105.617 92.953C104.837 93.811 103.732 94.24 102.302 94.24H97.6995V91.9ZM103.706 85.699V70.06H101.093C100.365 70.06 99.7405 70.307 99.2205 70.801C98.7005 71.295 98.4405 71.906 98.4405 72.634V83.125C98.4405 83.853 98.7005 84.464 99.2205 84.958C99.7405 85.452 100.365 85.699 101.093 85.699H103.706ZM116.058 88.273C114.238 88.273 112.821 87.818 111.807 86.908C110.819 85.972 110.325 84.685 110.325 83.047V72.673C110.325 71.035 110.819 69.761 111.807 68.851C112.821 67.915 114.238 67.447 116.058 67.447C117.878 67.447 119.282 67.915 120.27 68.851C121.284 69.761 121.791 71.035 121.791 72.673V83.047C121.791 84.685 121.284 85.972 120.27 86.908C119.282 87.818 117.878 88.273 116.058 88.273ZM116.058 85.855C116.89 85.855 117.54 85.621 118.008 85.153C118.502 84.659 118.749 83.957 118.749 83.047V72.673C118.749 71.763 118.502 71.074 118.008 70.606C117.54 70.112 116.89 69.865 116.058 69.865C115.226 69.865 114.563 70.112 114.069 70.606C113.601 71.074 113.367 71.763 113.367 72.673V83.047C113.367 83.957 113.601 84.659 114.069 85.153C114.563 85.621 115.226 85.855 116.058 85.855ZM124.522 85.66H127.837C128.955 85.66 129.761 85.361 130.255 84.763C130.775 84.139 131.035 83.333 131.035 82.345C131.035 81.565 130.801 80.902 130.333 80.356C129.865 79.81 129.163 79.173 128.227 78.445C127.421 77.795 126.771 77.236 126.277 76.768C125.809 76.274 125.393 75.676 125.029 74.974C124.691 74.246 124.522 73.414 124.522 72.478C124.522 71.1 124.977 69.969 125.887 69.085C126.823 68.175 128.071 67.72 129.631 67.72H133.024V70.06H130.216C128.37 70.06 127.447 70.931 127.447 72.673C127.447 73.349 127.655 73.934 128.071 74.428C128.487 74.922 129.137 75.507 130.021 76.183C130.827 76.807 131.49 77.379 132.01 77.899C132.53 78.393 132.972 79.03 133.336 79.81C133.7 80.564 133.882 81.461 133.882 82.501C133.882 84.347 133.388 85.725 132.4 86.635C131.438 87.545 130.073 88 128.305 88H124.522V85.66Z" fill="#241B53"/>
</svg>
