<svg width="171" height="72" viewBox="0 0 171 72" fill="none" xmlns="http://www.w3.org/2000/svg">
<path d="M28.7592 11.572C30.6259 11.572 32.1099 12.132 33.2112 13.252C34.3312 14.372 34.8912 16.0613 34.8912 18.32V27H29.5712V19.188C29.5712 18.124 29.3659 17.34 28.9552 16.836C28.5632 16.332 28.0032 16.08 27.2752 16.08C26.4725 16.08 25.8285 16.36 25.3432 16.92C24.8579 17.48 24.6152 18.3293 24.6152 19.468V27H19.2952V19.188C19.2952 17.116 18.5299 16.08 16.9992 16.08C16.1779 16.08 15.5245 16.36 15.0392 16.92C14.5539 17.48 14.3112 18.3293 14.3112 19.468V27H8.9912V11.824H14.0592V13.42C14.6192 12.804 15.2819 12.3467 16.0472 12.048C16.8312 11.7307 17.6805 11.572 18.5952 11.572C19.6592 11.572 20.6112 11.768 21.4512 12.16C22.2912 12.552 22.9725 13.1493 23.4952 13.952C24.0925 13.1867 24.8485 12.5987 25.7632 12.188C26.6779 11.7773 27.6765 11.572 28.7592 11.572ZM44.717 11.572C47.237 11.572 49.1597 12.1507 50.485 13.308C51.8103 14.4467 52.473 16.2013 52.473 18.572V27H47.517V25.04C46.7517 26.5147 45.2583 27.252 43.037 27.252C41.861 27.252 40.8437 27.0467 39.985 26.636C39.1263 26.2253 38.473 25.6747 38.025 24.984C37.5957 24.2747 37.381 23.472 37.381 22.576C37.381 21.1387 37.9317 20.028 39.033 19.244C40.1343 18.4413 41.833 18.04 44.129 18.04H47.153C47.0597 16.4347 45.9863 15.632 43.933 15.632C43.205 15.632 42.4677 15.7533 41.721 15.996C40.9743 16.22 40.3397 16.5373 39.817 16.948L38.025 13.336C38.865 12.776 39.8823 12.3467 41.077 12.048C42.2903 11.7307 43.5037 11.572 44.717 11.572ZM44.521 23.892C45.137 23.892 45.6783 23.7427 46.145 23.444C46.6117 23.1453 46.9477 22.7067 47.153 22.128V20.812H44.857C43.3077 20.812 42.533 21.3253 42.533 22.352C42.533 22.8187 42.7103 23.192 43.065 23.472C43.4197 23.752 43.905 23.892 44.521 23.892ZM60.899 13.644C61.4404 12.9533 62.1404 12.44 62.999 12.104C63.8764 11.7493 64.875 11.572 65.995 11.572V16.36C65.5097 16.304 65.1084 16.276 64.791 16.276C63.6524 16.276 62.7564 16.584 62.103 17.2C61.4684 17.816 61.151 18.7587 61.151 20.028V27H55.831V11.824H60.899V13.644ZM75.0784 21.68L73.5104 23.276V27H68.1904V6.224H73.5104V17.116L78.9424 11.824H85.2424L78.9424 18.32L85.7744 27H79.3344L75.0784 21.68ZM102.214 19.44C102.214 19.4773 102.186 19.916 102.13 20.756H91.0981C91.3221 21.54 91.7515 22.1467 92.3861 22.576C93.0395 22.9867 93.8515 23.192 94.8221 23.192C95.5501 23.192 96.1755 23.0893 96.6981 22.884C97.2395 22.6787 97.7808 22.3427 98.3221 21.876L101.122 24.788C99.6475 26.4307 97.4915 27.252 94.6541 27.252C92.8808 27.252 91.3221 26.916 89.9781 26.244C88.6341 25.572 87.5888 24.6387 86.8421 23.444C86.1141 22.2493 85.7501 20.896 85.7501 19.384C85.7501 17.8907 86.1048 16.556 86.8141 15.38C87.5421 14.1853 88.5408 13.252 89.8101 12.58C91.0795 11.908 92.5075 11.572 94.0941 11.572C95.6061 11.572 96.9781 11.8893 98.2101 12.524C99.4421 13.14 100.413 14.0453 101.122 15.24C101.85 16.416 102.214 17.816 102.214 19.44ZM94.1221 15.352C93.3008 15.352 92.6101 15.5853 92.0501 16.052C91.5088 16.5187 91.1635 17.1533 91.0141 17.956H97.2301C97.0808 17.1533 96.7261 16.5187 96.1661 16.052C95.6248 15.5853 94.9435 15.352 94.1221 15.352ZM115.139 26.384C114.691 26.664 114.14 26.8787 113.487 27.028C112.852 27.1773 112.171 27.252 111.443 27.252C109.464 27.252 107.943 26.7667 106.879 25.796C105.815 24.8253 105.283 23.3787 105.283 21.456V16.36H103.071V12.384H105.283V8.436H110.603V12.384H114.075V16.36H110.603V21.4C110.603 21.9413 110.743 22.3707 111.023 22.688C111.322 22.9867 111.714 23.136 112.199 23.136C112.815 23.136 113.356 22.9773 113.823 22.66L115.139 26.384ZM117.19 11.824H122.51V27H117.19V11.824ZM119.85 10.144C118.88 10.144 118.096 9.87333 117.498 9.332C116.901 8.79067 116.602 8.11867 116.602 7.316C116.602 6.51333 116.901 5.84133 117.498 5.3C118.096 4.75867 118.88 4.488 119.85 4.488C120.821 4.488 121.605 4.74933 122.202 5.272C122.8 5.776 123.098 6.42933 123.098 7.232C123.098 8.072 122.8 8.772 122.202 9.332C121.605 9.87333 120.821 10.144 119.85 10.144ZM135.852 11.572C137.737 11.572 139.249 12.132 140.388 13.252C141.545 14.372 142.124 16.0613 142.124 18.32V27H136.804V19.188C136.804 17.116 135.973 16.08 134.312 16.08C133.397 16.08 132.66 16.3787 132.1 16.976C131.558 17.5733 131.288 18.4693 131.288 19.664V27H125.968V11.824H131.036V13.476C131.633 12.86 132.342 12.3933 133.164 12.076C133.985 11.74 134.881 11.572 135.852 11.572ZM162.007 11.824V24.228C162.007 27.0467 161.241 29.156 159.711 30.556C158.18 31.9747 155.977 32.684 153.103 32.684C151.609 32.684 150.209 32.516 148.903 32.18C147.596 31.844 146.485 31.3493 145.571 30.696L147.503 26.972C148.119 27.476 148.893 27.868 149.827 28.148C150.779 28.4467 151.712 28.596 152.627 28.596C154.027 28.596 155.053 28.288 155.707 27.672C156.36 27.056 156.687 26.1413 156.687 24.928V24.424C155.66 25.6187 154.157 26.216 152.179 26.216C150.835 26.216 149.593 25.9173 148.455 25.32C147.316 24.704 146.411 23.8453 145.739 22.744C145.067 21.624 144.731 20.336 144.731 18.88C144.731 17.4427 145.067 16.1733 145.739 15.072C146.411 13.952 147.316 13.0933 148.455 12.496C149.593 11.88 150.835 11.572 152.179 11.572C154.344 11.572 155.931 12.272 156.939 13.672V11.824H162.007ZM153.439 21.988C154.391 21.988 155.175 21.6987 155.791 21.12C156.425 20.5413 156.743 19.7947 156.743 18.88C156.743 17.9653 156.435 17.228 155.819 16.668C155.203 16.0893 154.409 15.8 153.439 15.8C152.468 15.8 151.665 16.0893 151.031 16.668C150.415 17.228 150.107 17.9653 150.107 18.88C150.107 19.7947 150.424 20.5413 151.059 21.12C151.693 21.6987 152.487 21.988 153.439 21.988Z" fill="#FF461E"/>
<rect y="36" width="171" height="36" fill="#FF461E"/>
<path d="M56.5572 41.966V62H51.6702V60.542C50.7162 61.676 49.2852 62.243 47.3772 62.243C46.0452 62.243 44.8302 61.937 43.7322 61.325C42.6342 60.695 41.7612 59.804 41.1132 58.652C40.4832 57.5 40.1682 56.168 40.1682 54.656C40.1682 53.144 40.4832 51.821 41.1132 50.687C41.7612 49.535 42.6342 48.653 43.7322 48.041C44.8302 47.429 46.0452 47.123 47.3772 47.123C49.1232 47.123 50.4732 47.627 51.4272 48.635V41.966H56.5572ZM48.4572 58.166C49.3392 58.166 50.0682 57.86 50.6442 57.248C51.2202 56.618 51.5082 55.754 51.5082 54.656C51.5082 53.576 51.2202 52.73 50.6442 52.118C50.0862 51.506 49.3572 51.2 48.4572 51.2C47.5572 51.2 46.8192 51.506 46.2432 52.118C45.6672 52.73 45.3792 53.576 45.3792 54.656C45.3792 55.754 45.6672 56.618 46.2432 57.248C46.8192 57.86 47.5572 58.166 48.4572 58.166ZM59.8578 47.366H64.9878V62H59.8578V47.366ZM62.4228 45.746C61.4868 45.746 60.7308 45.485 60.1548 44.963C59.5788 44.441 59.2908 43.793 59.2908 43.019C59.2908 42.245 59.5788 41.597 60.1548 41.075C60.7308 40.553 61.4868 40.292 62.4228 40.292C63.3588 40.292 64.1148 40.544 64.6908 41.048C65.2668 41.534 65.5548 42.164 65.5548 42.938C65.5548 43.748 65.2668 44.423 64.6908 44.963C64.1148 45.485 63.3588 45.746 62.4228 45.746ZM84.0626 47.366V59.327C84.0626 62.045 83.3246 64.079 81.8486 65.429C80.3726 66.797 78.2486 67.481 75.4766 67.481C74.0366 67.481 72.6866 67.319 71.4266 66.995C70.1666 66.671 69.0956 66.194 68.2136 65.564L70.0766 61.973C70.6706 62.459 71.4176 62.837 72.3176 63.107C73.2356 63.395 74.1356 63.539 75.0176 63.539C76.3676 63.539 77.3576 63.242 77.9876 62.648C78.6176 62.054 78.9326 61.172 78.9326 60.002V59.516C77.9426 60.668 76.4936 61.244 74.5856 61.244C73.2896 61.244 72.0926 60.956 70.9946 60.38C69.8966 59.786 69.0236 58.958 68.3756 57.896C67.7276 56.816 67.4036 55.574 67.4036 54.17C67.4036 52.784 67.7276 51.56 68.3756 50.498C69.0236 49.418 69.8966 48.59 70.9946 48.014C72.0926 47.42 73.2896 47.123 74.5856 47.123C76.6736 47.123 78.2036 47.798 79.1756 49.148V47.366H84.0626ZM75.8006 57.167C76.7186 57.167 77.4746 56.888 78.0686 56.33C78.6806 55.772 78.9866 55.052 78.9866 54.17C78.9866 53.288 78.6896 52.577 78.0956 52.037C77.5016 51.479 76.7366 51.2 75.8006 51.2C74.8646 51.2 74.0906 51.479 73.4786 52.037C72.8846 52.577 72.5876 53.288 72.5876 54.17C72.5876 55.052 72.8936 55.772 73.5056 56.33C74.1176 56.888 74.8826 57.167 75.8006 57.167ZM87.3587 47.366H92.4887V62H87.3587V47.366ZM89.9237 45.746C88.9877 45.746 88.2317 45.485 87.6557 44.963C87.0797 44.441 86.7917 43.793 86.7917 43.019C86.7917 42.245 87.0797 41.597 87.6557 41.075C88.2317 40.553 88.9877 40.292 89.9237 40.292C90.8597 40.292 91.6157 40.544 92.1917 41.048C92.7677 41.534 93.0557 42.164 93.0557 42.938C93.0557 43.748 92.7677 44.423 92.1917 44.963C91.6157 45.485 90.8597 45.746 89.9237 45.746ZM105.921 61.406C105.489 61.676 104.958 61.883 104.328 62.027C103.716 62.171 103.059 62.243 102.357 62.243C100.449 62.243 98.9816 61.775 97.9556 60.839C96.9296 59.903 96.4166 58.508 96.4166 56.654V51.74H94.2836V47.906H96.4166V44.099H101.547V47.906H104.895V51.74H101.547V56.6C101.547 57.122 101.682 57.536 101.952 57.842C102.24 58.13 102.618 58.274 103.086 58.274C103.68 58.274 104.202 58.121 104.652 57.815L105.921 61.406ZM114.136 47.123C116.566 47.123 118.42 47.681 119.698 48.797C120.976 49.895 121.615 51.587 121.615 53.873V62H116.836V60.11C116.098 61.532 114.658 62.243 112.516 62.243C111.382 62.243 110.401 62.045 109.573 61.649C108.745 61.253 108.115 60.722 107.683 60.056C107.269 59.372 107.062 58.598 107.062 57.734C107.062 56.348 107.593 55.277 108.655 54.521C109.717 53.747 111.355 53.36 113.569 53.36H116.485C116.395 51.812 115.36 51.038 113.38 51.038C112.678 51.038 111.967 51.155 111.247 51.389C110.527 51.605 109.915 51.911 109.411 52.307L107.683 48.824C108.493 48.284 109.474 47.87 110.626 47.582C111.796 47.276 112.966 47.123 114.136 47.123ZM113.947 59.003C114.541 59.003 115.063 58.859 115.513 58.571C115.963 58.283 116.287 57.86 116.485 57.302V56.033H114.271C112.777 56.033 112.03 56.528 112.03 57.518C112.03 57.968 112.201 58.328 112.543 58.598C112.885 58.868 113.353 59.003 113.947 59.003ZM124.853 41.966H129.983V62H124.853V41.966Z" fill="#241B53"/>
</svg>
