<svg width="100" height="100" viewBox="0 0 100 100" fill="none" xmlns="http://www.w3.org/2000/svg">
<g id="whatsapp 1">
<g id="Graphics-_x2F_-App-Icons-_x2F_-WhatsApp">
<g id="Icon_6_">
<path id="Background_7_" d="M28.4 5C27.9 5 26.9 5 26 5C24 5.1 21.4 5.2 20.3 5.5C18.5 5.9 16.8 6.4 15.4 7.1C13.8 7.9 12.3 9 11 10.3C9.69995 11.6 8.69995 13 7.79995 14.7C7.09995 16.1 6.49995 17.8 6.19995 19.5C5.99995 20.7 5.79995 23.3 5.69995 25.3C5.69995 26.1 5.69995 27.2 5.69995 27.7V71.6C5.69995 72.1 5.69995 73.1 5.69995 74C5.79995 76 5.89995 78.6 6.19995 79.7C6.59995 81.5 7.09995 83.2 7.79995 84.6C8.59995 86.2 9.69995 87.7 11 89C12.3 90.3 13.7 91.3 15.4 92.2C16.8 92.9 18.5 93.5 20.2 93.8C21.4 94 24 94.2 26 94.3C26.8 94.3 27.9 94.3 28.4 94.3H72.3C72.8 94.3 73.8 94.3 74.7 94.3C76.7 94.2 79.3 94.1 80.4 93.8C82.2 93.4 83.9 92.9 85.3 92.2C86.9 91.4 88.4 90.3 89.7 89C91 87.7 92 86.3 92.9 84.6C93.6 83.2 94.2 81.5 94.5 79.8C94.7 78.6 94.9 76 95 74C95 73.2 95 72.1 95 71.6V27.7C95 27.2 95 26.2 95 25.3C94.9 23.3 94.8 20.7 94.5 19.6C94.1 17.8 93.6 16.1 92.9 14.7C92.1 13.1 91 11.6 89.7 10.3C88.4 9 87 8 85.3 7.1C83.9 6.4 82.2 5.8 80.5 5.5C79.3 5.3 76.7 5.1 74.7 5C73.9 5 72.8 5 72.3 5H28.4Z" fill="url(#tuntz-home)"/>
<path id="Vector 1" d="M68 17H32V32.4046H47.2165L32 61.1474L51.1134 60.9595L40.7216 82L68 49.5H51.1134L68 17Z" fill="#171236"/>
</g>
</g>
</g>
<defs>
<linearGradient id="tuntz-home" x1="50.35" y1="5" x2="50.35" y2="94.3" gradientUnits="userSpaceOnUse">
<stop stop-color="#FAE764"/>
<stop offset="0.6875" stop-color="#D6C021"/>
<stop offset="0.958333" stop-color="#C5AD00"/>
</linearGradient>
</defs>
</svg>
