<svg width="233" height="72" viewBox="0 0 233 72" fill="none" xmlns="http://www.w3.org/2000/svg">
<path d="M79.3263 12.384H82.9383V16.36H79.4663V27H74.1463V16.36H71.9343V12.384H74.1463V11.992C74.1463 10.144 74.6969 8.67867 75.7983 7.596C76.9183 6.51333 78.4769 5.972 80.4743 5.972C81.1463 5.972 81.7996 6.03733 82.4343 6.168C83.0689 6.29867 83.5916 6.49467 84.0023 6.756L82.6863 10.508C82.1636 10.2093 81.6316 10.06 81.0903 10.06C80.5303 10.06 80.0916 10.228 79.7743 10.564C79.4756 10.9 79.3263 11.3947 79.3263 12.048V12.384ZM87.1383 11.824H92.4583V27H87.1383V11.824ZM89.7983 10.144C88.8276 10.144 88.0436 9.87333 87.4463 9.332C86.8489 8.79067 86.5503 8.11867 86.5503 7.316C86.5503 6.51333 86.8489 5.84133 87.4463 5.3C88.0436 4.75867 88.8276 4.488 89.7983 4.488C90.7689 4.488 91.5529 4.74933 92.1503 5.272C92.7476 5.776 93.0463 6.42933 93.0463 7.232C93.0463 8.072 92.7476 8.772 92.1503 9.332C91.5529 9.87333 90.7689 10.144 89.7983 10.144ZM95.8975 6.224H101.217V27H95.8975V6.224ZM116.651 26.384C116.203 26.664 115.652 26.8787 114.999 27.028C114.364 27.1773 113.683 27.252 112.955 27.252C110.976 27.252 109.455 26.7667 108.391 25.796C107.327 24.8253 106.795 23.3787 106.795 21.456V16.36H104.583V12.384H106.795V8.436H112.115V12.384H115.587V16.36H112.115V21.4C112.115 21.9413 112.255 22.3707 112.535 22.688C112.833 22.9867 113.225 23.136 113.711 23.136C114.327 23.136 114.868 22.9773 115.335 22.66L116.651 26.384ZM123.77 13.644C124.311 12.9533 125.011 12.44 125.87 12.104C126.747 11.7493 127.746 11.572 128.866 11.572V16.36C128.381 16.304 127.979 16.276 127.662 16.276C126.523 16.276 125.627 16.584 124.974 17.2C124.339 17.816 124.022 18.7587 124.022 20.028V27H118.702V11.824H123.77V13.644ZM138.541 27.252C136.917 27.252 135.451 26.916 134.145 26.244C132.838 25.572 131.811 24.6387 131.065 23.444C130.337 22.2493 129.973 20.896 129.973 19.384C129.973 17.8907 130.337 16.5467 131.065 15.352C131.811 14.1573 132.829 13.2333 134.117 12.58C135.423 11.908 136.898 11.572 138.541 11.572C140.183 11.572 141.658 11.908 142.965 12.58C144.271 13.2333 145.289 14.1573 146.017 15.352C146.745 16.528 147.109 17.872 147.109 19.384C147.109 20.896 146.745 22.2493 146.017 23.444C145.289 24.6387 144.271 25.572 142.965 26.244C141.658 26.916 140.183 27.252 138.541 27.252ZM138.541 23.024C139.474 23.024 140.239 22.7067 140.837 22.072C141.434 21.4187 141.733 20.5227 141.733 19.384C141.733 18.264 141.434 17.3867 140.837 16.752C140.239 16.1173 139.474 15.8 138.541 15.8C137.607 15.8 136.842 16.1173 136.245 16.752C135.647 17.3867 135.349 18.264 135.349 19.384C135.349 20.5227 135.647 21.4187 136.245 22.072C136.842 22.7067 137.607 23.024 138.541 23.024ZM155.089 27.252C153.82 27.252 152.569 27.112 151.337 26.832C150.105 26.5333 149.116 26.1507 148.369 25.684L149.965 22.044C150.656 22.4733 151.477 22.8187 152.429 23.08C153.381 23.3227 154.324 23.444 155.257 23.444C156.116 23.444 156.723 23.36 157.077 23.192C157.451 23.0053 157.637 22.744 157.637 22.408C157.637 22.072 157.413 21.8387 156.965 21.708C156.536 21.5587 155.845 21.4187 154.893 21.288C153.68 21.1387 152.644 20.9427 151.785 20.7C150.945 20.4573 150.217 20.0093 149.601 19.356C148.985 18.7027 148.677 17.788 148.677 16.612C148.677 15.6413 148.967 14.7827 149.545 14.036C150.124 13.2707 150.964 12.6733 152.065 12.244C153.185 11.796 154.52 11.572 156.069 11.572C157.171 11.572 158.263 11.684 159.345 11.908C160.428 12.132 161.333 12.4493 162.061 12.86L160.465 16.472C159.121 15.7253 157.665 15.352 156.097 15.352C155.257 15.352 154.641 15.4547 154.249 15.66C153.857 15.8467 153.661 16.0987 153.661 16.416C153.661 16.7707 153.876 17.0227 154.305 17.172C154.735 17.3027 155.444 17.4427 156.433 17.592C157.684 17.7787 158.72 17.9933 159.541 18.236C160.363 18.4787 161.072 18.9267 161.669 19.58C162.285 20.2147 162.593 21.1107 162.593 22.268C162.593 23.22 162.304 24.0787 161.725 24.844C161.147 25.5907 160.288 26.1787 159.149 26.608C158.029 27.0373 156.676 27.252 155.089 27.252Z" fill="#FF461E"/>
<rect y="36" width="233" height="36" fill="#FF461E"/>
<path d="M18.2616 47.123C19.5936 47.123 20.7996 47.438 21.8796 48.068C22.9776 48.68 23.8416 49.562 24.4716 50.714C25.1196 51.848 25.4436 53.171 25.4436 54.683C25.4436 56.195 25.1196 57.527 24.4716 58.679C23.8416 59.813 22.9776 60.695 21.8796 61.325C20.7996 61.937 19.5936 62.243 18.2616 62.243C16.5516 62.243 15.1926 61.73 14.1846 60.704V67.238H9.05463V47.366H13.9416V48.824C14.8956 47.69 16.3356 47.123 18.2616 47.123ZM17.1816 58.166C18.0816 58.166 18.8196 57.86 19.3956 57.248C19.9716 56.618 20.2596 55.763 20.2596 54.683C20.2596 53.603 19.9716 52.757 19.3956 52.145C18.8196 51.515 18.0816 51.2 17.1816 51.2C16.2816 51.2 15.5436 51.515 14.9676 52.145C14.3916 52.757 14.1036 53.603 14.1036 54.683C14.1036 55.763 14.3916 56.618 14.9676 57.248C15.5436 57.86 16.2816 58.166 17.1816 58.166ZM33.7487 47.123C36.1787 47.123 38.0327 47.681 39.3107 48.797C40.5887 49.895 41.2277 51.587 41.2277 53.873V62H36.4487V60.11C35.7107 61.532 34.2707 62.243 32.1287 62.243C30.9947 62.243 30.0137 62.045 29.1857 61.649C28.3577 61.253 27.7277 60.722 27.2957 60.056C26.8817 59.372 26.6747 58.598 26.6747 57.734C26.6747 56.348 27.2057 55.277 28.2677 54.521C29.3297 53.747 30.9677 53.36 33.1817 53.36H36.0977C36.0077 51.812 34.9727 51.038 32.9927 51.038C32.2907 51.038 31.5797 51.155 30.8597 51.389C30.1397 51.605 29.5277 51.911 29.0237 52.307L27.2957 48.824C28.1057 48.284 29.0867 47.87 30.2387 47.582C31.4087 47.276 32.5787 47.123 33.7487 47.123ZM33.5597 59.003C34.1537 59.003 34.6757 58.859 35.1257 58.571C35.5757 58.283 35.8997 57.86 36.0977 57.302V56.033H33.8837C32.3897 56.033 31.6427 56.528 31.6427 57.518C31.6427 57.968 31.8137 58.328 32.1557 58.598C32.4977 58.868 32.9657 59.003 33.5597 59.003ZM49.3528 49.121C49.8748 48.455 50.5498 47.96 51.3778 47.636C52.2238 47.294 53.1868 47.123 54.2668 47.123V51.74C53.7988 51.686 53.4118 51.659 53.1058 51.659C52.0078 51.659 51.1438 51.956 50.5138 52.55C49.9018 53.144 49.5958 54.053 49.5958 55.277V62H44.4658V47.366H49.3528V49.121ZM62.5153 47.123C64.9453 47.123 66.7993 47.681 68.0773 48.797C69.3553 49.895 69.9943 51.587 69.9943 53.873V62H65.2153V60.11C64.4773 61.532 63.0373 62.243 60.8953 62.243C59.7613 62.243 58.7803 62.045 57.9523 61.649C57.1243 61.253 56.4943 60.722 56.0623 60.056C55.6483 59.372 55.4413 58.598 55.4413 57.734C55.4413 56.348 55.9723 55.277 57.0343 54.521C58.0963 53.747 59.7343 53.36 61.9483 53.36H64.8643C64.7743 51.812 63.7393 51.038 61.7593 51.038C61.0573 51.038 60.3463 51.155 59.6263 51.389C58.9063 51.605 58.2943 51.911 57.7903 52.307L56.0623 48.824C56.8723 48.284 57.8533 47.87 59.0053 47.582C60.1753 47.276 61.3453 47.123 62.5153 47.123ZM62.3263 59.003C62.9203 59.003 63.4423 58.859 63.8923 58.571C64.3423 58.283 64.6663 57.86 64.8643 57.302V56.033H62.6503C61.1563 56.033 60.4093 56.528 60.4093 57.518C60.4093 57.968 60.5803 58.328 60.9223 58.598C61.2643 58.868 61.7323 59.003 62.3263 59.003ZM81.0898 47.366H86.2198V62H81.0898V47.366ZM83.6548 45.746C82.7188 45.746 81.9628 45.485 81.3868 44.963C80.8108 44.441 80.5228 43.793 80.5228 43.019C80.5228 42.245 80.8108 41.597 81.3868 41.075C81.9628 40.553 82.7188 40.292 83.6548 40.292C84.5908 40.292 85.3468 40.544 85.9228 41.048C86.4988 41.534 86.7868 42.164 86.7868 42.938C86.7868 43.748 86.4988 44.423 85.9228 44.963C85.3468 45.485 84.5908 45.746 83.6548 45.746ZM99.0847 47.123C100.903 47.123 102.361 47.663 103.459 48.743C104.575 49.823 105.133 51.452 105.133 53.63V62H100.003V54.467C100.003 52.469 99.2017 51.47 97.5997 51.47C96.7177 51.47 96.0067 51.758 95.4667 52.334C94.9447 52.91 94.6837 53.774 94.6837 54.926V62H89.5537V47.366H94.4407V48.959C95.0167 48.365 95.7007 47.915 96.4927 47.609C97.2847 47.285 98.1487 47.123 99.0847 47.123ZM113.672 62.243C112.448 62.243 111.242 62.108 110.054 61.838C108.866 61.55 107.912 61.181 107.192 60.731L108.731 57.221C109.397 57.635 110.189 57.968 111.107 58.22C112.025 58.454 112.934 58.571 113.834 58.571C114.662 58.571 115.247 58.49 115.589 58.328C115.949 58.148 116.129 57.896 116.129 57.572C116.129 57.248 115.913 57.023 115.481 56.897C115.067 56.753 114.401 56.618 113.483 56.492C112.313 56.348 111.314 56.159 110.486 55.925C109.676 55.691 108.974 55.259 108.38 54.629C107.786 53.999 107.489 53.117 107.489 51.983C107.489 51.047 107.768 50.219 108.326 49.499C108.884 48.761 109.694 48.185 110.756 47.771C111.836 47.339 113.123 47.123 114.617 47.123C115.679 47.123 116.732 47.231 117.776 47.447C118.82 47.663 119.693 47.969 120.395 48.365L118.856 51.848C117.56 51.128 116.156 50.768 114.644 50.768C113.834 50.768 113.24 50.867 112.862 51.065C112.484 51.245 112.295 51.488 112.295 51.794C112.295 52.136 112.502 52.379 112.916 52.523C113.33 52.649 114.014 52.784 114.968 52.928C116.174 53.108 117.173 53.315 117.965 53.549C118.757 53.783 119.441 54.215 120.017 54.845C120.611 55.457 120.908 56.321 120.908 57.437C120.908 58.355 120.629 59.183 120.071 59.921C119.513 60.641 118.685 61.208 117.587 61.622C116.507 62.036 115.202 62.243 113.672 62.243ZM133.217 61.406C132.785 61.676 132.254 61.883 131.624 62.027C131.012 62.171 130.355 62.243 129.653 62.243C127.745 62.243 126.278 61.775 125.252 60.839C124.226 59.903 123.713 58.508 123.713 56.654V51.74H121.58V47.906H123.713V44.099H128.843V47.906H132.191V51.74H128.843V56.6C128.843 57.122 128.978 57.536 129.248 57.842C129.536 58.13 129.914 58.274 130.382 58.274C130.976 58.274 131.498 58.121 131.948 57.815L133.217 61.406ZM141.432 47.123C143.862 47.123 145.716 47.681 146.994 48.797C148.272 49.895 148.911 51.587 148.911 53.873V62H144.132V60.11C143.394 61.532 141.954 62.243 139.812 62.243C138.678 62.243 137.697 62.045 136.869 61.649C136.041 61.253 135.411 60.722 134.979 60.056C134.565 59.372 134.358 58.598 134.358 57.734C134.358 56.348 134.889 55.277 135.951 54.521C137.013 53.747 138.651 53.36 140.865 53.36H143.781C143.691 51.812 142.656 51.038 140.676 51.038C139.974 51.038 139.263 51.155 138.543 51.389C137.823 51.605 137.211 51.911 136.707 52.307L134.979 48.824C135.789 48.284 136.77 47.87 137.922 47.582C139.092 47.276 140.262 47.123 141.432 47.123ZM141.243 59.003C141.837 59.003 142.359 58.859 142.809 58.571C143.259 58.283 143.583 57.86 143.781 57.302V56.033H141.567C140.073 56.033 139.326 56.528 139.326 57.518C139.326 57.968 139.497 58.328 139.839 58.598C140.181 58.868 140.649 59.003 141.243 59.003ZM168.101 47.366V59.327C168.101 62.045 167.363 64.079 165.887 65.429C164.411 66.797 162.287 67.481 159.515 67.481C158.075 67.481 156.725 67.319 155.465 66.995C154.205 66.671 153.134 66.194 152.252 65.564L154.115 61.973C154.709 62.459 155.456 62.837 156.356 63.107C157.274 63.395 158.174 63.539 159.056 63.539C160.406 63.539 161.396 63.242 162.026 62.648C162.656 62.054 162.971 61.172 162.971 60.002V59.516C161.981 60.668 160.532 61.244 158.624 61.244C157.328 61.244 156.131 60.956 155.033 60.38C153.935 59.786 153.062 58.958 152.414 57.896C151.766 56.816 151.442 55.574 151.442 54.17C151.442 52.784 151.766 51.56 152.414 50.498C153.062 49.418 153.935 48.59 155.033 48.014C156.131 47.42 157.328 47.123 158.624 47.123C160.712 47.123 162.242 47.798 163.214 49.148V47.366H168.101ZM159.839 57.167C160.757 57.167 161.513 56.888 162.107 56.33C162.719 55.772 163.025 55.052 163.025 54.17C163.025 53.288 162.728 52.577 162.134 52.037C161.54 51.479 160.775 51.2 159.839 51.2C158.903 51.2 158.129 51.479 157.517 52.037C156.923 52.577 156.626 53.288 156.626 54.17C156.626 55.052 156.932 55.772 157.544 56.33C158.156 56.888 158.921 57.167 159.839 57.167ZM176.284 49.121C176.806 48.455 177.481 47.96 178.309 47.636C179.155 47.294 180.118 47.123 181.198 47.123V51.74C180.73 51.686 180.343 51.659 180.037 51.659C178.939 51.659 178.075 51.956 177.445 52.55C176.833 53.144 176.527 54.053 176.527 55.277V62H171.397V47.366H176.284V49.121ZM189.447 47.123C191.877 47.123 193.731 47.681 195.009 48.797C196.287 49.895 196.926 51.587 196.926 53.873V62H192.147V60.11C191.409 61.532 189.969 62.243 187.827 62.243C186.693 62.243 185.712 62.045 184.884 61.649C184.056 61.253 183.426 60.722 182.994 60.056C182.58 59.372 182.373 58.598 182.373 57.734C182.373 56.348 182.904 55.277 183.966 54.521C185.028 53.747 186.666 53.36 188.88 53.36H191.796C191.706 51.812 190.671 51.038 188.691 51.038C187.989 51.038 187.278 51.155 186.558 51.389C185.838 51.605 185.226 51.911 184.722 52.307L182.994 48.824C183.804 48.284 184.785 47.87 185.937 47.582C187.107 47.276 188.277 47.123 189.447 47.123ZM189.258 59.003C189.852 59.003 190.374 58.859 190.824 58.571C191.274 58.283 191.598 57.86 191.796 57.302V56.033H189.582C188.088 56.033 187.341 56.528 187.341 57.518C187.341 57.968 187.512 58.328 187.854 58.598C188.196 58.868 188.664 59.003 189.258 59.003ZM219.226 47.123C221.026 47.123 222.457 47.663 223.519 48.743C224.599 49.823 225.139 51.452 225.139 53.63V62H220.009V54.467C220.009 53.441 219.811 52.685 219.415 52.199C219.037 51.713 218.497 51.47 217.795 51.47C217.021 51.47 216.4 51.74 215.932 52.28C215.464 52.82 215.23 53.639 215.23 54.737V62H210.1V54.467C210.1 52.469 209.362 51.47 207.886 51.47C207.094 51.47 206.464 51.74 205.996 52.28C205.528 52.82 205.294 53.639 205.294 54.737V62H200.164V47.366H205.051V48.905C205.591 48.311 206.23 47.87 206.968 47.582C207.724 47.276 208.543 47.123 209.425 47.123C210.451 47.123 211.369 47.312 212.179 47.69C212.989 48.068 213.646 48.644 214.15 49.418C214.726 48.68 215.455 48.113 216.337 47.717C217.219 47.321 218.182 47.123 219.226 47.123Z" fill="#241B53"/>
</svg>
