<svg width="252" height="100" viewBox="0 0 252 100" fill="none" xmlns="http://www.w3.org/2000/svg">
<path d="M93.0762 20.294H90.7362V17.72H93.0762V15.458C93.0762 14.002 93.4922 12.845 94.3242 11.987C95.1562 11.129 96.2872 10.7 97.7172 10.7H99.4332V13.04H98.2632C97.6652 13.04 97.1712 13.248 96.7812 13.664C96.3912 14.08 96.1962 14.587 96.1962 15.185V17.72H99.3552V20.294H96.1962V38H93.0762V20.294ZM101.889 14.405V11.285H105.009V14.405H101.889ZM101.889 38V17.72H105.009V38H101.889ZM109.736 38V10.7H112.856V38H109.736ZM123.16 38C121.73 38 120.599 37.571 119.767 36.713C118.935 35.855 118.519 34.698 118.519 33.242V20.06H116.179V17.72H118.519V11.831L121.639 10.661V17.72H124.759V20.06H121.639V33.515C121.639 34.139 121.808 34.659 122.146 35.075C122.51 35.465 122.991 35.66 123.589 35.66H124.759V38H123.16ZM127.864 17.72H130.282L130.633 19.163L131.608 18.695C132.44 18.279 133.129 17.967 133.675 17.759C134.247 17.551 134.819 17.447 135.391 17.447V19.748C135.053 19.748 134.598 19.852 134.026 20.06C133.454 20.242 132.44 20.684 130.984 21.386V38H127.864V17.72ZM143.252 38.273C141.432 38.273 140.015 37.818 139.001 36.908C138.013 35.972 137.519 34.685 137.519 33.047V22.673C137.519 21.035 138.013 19.761 139.001 18.851C140.015 17.915 141.432 17.447 143.252 17.447C145.072 17.447 146.476 17.915 147.464 18.851C148.478 19.761 148.985 21.035 148.985 22.673V33.047C148.985 34.685 148.478 35.972 147.464 36.908C146.476 37.818 145.072 38.273 143.252 38.273ZM143.252 35.855C144.084 35.855 144.734 35.621 145.202 35.153C145.696 34.659 145.943 33.957 145.943 33.047V22.673C145.943 21.763 145.696 21.074 145.202 20.606C144.734 20.112 144.084 19.865 143.252 19.865C142.42 19.865 141.757 20.112 141.263 20.606C140.795 21.074 140.561 21.763 140.561 22.673V33.047C140.561 33.957 140.795 34.659 141.263 35.153C141.757 35.621 142.42 35.855 143.252 35.855ZM151.716 35.66H155.031C156.149 35.66 156.955 35.361 157.449 34.763C157.969 34.139 158.229 33.333 158.229 32.345C158.229 31.565 157.995 30.902 157.527 30.356C157.059 29.81 156.357 29.173 155.421 28.445C154.615 27.795 153.965 27.236 153.471 26.768C153.003 26.274 152.587 25.676 152.223 24.974C151.885 24.246 151.716 23.414 151.716 22.478C151.716 21.1 152.171 19.969 153.081 19.085C154.017 18.175 155.265 17.72 156.825 17.72H160.218V20.06H157.41C155.564 20.06 154.641 20.931 154.641 22.673C154.641 23.349 154.849 23.934 155.265 24.428C155.681 24.922 156.331 25.507 157.215 26.183C158.021 26.807 158.684 27.379 159.204 27.899C159.724 28.393 160.166 29.03 160.53 29.81C160.894 30.564 161.076 31.461 161.076 32.501C161.076 34.347 160.582 35.725 159.594 36.635C158.632 37.545 157.267 38 155.499 38H151.716V35.66Z" fill="#FF461E"/>
<rect y="50.0054" width="252" height="49.9946" fill="#FF461E"/>
<path d="M36.4593 67.72H42.7773C44.2073 67.72 45.4163 68.188 46.4043 69.124C47.4183 70.06 47.9253 71.23 47.9253 72.634V83.125C47.9253 84.529 47.4313 85.699 46.4433 86.635C45.4553 87.545 44.2463 88 42.8163 88H39.5793V94.24H36.4593V67.72ZM42.1533 85.699C42.8813 85.699 43.5053 85.452 44.0253 84.958C44.5453 84.464 44.8053 83.853 44.8053 83.125V72.634C44.8053 71.906 44.5453 71.295 44.0253 70.801C43.5053 70.307 42.8813 70.06 42.1533 70.06H39.5793V85.699H42.1533ZM55.7515 88C54.8155 88 53.9445 87.766 53.1385 87.298C52.3585 86.83 51.7345 86.193 51.2665 85.387C50.8245 84.581 50.6035 83.671 50.6035 82.657V80.629C50.6035 79.407 50.9025 78.38 51.5005 77.548C52.1245 76.716 52.8915 76.131 53.8015 75.793L58.6375 73.999V72.166C58.6375 71.542 58.4425 71.035 58.0525 70.645C57.6885 70.229 57.2075 70.021 56.6095 70.021H52.2025V67.72H56.8825C58.3125 67.72 59.4435 68.149 60.2755 69.007C61.1335 69.839 61.5625 70.983 61.5625 72.439V88H55.7515ZM58.6375 85.621V76.456L55.2055 77.743C54.5295 78.003 54.0485 78.354 53.7625 78.796C53.5025 79.238 53.3725 79.94 53.3725 80.902V83.086C53.3725 83.788 53.6325 84.386 54.1525 84.88C54.6725 85.374 55.2965 85.621 56.0245 85.621H58.6375ZM65.8616 67.72H68.2796L68.6306 69.163L69.6056 68.695C70.4376 68.279 71.1266 67.967 71.6726 67.759C72.2446 67.551 72.8166 67.447 73.3886 67.447V69.748C73.0506 69.748 72.5956 69.852 72.0236 70.06C71.4516 70.242 70.4376 70.684 68.9816 71.386V88H65.8616V67.72ZM80.4312 88C79.4952 88 78.6242 87.766 77.8182 87.298C77.0382 86.83 76.4142 86.193 75.9462 85.387C75.5042 84.581 75.2832 83.671 75.2832 82.657V80.629C75.2832 79.407 75.5822 78.38 76.1802 77.548C76.8042 76.716 77.5712 76.131 78.4812 75.793L83.3172 73.999V72.166C83.3172 71.542 83.1222 71.035 82.7322 70.645C82.3682 70.229 81.8872 70.021 81.2892 70.021H76.8822V67.72H81.5622C82.9922 67.72 84.1232 68.149 84.9552 69.007C85.8132 69.839 86.2422 70.983 86.2422 72.439V88H80.4312ZM83.3172 85.621V76.456L79.8852 77.743C79.2092 78.003 78.7282 78.354 78.4422 78.796C78.1822 79.238 78.0522 79.94 78.0522 80.902V83.086C78.0522 83.788 78.3122 84.386 78.8322 84.88C79.3522 85.374 79.9762 85.621 80.7042 85.621H83.3172ZM96.4065 64.405V61.285H99.5265V64.405H96.4065ZM96.4065 88V67.72H99.5265V88H96.4065ZM104.214 67.72H106.632L106.983 68.851L108.582 68.383C109.674 68.045 110.532 67.811 111.156 67.681C111.806 67.525 112.417 67.447 112.989 67.447C113.925 67.447 114.614 67.772 115.056 68.422C115.498 69.072 115.719 69.917 115.719 70.957V88H112.599V71.971C112.599 71.217 112.547 70.697 112.443 70.411C112.339 70.099 112.079 69.943 111.663 69.943C111.455 69.943 110.012 70.359 107.334 71.191V88H104.214V67.72ZM118.888 85.66H122.203C123.321 85.66 124.127 85.361 124.621 84.763C125.141 84.139 125.401 83.333 125.401 82.345C125.401 81.565 125.167 80.902 124.699 80.356C124.231 79.81 123.529 79.173 122.593 78.445C121.787 77.795 121.137 77.236 120.643 76.768C120.175 76.274 119.759 75.676 119.395 74.974C119.057 74.246 118.888 73.414 118.888 72.478C118.888 71.1 119.343 69.969 120.253 69.085C121.189 68.175 122.437 67.72 123.997 67.72H127.39V70.06H124.582C122.736 70.06 121.813 70.931 121.813 72.673C121.813 73.349 122.021 73.934 122.437 74.428C122.853 74.922 123.503 75.507 124.387 76.183C125.193 76.807 125.856 77.379 126.376 77.899C126.896 78.393 127.338 79.03 127.702 79.81C128.066 80.564 128.248 81.461 128.248 82.501C128.248 84.347 127.754 85.725 126.766 86.635C125.804 87.545 124.439 88 122.671 88H118.888V85.66ZM137.405 88C135.975 88 134.844 87.571 134.012 86.713C133.18 85.855 132.764 84.698 132.764 83.242V70.06H130.424V67.72H132.764V61.831L135.884 60.661V67.72H139.004V70.06H135.884V83.515C135.884 84.139 136.053 84.659 136.391 85.075C136.755 85.465 137.236 85.66 137.834 85.66H139.004V88H137.405ZM146.244 88C145.308 88 144.437 87.766 143.631 87.298C142.851 86.83 142.227 86.193 141.759 85.387C141.317 84.581 141.096 83.671 141.096 82.657V80.629C141.096 79.407 141.395 78.38 141.993 77.548C142.617 76.716 143.384 76.131 144.294 75.793L149.13 73.999V72.166C149.13 71.542 148.935 71.035 148.545 70.645C148.181 70.229 147.7 70.021 147.102 70.021H142.695V67.72H147.375C148.805 67.72 149.936 68.149 150.768 69.007C151.626 69.839 152.055 70.983 152.055 72.439V88H146.244ZM149.13 85.621V76.456L145.698 77.743C145.022 78.003 144.541 78.354 144.255 78.796C143.995 79.238 143.865 79.94 143.865 80.902V83.086C143.865 83.788 144.125 84.386 144.645 84.88C145.165 85.374 145.789 85.621 146.517 85.621H149.13ZM157.992 91.9H162.009C162.607 91.9 163.075 91.692 163.413 91.276C163.777 90.886 163.959 90.379 163.959 89.755V88.039H160.722C159.292 88.039 158.083 87.571 157.095 86.635C156.107 85.699 155.613 84.529 155.613 83.125V72.634C155.613 71.23 156.107 70.06 157.095 69.124C158.109 68.188 159.331 67.72 160.761 67.72H167.118V89.482C167.118 90.938 166.715 92.095 165.909 92.953C165.129 93.811 164.024 94.24 162.594 94.24H157.992V91.9ZM163.998 85.699V70.06H161.385C160.657 70.06 160.033 70.307 159.513 70.801C158.993 71.295 158.733 71.906 158.733 72.634V83.125C158.733 83.853 158.993 84.464 159.513 84.958C160.033 85.452 160.657 85.699 161.385 85.699H163.998ZM171.398 67.72H173.816L174.167 69.163L175.142 68.695C175.974 68.279 176.663 67.967 177.209 67.759C177.781 67.551 178.353 67.447 178.925 67.447V69.748C178.587 69.748 178.132 69.852 177.56 70.06C176.988 70.242 175.974 70.684 174.518 71.386V88H171.398V67.72ZM185.967 88C185.031 88 184.16 87.766 183.354 87.298C182.574 86.83 181.95 86.193 181.482 85.387C181.04 84.581 180.819 83.671 180.819 82.657V80.629C180.819 79.407 181.118 78.38 181.716 77.548C182.34 76.716 183.107 76.131 184.017 75.793L188.853 73.999V72.166C188.853 71.542 188.658 71.035 188.268 70.645C187.904 70.229 187.423 70.021 186.825 70.021H182.418V67.72H187.098C188.528 67.72 189.659 68.149 190.491 69.007C191.349 69.839 191.778 70.983 191.778 72.439V88H185.967ZM188.853 85.621V76.456L185.421 77.743C184.745 78.003 184.264 78.354 183.978 78.796C183.718 79.238 183.588 79.94 183.588 80.902V83.086C183.588 83.788 183.848 84.386 184.368 84.88C184.888 85.374 185.512 85.621 186.24 85.621H188.853ZM196.077 67.72H198.495L198.846 68.851L200.445 68.383C201.537 68.045 202.395 67.811 203.019 67.681C203.669 67.525 204.28 67.447 204.852 67.447C205.97 67.447 206.75 67.941 207.192 68.929C207.92 68.669 208.947 68.357 210.273 67.993C211.599 67.629 212.574 67.447 213.198 67.447C214.134 67.447 214.823 67.772 215.265 68.422C215.733 69.072 215.967 69.917 215.967 70.957V88H212.847V71.971C212.847 71.217 212.795 70.697 212.691 70.411C212.587 70.099 212.327 69.943 211.911 69.943C211.703 69.943 210.273 70.359 207.621 71.191V88H204.501V71.971C204.501 71.217 204.449 70.697 204.345 70.411C204.241 70.099 203.981 69.943 203.565 69.943C203.357 69.943 201.901 70.359 199.197 71.191V88H196.077V67.72Z" fill="#241B53"/>
</svg>
