<svg width="252" height="100" viewBox="0 0 252 100" fill="none" xmlns="http://www.w3.org/2000/svg">
<path d="M39.562 41.9H43.579C44.177 41.9 44.645 41.692 44.983 41.276C45.347 40.886 45.529 40.379 45.529 39.755V38.039H42.292C40.862 38.039 39.653 37.571 38.665 36.635C37.677 35.699 37.183 34.529 37.183 33.125V22.634C37.183 21.23 37.677 20.06 38.665 19.124C39.679 18.188 40.901 17.72 42.331 17.72H48.688V39.482C48.688 40.938 48.285 42.095 47.479 42.953C46.699 43.811 45.594 44.24 44.164 44.24H39.562V41.9ZM45.568 35.699V20.06H42.955C42.227 20.06 41.603 20.307 41.083 20.801C40.563 21.295 40.303 21.906 40.303 22.634V33.125C40.303 33.853 40.563 34.464 41.083 34.958C41.603 35.452 42.227 35.699 42.955 35.699H45.568ZM57.0239 38C55.5939 38 54.4499 37.571 53.5919 36.713C52.7599 35.855 52.3439 34.698 52.3439 33.242V22.868C52.3439 21.178 52.8119 19.852 53.7479 18.89C54.6839 17.928 56.0749 17.447 57.9209 17.447C59.7669 17.447 61.1449 17.928 62.0549 18.89C62.9909 19.852 63.4589 21.178 63.4589 22.868V24.662C63.4589 25.754 63.1469 26.586 62.5229 27.158C61.8989 27.704 61.0799 28.12 60.0659 28.406L55.4639 29.693V33.515C55.4639 34.139 55.6459 34.659 56.0099 35.075C56.3999 35.465 56.8939 35.66 57.4919 35.66H61.7039V38H57.0239ZM57.8429 26.573C58.7009 26.339 59.2729 26.17 59.5589 26.066C59.8709 25.936 60.0789 25.754 60.1829 25.52C60.2869 25.286 60.3389 24.896 60.3389 24.35V22.205C60.3389 21.373 60.1179 20.762 59.6759 20.372C59.2599 19.982 58.6749 19.787 57.9209 19.787C57.1929 19.787 56.5949 19.995 56.1269 20.411C55.6849 20.827 55.4639 21.425 55.4639 22.205V27.236L57.8429 26.573ZM66.5646 17.72H68.9826L69.3336 19.163L70.3086 18.695C71.1406 18.279 71.8296 17.967 72.3756 17.759C72.9476 17.551 73.5196 17.447 74.0916 17.447V19.748C73.7536 19.748 73.2986 19.852 72.7266 20.06C72.1546 20.242 71.1406 20.684 69.6846 21.386V38H66.5646V17.72ZM81.0562 38C79.6262 38 78.4822 37.571 77.6242 36.713C76.7922 35.855 76.3762 34.698 76.3762 33.242V22.868C76.3762 21.178 76.8442 19.852 77.7802 18.89C78.7162 17.928 80.1072 17.447 81.9532 17.447C83.7992 17.447 85.1772 17.928 86.0872 18.89C87.0232 19.852 87.4912 21.178 87.4912 22.868V24.662C87.4912 25.754 87.1792 26.586 86.5552 27.158C85.9312 27.704 85.1122 28.12 84.0982 28.406L79.4962 29.693V33.515C79.4962 34.139 79.6782 34.659 80.0422 35.075C80.4322 35.465 80.9262 35.66 81.5242 35.66H85.7362V38H81.0562ZM81.8752 26.573C82.7332 26.339 83.3052 26.17 83.5912 26.066C83.9032 25.936 84.1112 25.754 84.2152 25.52C84.3192 25.286 84.3712 24.896 84.3712 24.35V22.205C84.3712 21.373 84.1502 20.762 83.7082 20.372C83.2922 19.982 82.7072 19.787 81.9532 19.787C81.2252 19.787 80.6272 19.995 80.1592 20.411C79.7172 20.827 79.4962 21.425 79.4962 22.205V27.236L81.8752 26.573ZM90.5968 17.72H93.0148L93.3658 18.851L94.9648 18.383C96.0568 18.045 96.9148 17.811 97.5388 17.681C98.1888 17.525 98.7998 17.447 99.3718 17.447C100.308 17.447 100.997 17.772 101.439 18.422C101.881 19.072 102.102 19.917 102.102 20.957V38H98.9818V21.971C98.9818 21.217 98.9298 20.697 98.8258 20.411C98.7218 20.099 98.4618 19.943 98.0458 19.943C97.8378 19.943 96.3948 20.359 93.7168 21.191V38H90.5968V17.72ZM110.731 38C109.301 38 108.157 37.571 107.299 36.713C106.467 35.855 106.051 34.698 106.051 33.242V22.868C106.051 21.23 106.48 19.969 107.338 19.085C108.196 18.175 109.444 17.72 111.082 17.72H115.411V20.06H111.16C110.562 20.06 110.081 20.268 109.717 20.684C109.353 21.074 109.171 21.581 109.171 22.205V33.515C109.171 34.139 109.353 34.659 109.717 35.075C110.107 35.465 110.601 35.66 111.199 35.66H115.411V38H110.731ZM118.133 14.405V11.285H121.253V14.405H118.133ZM118.133 38V17.72H121.253V38H118.133ZM130.075 38C129.139 38 128.268 37.766 127.462 37.298C126.682 36.83 126.058 36.193 125.59 35.387C125.148 34.581 124.927 33.671 124.927 32.657V30.629C124.927 29.407 125.226 28.38 125.824 27.548C126.448 26.716 127.215 26.131 128.125 25.793L132.961 23.999V22.166C132.961 21.542 132.766 21.035 132.376 20.645C132.012 20.229 131.531 20.021 130.933 20.021H126.526V17.72H131.206C132.636 17.72 133.767 18.149 134.599 19.007C135.457 19.839 135.886 20.983 135.886 22.439V38H130.075ZM132.961 35.621V26.456L129.529 27.743C128.853 28.003 128.372 28.354 128.086 28.796C127.826 29.238 127.696 29.94 127.696 30.902V33.086C127.696 33.788 127.956 34.386 128.476 34.88C128.996 35.374 129.62 35.621 130.348 35.621H132.961ZM140.185 17.72H142.603L142.954 18.851L144.553 18.383C145.645 18.045 146.503 17.811 147.127 17.681C147.777 17.525 148.388 17.447 148.96 17.447C150.078 17.447 150.858 17.941 151.3 18.929C152.028 18.669 153.055 18.357 154.381 17.993C155.707 17.629 156.682 17.447 157.306 17.447C158.242 17.447 158.931 17.772 159.373 18.422C159.841 19.072 160.075 19.917 160.075 20.957V38H156.955V21.971C156.955 21.217 156.903 20.697 156.799 20.411C156.695 20.099 156.435 19.943 156.019 19.943C155.811 19.943 154.381 20.359 151.729 21.191V38H148.609V21.971C148.609 21.217 148.557 20.697 148.453 20.411C148.349 20.099 148.089 19.943 147.673 19.943C147.465 19.943 146.009 20.359 143.305 21.191V38H140.185V17.72ZM168.425 38C166.995 38 165.851 37.571 164.993 36.713C164.161 35.855 163.745 34.698 163.745 33.242V22.868C163.745 21.178 164.213 19.852 165.149 18.89C166.085 17.928 167.476 17.447 169.322 17.447C171.168 17.447 172.546 17.928 173.456 18.89C174.392 19.852 174.86 21.178 174.86 22.868V24.662C174.86 25.754 174.548 26.586 173.924 27.158C173.3 27.704 172.481 28.12 171.467 28.406L166.865 29.693V33.515C166.865 34.139 167.047 34.659 167.411 35.075C167.801 35.465 168.295 35.66 168.893 35.66H173.105V38H168.425ZM169.244 26.573C170.102 26.339 170.674 26.17 170.96 26.066C171.272 25.936 171.48 25.754 171.584 25.52C171.688 25.286 171.74 24.896 171.74 24.35V22.205C171.74 21.373 171.519 20.762 171.077 20.372C170.661 19.982 170.076 19.787 169.322 19.787C168.594 19.787 167.996 19.995 167.528 20.411C167.086 20.827 166.865 21.425 166.865 22.205V27.236L169.244 26.573ZM177.966 17.72H180.384L180.735 18.851L182.334 18.383C183.426 18.045 184.284 17.811 184.908 17.681C185.558 17.525 186.169 17.447 186.741 17.447C187.677 17.447 188.366 17.772 188.808 18.422C189.25 19.072 189.471 19.917 189.471 20.957V38H186.351V21.971C186.351 21.217 186.299 20.697 186.195 20.411C186.091 20.099 185.831 19.943 185.415 19.943C185.207 19.943 183.764 20.359 181.086 21.191V38H177.966V17.72ZM199.465 38C198.035 38 196.904 37.571 196.072 36.713C195.24 35.855 194.824 34.698 194.824 33.242V20.06H192.484V17.72H194.824V11.831L197.944 10.661V17.72H201.064V20.06H197.944V33.515C197.944 34.139 198.113 34.659 198.451 35.075C198.815 35.465 199.296 35.66 199.894 35.66H201.064V38H199.465ZM209.122 38.273C207.302 38.273 205.885 37.818 204.871 36.908C203.883 35.972 203.389 34.685 203.389 33.047V22.673C203.389 21.035 203.883 19.761 204.871 18.851C205.885 17.915 207.302 17.447 209.122 17.447C210.942 17.447 212.346 17.915 213.334 18.851C214.348 19.761 214.855 21.035 214.855 22.673V33.047C214.855 34.685 214.348 35.972 213.334 36.908C212.346 37.818 210.942 38.273 209.122 38.273ZM209.122 35.855C209.954 35.855 210.604 35.621 211.072 35.153C211.566 34.659 211.813 33.957 211.813 33.047V22.673C211.813 21.763 211.566 21.074 211.072 20.606C210.604 20.112 209.954 19.865 209.122 19.865C208.29 19.865 207.627 20.112 207.133 20.606C206.665 21.074 206.431 21.763 206.431 22.673V33.047C206.431 33.957 206.665 34.659 207.133 35.153C207.627 35.621 208.29 35.855 209.122 35.855Z" fill="#FF461E"/>
<rect y="50.0054" width="252" height="49.9946" fill="#FF461E"/>
<path d="M53.909 88C52.271 88 50.945 87.519 49.931 86.557C48.917 85.595 48.41 84.308 48.41 82.696V72.985C48.41 71.867 48.709 70.918 49.307 70.138C49.931 69.358 50.698 68.825 51.608 68.539L56.834 66.706V60.7H59.954V88H53.909ZM56.834 85.66V69.28L53.363 70.45C52.687 70.658 52.206 70.996 51.92 71.464C51.66 71.906 51.53 72.621 51.53 73.609V82.696C51.53 83.632 51.803 84.36 52.349 84.88C52.895 85.4 53.636 85.66 54.572 85.66H56.834ZM68.6989 88C67.2689 88 66.1249 87.571 65.2669 86.713C64.4349 85.855 64.0189 84.698 64.0189 83.242V72.868C64.0189 71.178 64.4869 69.852 65.4229 68.89C66.3589 67.928 67.7499 67.447 69.5959 67.447C71.4419 67.447 72.8199 67.928 73.7299 68.89C74.6659 69.852 75.1339 71.178 75.1339 72.868V74.662C75.1339 75.754 74.8219 76.586 74.1979 77.158C73.5739 77.704 72.7549 78.12 71.7409 78.406L67.1389 79.693V83.515C67.1389 84.139 67.3209 84.659 67.6849 85.075C68.0749 85.465 68.5689 85.66 69.1669 85.66H73.3789V88H68.6989ZM69.5179 76.573C70.3759 76.339 70.9479 76.17 71.2339 76.066C71.5459 75.936 71.7539 75.754 71.8579 75.52C71.9619 75.286 72.0139 74.896 72.0139 74.35V72.205C72.0139 71.373 71.7929 70.762 71.3509 70.372C70.9349 69.982 70.3499 69.787 69.5959 69.787C68.8679 69.787 68.2699 69.995 67.8019 70.411C67.3599 70.827 67.1389 71.425 67.1389 72.205V77.236L69.5179 76.573ZM84.1048 64.405V61.285H87.2248V64.405H84.1048ZM84.1048 88V67.72H87.2248V88H84.1048ZM91.9124 67.72H94.3304L94.6814 68.851L96.2804 68.383C97.3724 68.045 98.2304 67.811 98.8544 67.681C99.5044 67.525 100.115 67.447 100.687 67.447C101.623 67.447 102.312 67.772 102.754 68.422C103.196 69.072 103.417 69.917 103.417 70.957V88H100.297V71.971C100.297 71.217 100.245 70.697 100.141 70.411C100.037 70.099 99.7774 69.943 99.3614 69.943C99.1534 69.943 97.7104 70.359 95.0324 71.191V88H91.9124V67.72ZM106.586 85.66H109.901C111.019 85.66 111.825 85.361 112.319 84.763C112.839 84.139 113.099 83.333 113.099 82.345C113.099 81.565 112.865 80.902 112.397 80.356C111.929 79.81 111.227 79.173 110.291 78.445C109.485 77.795 108.835 77.236 108.341 76.768C107.873 76.274 107.457 75.676 107.093 74.974C106.755 74.246 106.586 73.414 106.586 72.478C106.586 71.1 107.041 69.969 107.951 69.085C108.887 68.175 110.135 67.72 111.695 67.72H115.088V70.06H112.28C110.434 70.06 109.511 70.931 109.511 72.673C109.511 73.349 109.719 73.934 110.135 74.428C110.551 74.922 111.201 75.507 112.085 76.183C112.891 76.807 113.554 77.379 114.074 77.899C114.594 78.393 115.036 79.03 115.4 79.81C115.764 80.564 115.946 81.461 115.946 82.501C115.946 84.347 115.452 85.725 114.464 86.635C113.502 87.545 112.137 88 110.369 88H106.586V85.66ZM125.104 88C123.674 88 122.543 87.571 121.711 86.713C120.879 85.855 120.463 84.698 120.463 83.242V70.06H118.123V67.72H120.463V61.831L123.583 60.661V67.72H126.703V70.06H123.583V83.515C123.583 84.139 123.752 84.659 124.09 85.075C124.454 85.465 124.935 85.66 125.533 85.66H126.703V88H125.104ZM133.942 88C133.006 88 132.135 87.766 131.329 87.298C130.549 86.83 129.925 86.193 129.457 85.387C129.015 84.581 128.794 83.671 128.794 82.657V80.629C128.794 79.407 129.093 78.38 129.691 77.548C130.315 76.716 131.082 76.131 131.992 75.793L136.828 73.999V72.166C136.828 71.542 136.633 71.035 136.243 70.645C135.879 70.229 135.398 70.021 134.8 70.021H130.393V67.72H135.073C136.503 67.72 137.634 68.149 138.466 69.007C139.324 69.839 139.753 70.983 139.753 72.439V88H133.942ZM136.828 85.621V76.456L133.396 77.743C132.72 78.003 132.239 78.354 131.953 78.796C131.693 79.238 131.563 79.94 131.563 80.902V83.086C131.563 83.788 131.823 84.386 132.343 84.88C132.863 85.374 133.487 85.621 134.215 85.621H136.828ZM145.69 91.9H149.707C150.305 91.9 150.773 91.692 151.111 91.276C151.475 90.886 151.657 90.379 151.657 89.755V88.039H148.42C146.99 88.039 145.781 87.571 144.793 86.635C143.805 85.699 143.311 84.529 143.311 83.125V72.634C143.311 71.23 143.805 70.06 144.793 69.124C145.807 68.188 147.029 67.72 148.459 67.72H154.816V89.482C154.816 90.938 154.413 92.095 153.607 92.953C152.827 93.811 151.722 94.24 150.292 94.24H145.69V91.9ZM151.696 85.699V70.06H149.083C148.355 70.06 147.731 70.307 147.211 70.801C146.691 71.295 146.431 71.906 146.431 72.634V83.125C146.431 83.853 146.691 84.464 147.211 84.958C147.731 85.452 148.355 85.699 149.083 85.699H151.696ZM159.096 67.72H161.514L161.865 69.163L162.84 68.695C163.672 68.279 164.361 67.967 164.907 67.759C165.479 67.551 166.051 67.447 166.623 67.447V69.748C166.285 69.748 165.83 69.852 165.258 70.06C164.686 70.242 163.672 70.684 162.216 71.386V88H159.096V67.72ZM173.666 88C172.73 88 171.859 87.766 171.053 87.298C170.273 86.83 169.649 86.193 169.181 85.387C168.739 84.581 168.518 83.671 168.518 82.657V80.629C168.518 79.407 168.817 78.38 169.415 77.548C170.039 76.716 170.806 76.131 171.716 75.793L176.552 73.999V72.166C176.552 71.542 176.357 71.035 175.967 70.645C175.603 70.229 175.122 70.021 174.524 70.021H170.117V67.72H174.797C176.227 67.72 177.358 68.149 178.19 69.007C179.048 69.839 179.477 70.983 179.477 72.439V88H173.666ZM176.552 85.621V76.456L173.12 77.743C172.444 78.003 171.963 78.354 171.677 78.796C171.417 79.238 171.287 79.94 171.287 80.902V83.086C171.287 83.788 171.547 84.386 172.067 84.88C172.587 85.374 173.211 85.621 173.939 85.621H176.552ZM183.776 67.72H186.194L186.545 68.851L188.144 68.383C189.236 68.045 190.094 67.811 190.718 67.681C191.368 67.525 191.979 67.447 192.551 67.447C193.669 67.447 194.449 67.941 194.891 68.929C195.619 68.669 196.646 68.357 197.972 67.993C199.298 67.629 200.273 67.447 200.897 67.447C201.833 67.447 202.522 67.772 202.964 68.422C203.432 69.072 203.666 69.917 203.666 70.957V88H200.546V71.971C200.546 71.217 200.494 70.697 200.39 70.411C200.286 70.099 200.026 69.943 199.61 69.943C199.402 69.943 197.972 70.359 195.32 71.191V88H192.2V71.971C192.2 71.217 192.148 70.697 192.044 70.411C191.94 70.099 191.68 69.943 191.264 69.943C191.056 69.943 189.6 70.359 186.896 71.191V88H183.776V67.72Z" fill="#241B53"/>
</svg>
