<svg width="171" height="100" viewBox="0 0 171 100" fill="none" xmlns="http://www.w3.org/2000/svg">
<path d="M49.4677 38C48.0377 38 46.9067 37.571 46.0747 36.713C45.2427 35.855 44.8267 34.698 44.8267 33.242V20.06H42.4867V17.72H44.8267V11.831L47.9467 10.661V17.72H51.0667V20.06H47.9467V33.515C47.9467 34.139 48.1157 34.659 48.4537 35.075C48.8177 35.465 49.2987 35.66 49.8967 35.66H51.0667V38H49.4677ZM54.172 17.72H56.59L56.941 19.163L57.916 18.695C58.748 18.279 59.437 17.967 59.983 17.759C60.555 17.551 61.127 17.447 61.699 17.447V19.748C61.361 19.748 60.906 19.852 60.334 20.06C59.762 20.242 58.748 20.684 57.292 21.386V38H54.172V17.72ZM68.7416 38C67.8056 38 66.9346 37.766 66.1286 37.298C65.3486 36.83 64.7246 36.193 64.2566 35.387C63.8146 34.581 63.5936 33.671 63.5936 32.657V30.629C63.5936 29.407 63.8926 28.38 64.4906 27.548C65.1146 26.716 65.8816 26.131 66.7916 25.793L71.6276 23.999V22.166C71.6276 21.542 71.4326 21.035 71.0426 20.645C70.6786 20.229 70.1976 20.021 69.5996 20.021H65.1926V17.72H69.8726C71.3026 17.72 72.4336 18.149 73.2656 19.007C74.1236 19.839 74.5526 20.983 74.5526 22.439V38H68.7416ZM71.6276 35.621V26.456L68.1956 27.743C67.5196 28.003 67.0386 28.354 66.7526 28.796C66.4926 29.238 66.3626 29.94 66.3626 30.902V33.086C66.3626 33.788 66.6226 34.386 67.1426 34.88C67.6626 35.374 68.2866 35.621 69.0146 35.621H71.6276ZM68.3516 16.199L67.0646 15.029L71.5886 11.168L73.5776 13.001L68.3516 16.199ZM79.8267 20.294H77.4867V17.72H79.8267V15.458C79.8267 14.002 80.2427 12.845 81.0747 11.987C81.9067 11.129 83.0377 10.7 84.4677 10.7H86.1837V13.04H85.0137C84.4157 13.04 83.9217 13.248 83.5317 13.664C83.1417 14.08 82.9467 14.587 82.9467 15.185V17.72H86.1057V20.294H82.9467V38H79.8267V20.294ZM92.6958 38C91.2658 38 90.1218 37.571 89.2638 36.713C88.4318 35.855 88.0158 34.698 88.0158 33.242V22.868C88.0158 21.178 88.4838 19.852 89.4198 18.89C90.3558 17.928 91.7468 17.447 93.5928 17.447C95.4388 17.447 96.8168 17.928 97.7268 18.89C98.6628 19.852 99.1308 21.178 99.1308 22.868V24.662C99.1308 25.754 98.8188 26.586 98.1948 27.158C97.5708 27.704 96.7518 28.12 95.7378 28.406L91.1358 29.693V33.515C91.1358 34.139 91.3178 34.659 91.6818 35.075C92.0718 35.465 92.5658 35.66 93.1638 35.66H97.3758V38H92.6958ZM93.5148 26.573C94.3728 26.339 94.9448 26.17 95.2308 26.066C95.5428 25.936 95.7508 25.754 95.8548 25.52C95.9588 25.286 96.0108 24.896 96.0108 24.35V22.205C96.0108 21.373 95.7898 20.762 95.3478 20.372C94.9318 19.982 94.3468 19.787 93.5928 19.787C92.8648 19.787 92.2668 19.995 91.7988 20.411C91.3568 20.827 91.1358 21.425 91.1358 22.205V27.236L93.5148 26.573ZM103.874 41.9H107.891C108.489 41.9 108.957 41.692 109.295 41.276C109.659 40.886 109.841 40.379 109.841 39.755V38.039H106.604C105.174 38.039 103.965 37.571 102.977 36.635C101.989 35.699 101.495 34.529 101.495 33.125V22.634C101.495 21.23 101.989 20.06 102.977 19.124C103.991 18.188 105.213 17.72 106.643 17.72H113V39.482C113 40.938 112.597 42.095 111.791 42.953C111.011 43.811 109.906 44.24 108.476 44.24H103.874V41.9ZM109.88 35.699V20.06H107.267C106.539 20.06 105.915 20.307 105.395 20.801C104.875 21.295 104.615 21.906 104.615 22.634V33.125C104.615 33.853 104.875 34.464 105.395 34.958C105.915 35.452 106.539 35.699 107.267 35.699H109.88ZM122.233 38.273C120.413 38.273 118.996 37.818 117.982 36.908C116.994 35.972 116.5 34.685 116.5 33.047V22.673C116.5 21.035 116.994 19.761 117.982 18.851C118.996 17.915 120.413 17.447 122.233 17.447C124.053 17.447 125.457 17.915 126.445 18.851C127.459 19.761 127.966 21.035 127.966 22.673V33.047C127.966 34.685 127.459 35.972 126.445 36.908C125.457 37.818 124.053 38.273 122.233 38.273ZM122.233 35.855C123.065 35.855 123.715 35.621 124.183 35.153C124.677 34.659 124.924 33.957 124.924 33.047V22.673C124.924 21.763 124.677 21.074 124.183 20.606C123.715 20.112 123.065 19.865 122.233 19.865C121.401 19.865 120.738 20.112 120.244 20.606C119.776 21.074 119.542 21.763 119.542 22.673V33.047C119.542 33.957 119.776 34.659 120.244 35.153C120.738 35.621 121.401 35.855 122.233 35.855Z" fill="#FF461E"/>
<rect y="50.0054" width="171" height="49.9946" fill="#FF461E"/>
<path d="M58.3374 67.72H64.6554C66.0854 67.72 67.2944 68.188 68.2824 69.124C69.2964 70.06 69.8034 71.23 69.8034 72.634V83.125C69.8034 84.529 69.3094 85.699 68.3214 86.635C67.3334 87.545 66.1244 88 64.6944 88H61.4574V94.24H58.3374V67.72ZM64.0314 85.699C64.7594 85.699 65.3834 85.452 65.9034 84.958C66.4234 84.464 66.6834 83.853 66.6834 83.125V72.634C66.6834 71.906 66.4234 71.295 65.9034 70.801C65.3834 70.307 64.7594 70.06 64.0314 70.06H61.4574V85.699H64.0314ZM77.6296 88C76.6936 88 75.8226 87.766 75.0166 87.298C74.2366 86.83 73.6126 86.193 73.1446 85.387C72.7026 84.581 72.4816 83.671 72.4816 82.657V80.629C72.4816 79.407 72.7806 78.38 73.3786 77.548C74.0026 76.716 74.7696 76.131 75.6796 75.793L80.5156 73.999V72.166C80.5156 71.542 80.3206 71.035 79.9306 70.645C79.5666 70.229 79.0856 70.021 78.4876 70.021H74.0806V67.72H78.7606C80.1906 67.72 81.3216 68.149 82.1536 69.007C83.0116 69.839 83.4406 70.983 83.4406 72.439V88H77.6296ZM80.5156 85.621V76.456L77.0836 77.743C76.4076 78.003 75.9266 78.354 75.6406 78.796C75.3806 79.238 75.2506 79.94 75.2506 80.902V83.086C75.2506 83.788 75.5106 84.386 76.0306 84.88C76.5506 85.374 77.1746 85.621 77.9026 85.621H80.5156ZM89.3777 91.9H93.3947C93.9927 91.9 94.4607 91.692 94.7987 91.276C95.1627 90.886 95.3447 90.379 95.3447 89.755V88.039H92.1077C90.6777 88.039 89.4687 87.571 88.4807 86.635C87.4927 85.699 86.9987 84.529 86.9987 83.125V72.634C86.9987 71.23 87.4927 70.06 88.4807 69.124C89.4947 68.188 90.7167 67.72 92.1467 67.72H98.5037V89.482C98.5037 90.938 98.1007 92.095 97.2947 92.953C96.5147 93.811 95.4097 94.24 93.9797 94.24H89.3777V91.9ZM95.3837 85.699V70.06H92.7707C92.0427 70.06 91.4187 70.307 90.8987 70.801C90.3787 71.295 90.1187 71.906 90.1187 72.634V83.125C90.1187 83.853 90.3787 84.464 90.8987 84.958C91.4187 85.452 92.0427 85.699 92.7707 85.699H95.3837ZM107.737 88.273C105.917 88.273 104.5 87.818 103.486 86.908C102.498 85.972 102.004 84.685 102.004 83.047V72.673C102.004 71.035 102.498 69.761 103.486 68.851C104.5 67.915 105.917 67.447 107.737 67.447C109.557 67.447 110.961 67.915 111.949 68.851C112.963 69.761 113.47 71.035 113.47 72.673V83.047C113.47 84.685 112.963 85.972 111.949 86.908C110.961 87.818 109.557 88.273 107.737 88.273ZM107.737 85.855C108.569 85.855 109.219 85.621 109.687 85.153C110.181 84.659 110.428 83.957 110.428 83.047V72.673C110.428 71.763 110.181 71.074 109.687 70.606C109.219 70.112 108.569 69.865 107.737 69.865C106.905 69.865 106.242 70.112 105.748 70.606C105.28 71.074 105.046 71.763 105.046 72.673V83.047C105.046 83.957 105.28 84.659 105.748 85.153C106.242 85.621 106.905 85.855 107.737 85.855Z" fill="#241B53"/>
</svg>
