<svg width="416" height="50" viewBox="0 0 416 50" fill="none" xmlns="http://www.w3.org/2000/svg">
<rect y="0.00537109" width="416" height="49.9946" fill="#FF461E"/>
<path d="M14.5276 38C12.8896 38 11.5636 37.519 10.5496 36.557C9.53555 35.595 9.02855 34.308 9.02855 32.696V22.985C9.02855 21.867 9.32755 20.918 9.92555 20.138C10.5496 19.358 11.3166 18.825 12.2266 18.539L17.4526 16.706V10.7H20.5726V38H14.5276ZM17.4526 35.66V19.28L13.9816 20.45C13.3056 20.658 12.8246 20.996 12.5386 21.464C12.2786 21.906 12.1486 22.621 12.1486 23.609V32.696C12.1486 33.632 12.4216 34.36 12.9676 34.88C13.5136 35.4 14.2546 35.66 15.1906 35.66H17.4526ZM29.3174 38C27.8874 38 26.7434 37.571 25.8854 36.713C25.0534 35.855 24.6374 34.698 24.6374 33.242V22.868C24.6374 21.178 25.1054 19.852 26.0414 18.89C26.9774 17.928 28.3684 17.447 30.2144 17.447C32.0604 17.447 33.4384 17.928 34.3484 18.89C35.2844 19.852 35.7524 21.178 35.7524 22.868V24.662C35.7524 25.754 35.4404 26.586 34.8164 27.158C34.1924 27.704 33.3734 28.12 32.3594 28.406L27.7574 29.693V33.515C27.7574 34.139 27.9394 34.659 28.3034 35.075C28.6934 35.465 29.1874 35.66 29.7854 35.66H33.9974V38H29.3174ZM30.1364 26.573C30.9944 26.339 31.5664 26.17 31.8524 26.066C32.1644 25.936 32.3724 25.754 32.4764 25.52C32.5804 25.286 32.6324 24.896 32.6324 24.35V22.205C32.6324 21.373 32.4114 20.762 31.9694 20.372C31.5534 19.982 30.9684 19.787 30.2144 19.787C29.4864 19.787 28.8884 19.995 28.4204 20.411C27.9784 20.827 27.7574 21.425 27.7574 22.205V27.236L30.1364 26.573ZM37.6881 35.66H41.0031C42.1211 35.66 42.9271 35.361 43.4211 34.763C43.9411 34.139 44.2011 33.333 44.2011 32.345C44.2011 31.565 43.9671 30.902 43.4991 30.356C43.0311 29.81 42.3291 29.173 41.3931 28.445C40.5871 27.795 39.9371 27.236 39.4431 26.768C38.9751 26.274 38.5591 25.676 38.1951 24.974C37.8571 24.246 37.6881 23.414 37.6881 22.478C37.6881 21.1 38.1431 19.969 39.0531 19.085C39.9891 18.175 41.2371 17.72 42.7971 17.72H46.1901V20.06H43.3821C41.5361 20.06 40.6131 20.931 40.6131 22.673C40.6131 23.349 40.8211 23.934 41.2371 24.428C41.6531 24.922 42.3031 25.507 43.1871 26.183C43.9931 26.807 44.6561 27.379 45.1761 27.899C45.6961 28.393 46.1381 29.03 46.5021 29.81C46.8661 30.564 47.0481 31.461 47.0481 32.501C47.0481 34.347 46.5541 35.725 45.5661 36.635C44.6041 37.545 43.2391 38 41.4711 38H37.6881V35.66ZM50.5504 14.405V11.285H53.6704V14.405H50.5504ZM50.5504 38V17.72H53.6704V38H50.5504ZM59.9961 41.9H64.0131C64.6111 41.9 65.0791 41.692 65.4171 41.276C65.7811 40.886 65.9631 40.379 65.9631 39.755V38.039H62.7261C61.2961 38.039 60.0871 37.571 59.0991 36.635C58.1111 35.699 57.6171 34.529 57.6171 33.125V22.634C57.6171 21.23 58.1111 20.06 59.0991 19.124C60.1131 18.188 61.3351 17.72 62.7651 17.72H69.1221V39.482C69.1221 40.938 68.7191 42.095 67.9131 42.953C67.1331 43.811 66.0281 44.24 64.5981 44.24H59.9961V41.9ZM66.0021 35.699V20.06H63.3891C62.6611 20.06 62.0371 20.307 61.5171 20.801C60.9971 21.295 60.7371 21.906 60.7371 22.634V33.125C60.7371 33.853 60.9971 34.464 61.5171 34.958C62.0371 35.452 62.6611 35.699 63.3891 35.699H66.0021ZM73.402 17.72H75.82L76.171 18.851L77.77 18.383C78.862 18.045 79.72 17.811 80.344 17.681C80.994 17.525 81.605 17.447 82.177 17.447C83.113 17.447 83.802 17.772 84.244 18.422C84.686 19.072 84.907 19.917 84.907 20.957V38H81.787V21.971C81.787 21.217 81.735 20.697 81.631 20.411C81.527 20.099 81.267 19.943 80.851 19.943C80.643 19.943 79.2 20.359 76.522 21.191V38H73.402V17.72ZM86.8668 42.797L88.5438 38V33.983H91.6638V37.961L89.2848 42.797H86.8668ZM100.672 17.72H103.09L103.441 18.851L105.04 18.383C106.132 18.045 106.99 17.811 107.614 17.681C108.264 17.525 108.875 17.447 109.447 17.447C110.565 17.447 111.345 17.941 111.787 18.929C112.515 18.669 113.542 18.357 114.868 17.993C116.194 17.629 117.169 17.447 117.793 17.447C118.729 17.447 119.418 17.772 119.86 18.422C120.328 19.072 120.562 19.917 120.562 20.957V38H117.442V21.971C117.442 21.217 117.39 20.697 117.286 20.411C117.182 20.099 116.922 19.943 116.506 19.943C116.298 19.943 114.868 20.359 112.216 21.191V38H109.096V21.971C109.096 21.217 109.044 20.697 108.94 20.411C108.836 20.099 108.576 19.943 108.16 19.943C107.952 19.943 106.496 20.359 103.792 21.191V38H100.672V17.72ZM128.99 38C128.054 38 127.183 37.766 126.377 37.298C125.597 36.83 124.973 36.193 124.505 35.387C124.063 34.581 123.842 33.671 123.842 32.657V30.629C123.842 29.407 124.141 28.38 124.739 27.548C125.363 26.716 126.13 26.131 127.04 25.793L131.876 23.999V22.166C131.876 21.542 131.681 21.035 131.291 20.645C130.927 20.229 130.446 20.021 129.848 20.021H125.441V17.72H130.121C131.551 17.72 132.682 18.149 133.514 19.007C134.372 19.839 134.801 20.983 134.801 22.439V38H128.99ZM131.876 35.621V26.456L128.444 27.743C127.768 28.003 127.287 28.354 127.001 28.796C126.741 29.238 126.611 29.94 126.611 30.902V33.086C126.611 33.788 126.871 34.386 127.391 34.88C127.911 35.374 128.535 35.621 129.263 35.621H131.876ZM139.1 17.72H141.518L141.869 19.163L142.844 18.695C143.676 18.279 144.365 17.967 144.911 17.759C145.483 17.551 146.055 17.447 146.627 17.447V19.748C146.289 19.748 145.834 19.852 145.262 20.06C144.69 20.242 143.676 20.684 142.22 21.386V38H139.1V17.72ZM149.458 38V10.7H152.578V25.988L158.623 17.72H161.548L155.776 25.988L161.821 38H158.896L153.943 27.782L152.578 29.615V38H149.458ZM168.521 38C167.091 38 165.947 37.571 165.089 36.713C164.257 35.855 163.841 34.698 163.841 33.242V22.868C163.841 21.178 164.309 19.852 165.245 18.89C166.181 17.928 167.572 17.447 169.418 17.447C171.264 17.447 172.642 17.928 173.552 18.89C174.488 19.852 174.956 21.178 174.956 22.868V24.662C174.956 25.754 174.644 26.586 174.02 27.158C173.396 27.704 172.577 28.12 171.563 28.406L166.961 29.693V33.515C166.961 34.139 167.143 34.659 167.507 35.075C167.897 35.465 168.391 35.66 168.989 35.66H173.201V38H168.521ZM169.34 26.573C170.198 26.339 170.77 26.17 171.056 26.066C171.368 25.936 171.576 25.754 171.68 25.52C171.784 25.286 171.836 24.896 171.836 24.35V22.205C171.836 21.373 171.615 20.762 171.173 20.372C170.757 19.982 170.172 19.787 169.418 19.787C168.69 19.787 168.092 19.995 167.624 20.411C167.182 20.827 166.961 21.425 166.961 22.205V27.236L169.34 26.573ZM183.717 38C182.287 38 181.156 37.571 180.324 36.713C179.492 35.855 179.076 34.698 179.076 33.242V20.06H176.736V17.72H179.076V11.831L182.196 10.661V17.72H185.316V20.06H182.196V33.515C182.196 34.139 182.365 34.659 182.703 35.075C183.067 35.465 183.548 35.66 184.146 35.66H185.316V38H183.717ZM188.422 14.405V11.285H191.542V14.405H188.422ZM188.422 38V17.72H191.542V38H188.422ZM196.229 17.72H198.647L198.998 18.851L200.597 18.383C201.689 18.045 202.547 17.811 203.171 17.681C203.821 17.525 204.432 17.447 205.004 17.447C205.94 17.447 206.629 17.772 207.071 18.422C207.513 19.072 207.734 19.917 207.734 20.957V38H204.614V21.971C204.614 21.217 204.562 20.697 204.458 20.411C204.354 20.099 204.094 19.943 203.678 19.943C203.47 19.943 202.027 20.359 199.349 21.191V38H196.229V17.72ZM213.711 41.9H217.728C218.326 41.9 218.794 41.692 219.132 41.276C219.496 40.886 219.678 40.379 219.678 39.755V38.039H216.441C215.011 38.039 213.802 37.571 212.814 36.635C211.826 35.699 211.332 34.529 211.332 33.125V22.634C211.332 21.23 211.826 20.06 212.814 19.124C213.828 18.188 215.05 17.72 216.48 17.72H222.837V39.482C222.837 40.938 222.434 42.095 221.628 42.953C220.848 43.811 219.743 44.24 218.313 44.24H213.711V41.9ZM219.717 35.699V20.06H217.104C216.376 20.06 215.752 20.307 215.232 20.801C214.712 21.295 214.452 21.906 214.452 22.634V33.125C214.452 33.853 214.712 34.464 215.232 34.958C215.752 35.452 216.376 35.699 217.104 35.699H219.717ZM237.038 38C235.608 38 234.464 37.571 233.606 36.713C232.774 35.855 232.358 34.698 232.358 33.242V22.868C232.358 21.178 232.826 19.852 233.762 18.89C234.698 17.928 236.089 17.447 237.935 17.447C239.781 17.447 241.159 17.928 242.069 18.89C243.005 19.852 243.473 21.178 243.473 22.868V24.662C243.473 25.754 243.161 26.586 242.537 27.158C241.913 27.704 241.094 28.12 240.08 28.406L235.478 29.693V33.515C235.478 34.139 235.66 34.659 236.024 35.075C236.414 35.465 236.908 35.66 237.506 35.66H241.718V38H237.038ZM237.857 26.573C238.715 26.339 239.287 26.17 239.573 26.066C239.885 25.936 240.093 25.754 240.197 25.52C240.301 25.286 240.353 24.896 240.353 24.35V22.205C240.353 21.373 240.132 20.762 239.69 20.372C239.274 19.982 238.689 19.787 237.935 19.787C237.207 19.787 236.609 19.995 236.141 20.411C235.699 20.827 235.478 21.425 235.478 22.205V27.236L237.857 26.573ZM252.444 17.72H258.762C260.192 17.72 261.401 18.188 262.389 19.124C263.403 20.06 263.91 21.23 263.91 22.634V33.125C263.91 34.529 263.416 35.699 262.428 36.635C261.44 37.545 260.231 38 258.801 38H255.564V44.24H252.444V17.72ZM258.138 35.699C258.866 35.699 259.49 35.452 260.01 34.958C260.53 34.464 260.79 33.853 260.79 33.125V22.634C260.79 21.906 260.53 21.295 260.01 20.801C259.49 20.307 258.866 20.06 258.138 20.06H255.564V35.699H258.138ZM267.602 17.72H270.02L270.371 19.163L271.346 18.695C272.178 18.279 272.867 17.967 273.413 17.759C273.985 17.551 274.557 17.447 275.129 17.447V19.748C274.791 19.748 274.336 19.852 273.764 20.06C273.192 20.242 272.178 20.684 270.722 21.386V38H267.602V17.72ZM282.991 38.273C281.171 38.273 279.754 37.818 278.74 36.908C277.752 35.972 277.258 34.685 277.258 33.047V22.673C277.258 21.035 277.752 19.761 278.74 18.851C279.754 17.915 281.171 17.447 282.991 17.447C284.811 17.447 286.215 17.915 287.203 18.851C288.217 19.761 288.724 21.035 288.724 22.673V33.047C288.724 34.685 288.217 35.972 287.203 36.908C286.215 37.818 284.811 38.273 282.991 38.273ZM282.991 35.855C283.823 35.855 284.473 35.621 284.941 35.153C285.435 34.659 285.682 33.957 285.682 33.047V22.673C285.682 21.763 285.435 21.074 284.941 20.606C284.473 20.112 283.823 19.865 282.991 19.865C282.159 19.865 281.496 20.112 281.002 20.606C280.534 21.074 280.3 21.763 280.3 22.673V33.047C280.3 33.957 280.534 34.659 281.002 35.153C281.496 35.621 282.159 35.855 282.991 35.855ZM294.263 41.9H298.28C298.878 41.9 299.346 41.692 299.684 41.276C300.048 40.886 300.23 40.379 300.23 39.755V38.039H296.993C295.563 38.039 294.354 37.571 293.366 36.635C292.378 35.699 291.884 34.529 291.884 33.125V22.634C291.884 21.23 292.378 20.06 293.366 19.124C294.38 18.188 295.602 17.72 297.032 17.72H303.389V39.482C303.389 40.938 302.986 42.095 302.18 42.953C301.4 43.811 300.295 44.24 298.865 44.24H294.263V41.9ZM300.269 35.699V20.06H297.656C296.928 20.06 296.304 20.307 295.784 20.801C295.264 21.295 295.004 21.906 295.004 22.634V33.125C295.004 33.853 295.264 34.464 295.784 34.958C296.304 35.452 296.928 35.699 297.656 35.699H300.269ZM307.669 17.72H310.087L310.438 19.163L311.413 18.695C312.245 18.279 312.934 17.967 313.48 17.759C314.052 17.551 314.624 17.447 315.196 17.447V19.748C314.858 19.748 314.403 19.852 313.831 20.06C313.259 20.242 312.245 20.684 310.789 21.386V38H307.669V17.72ZM322.238 38C321.302 38 320.431 37.766 319.625 37.298C318.845 36.83 318.221 36.193 317.753 35.387C317.311 34.581 317.09 33.671 317.09 32.657V30.629C317.09 29.407 317.389 28.38 317.987 27.548C318.611 26.716 319.378 26.131 320.288 25.793L325.124 23.999V22.166C325.124 21.542 324.929 21.035 324.539 20.645C324.175 20.229 323.694 20.021 323.096 20.021H318.689V17.72H323.369C324.799 17.72 325.93 18.149 326.762 19.007C327.62 19.839 328.049 20.983 328.049 22.439V38H322.238ZM325.124 35.621V26.456L321.692 27.743C321.016 28.003 320.535 28.354 320.249 28.796C319.989 29.238 319.859 29.94 319.859 30.902V33.086C319.859 33.788 320.119 34.386 320.639 34.88C321.159 35.374 321.783 35.621 322.511 35.621H325.124ZM332.348 17.72H334.766L335.117 18.851L336.716 18.383C337.808 18.045 338.666 17.811 339.29 17.681C339.94 17.525 340.551 17.447 341.123 17.447C342.241 17.447 343.021 17.941 343.463 18.929C344.191 18.669 345.218 18.357 346.544 17.993C347.87 17.629 348.845 17.447 349.469 17.447C350.405 17.447 351.094 17.772 351.536 18.422C352.004 19.072 352.238 19.917 352.238 20.957V38H349.118V21.971C349.118 21.217 349.066 20.697 348.962 20.411C348.858 20.099 348.598 19.943 348.182 19.943C347.974 19.943 346.544 20.359 343.892 21.191V38H340.772V21.971C340.772 21.217 340.72 20.697 340.616 20.411C340.512 20.099 340.252 19.943 339.836 19.943C339.628 19.943 338.172 20.359 335.468 21.191V38H332.348V17.72ZM360.667 38C359.731 38 358.86 37.766 358.054 37.298C357.274 36.83 356.65 36.193 356.182 35.387C355.74 34.581 355.519 33.671 355.519 32.657V30.629C355.519 29.407 355.818 28.38 356.416 27.548C357.04 26.716 357.807 26.131 358.717 25.793L363.553 23.999V22.166C363.553 21.542 363.358 21.035 362.968 20.645C362.604 20.229 362.123 20.021 361.525 20.021H357.118V17.72H361.798C363.228 17.72 364.359 18.149 365.191 19.007C366.049 19.839 366.478 20.983 366.478 22.439V38H360.667ZM363.553 35.621V26.456L360.121 27.743C359.445 28.003 358.964 28.354 358.678 28.796C358.418 29.238 358.288 29.94 358.288 30.902V33.086C358.288 33.788 358.548 34.386 359.068 34.88C359.588 35.374 360.212 35.621 360.94 35.621H363.553ZM377.056 39.248C377.992 39.248 378.707 39.417 379.201 39.755C379.695 40.093 379.942 40.704 379.942 41.588C379.942 43.356 378.928 44.24 376.9 44.24H372.727V42.407H375.847C376.445 42.407 376.887 42.342 377.173 42.212C377.459 42.082 377.602 41.861 377.602 41.549C377.602 41.211 377.498 40.99 377.29 40.886C377.082 40.782 376.744 40.73 376.276 40.73H374.248L374.911 38H375.067C373.637 38 372.493 37.571 371.635 36.713C370.803 35.855 370.387 34.698 370.387 33.242V22.868C370.387 21.23 370.816 19.969 371.674 19.085C372.532 18.175 373.78 17.72 375.418 17.72H379.747V20.06H375.496C374.898 20.06 374.417 20.268 374.053 20.684C373.689 21.074 373.507 21.581 373.507 22.205V33.515C373.507 34.139 373.689 34.659 374.053 35.075C374.443 35.465 374.937 35.66 375.535 35.66H379.747V38H377.329L377.056 39.248ZM381.572 15.77C381.598 14.6 381.819 13.716 382.235 13.118C382.651 12.494 383.405 12.182 384.497 12.182C384.783 12.182 385.628 12.39 387.032 12.806C388.41 13.248 389.294 13.469 389.684 13.469C389.996 13.469 390.204 13.378 390.308 13.196C390.412 12.988 390.477 12.741 390.503 12.455C390.555 12.169 390.594 11.948 390.62 11.792H393.077C393.051 12.676 392.986 13.391 392.882 13.937C392.778 14.457 392.505 14.899 392.063 15.263C391.647 15.601 391.01 15.77 390.152 15.77C389.762 15.77 388.878 15.549 387.5 15.107C386.096 14.691 385.251 14.483 384.965 14.483C384.627 14.483 384.406 14.548 384.302 14.678C384.224 14.808 384.159 14.99 384.107 15.224C384.081 15.458 384.055 15.64 384.029 15.77H381.572ZM386.603 38C385.667 38 384.796 37.766 383.99 37.298C383.21 36.83 382.586 36.193 382.118 35.387C381.676 34.581 381.455 33.671 381.455 32.657V30.629C381.455 29.407 381.754 28.38 382.352 27.548C382.976 26.716 383.743 26.131 384.653 25.793L389.489 23.999V22.166C389.489 21.542 389.294 21.035 388.904 20.645C388.54 20.229 388.059 20.021 387.461 20.021H383.054V17.72H387.734C389.164 17.72 390.295 18.149 391.127 19.007C391.985 19.839 392.414 20.983 392.414 22.439V38H386.603ZM389.489 35.621V26.456L386.057 27.743C385.381 28.003 384.9 28.354 384.614 28.796C384.354 29.238 384.224 29.94 384.224 30.902V33.086C384.224 33.788 384.484 34.386 385.004 34.88C385.524 35.374 386.148 35.621 386.876 35.621H389.489ZM401.667 38.273C399.847 38.273 398.43 37.818 397.416 36.908C396.428 35.972 395.934 34.685 395.934 33.047V22.673C395.934 21.035 396.428 19.761 397.416 18.851C398.43 17.915 399.847 17.447 401.667 17.447C403.487 17.447 404.891 17.915 405.879 18.851C406.893 19.761 407.4 21.035 407.4 22.673V33.047C407.4 34.685 406.893 35.972 405.879 36.908C404.891 37.818 403.487 38.273 401.667 38.273ZM401.667 35.855C402.499 35.855 403.149 35.621 403.617 35.153C404.111 34.659 404.358 33.957 404.358 33.047V22.673C404.358 21.763 404.111 21.074 403.617 20.606C403.149 20.112 402.499 19.865 401.667 19.865C400.835 19.865 400.172 20.112 399.678 20.606C399.21 21.074 398.976 21.763 398.976 22.673V33.047C398.976 33.957 399.21 34.659 399.678 35.153C400.172 35.621 400.835 35.855 401.667 35.855Z" fill="#241B53"/>
</svg>
