<svg width="171" height="72" viewBox="0 0 171 72" fill="none" xmlns="http://www.w3.org/2000/svg">
<path d="M28.8353 27.252C27.566 27.252 26.3153 27.112 25.0833 26.832C23.8513 26.5333 22.862 26.1507 22.1153 25.684L23.7113 22.044C24.402 22.4733 25.2233 22.8187 26.1753 23.08C27.1273 23.3227 28.07 23.444 29.0033 23.444C29.862 23.444 30.4687 23.36 30.8233 23.192C31.1967 23.0053 31.3833 22.744 31.3833 22.408C31.3833 22.072 31.1593 21.8387 30.7113 21.708C30.282 21.5587 29.5913 21.4187 28.6393 21.288C27.426 21.1387 26.39 20.9427 25.5313 20.7C24.6913 20.4573 23.9633 20.0093 23.3473 19.356C22.7313 18.7027 22.4233 17.788 22.4233 16.612C22.4233 15.6413 22.7127 14.7827 23.2913 14.036C23.87 13.2707 24.71 12.6733 25.8113 12.244C26.9313 11.796 28.266 11.572 29.8153 11.572C30.9167 11.572 32.0087 11.684 33.0913 11.908C34.174 12.132 35.0793 12.4493 35.8073 12.86L34.2113 16.472C32.8673 15.7253 31.4113 15.352 29.8433 15.352C29.0033 15.352 28.3873 15.4547 27.9953 15.66C27.6033 15.8467 27.4073 16.0987 27.4073 16.416C27.4073 16.7707 27.622 17.0227 28.0513 17.172C28.4807 17.3027 29.19 17.4427 30.1793 17.592C31.43 17.7787 32.466 17.9933 33.2873 18.236C34.1087 18.4787 34.818 18.9267 35.4153 19.58C36.0313 20.2147 36.3393 21.1107 36.3393 22.268C36.3393 23.22 36.05 24.0787 35.4713 24.844C34.8927 25.5907 34.034 26.1787 32.8953 26.608C31.7753 27.0373 30.422 27.252 28.8353 27.252ZM54.5918 11.824V27H49.5238V25.376C48.9638 25.992 48.2918 26.4587 47.5078 26.776C46.7238 27.0933 45.8932 27.252 45.0158 27.252C43.0558 27.252 41.4878 26.6733 40.3118 25.516C39.1545 24.3587 38.5758 22.6227 38.5758 20.308V11.824H43.8958V19.44C43.8958 20.5787 44.1105 21.4093 44.5398 21.932C44.9692 22.4547 45.5945 22.716 46.4158 22.716C47.2558 22.716 47.9372 22.4267 48.4598 21.848C49.0012 21.2507 49.2718 20.3453 49.2718 19.132V11.824H54.5918ZM64.4865 11.572C67.0065 11.572 68.9292 12.1507 70.2545 13.308C71.5799 14.4467 72.2425 16.2013 72.2425 18.572V27H67.2865V25.04C66.5212 26.5147 65.0279 27.252 62.8065 27.252C61.6305 27.252 60.6132 27.0467 59.7545 26.636C58.8959 26.2253 58.2425 25.6747 57.7945 24.984C57.3652 24.2747 57.1505 23.472 57.1505 22.576C57.1505 21.1387 57.7012 20.028 58.8025 19.244C59.9039 18.4413 61.6025 18.04 63.8985 18.04H66.9225C66.8292 16.4347 65.7559 15.632 63.7025 15.632C62.9745 15.632 62.2372 15.7533 61.4905 15.996C60.7439 16.22 60.1092 16.5373 59.5865 16.948L57.7945 13.336C58.6345 12.776 59.6519 12.3467 60.8465 12.048C62.0599 11.7307 63.2732 11.572 64.4865 11.572ZM64.2905 23.892C64.9065 23.892 65.4479 23.7427 65.9145 23.444C66.3812 23.1453 66.7172 22.7067 66.9225 22.128V20.812H64.6265C63.0772 20.812 62.3025 21.3253 62.3025 22.352C62.3025 22.8187 62.4799 23.192 62.8345 23.472C63.1892 23.752 63.6745 23.892 64.2905 23.892ZM91.505 27.252C89.825 27.252 88.3223 26.916 86.997 26.244C85.6717 25.572 84.6357 24.6387 83.889 23.444C83.161 22.2493 82.797 20.896 82.797 19.384C82.797 17.872 83.161 16.528 83.889 15.352C84.6357 14.1573 85.6717 13.2333 86.997 12.58C88.3223 11.908 89.825 11.572 91.505 11.572C93.2223 11.572 94.7063 11.9453 95.957 12.692C97.2077 13.42 98.0943 14.4373 98.617 15.744L94.501 17.844C93.8103 16.4813 92.8023 15.8 91.477 15.8C90.525 15.8 89.7317 16.1173 89.097 16.752C88.481 17.3867 88.173 18.264 88.173 19.384C88.173 20.5227 88.481 21.4187 89.097 22.072C89.7317 22.7067 90.525 23.024 91.477 23.024C92.8023 23.024 93.8103 22.3427 94.501 20.98L98.617 23.08C98.0943 24.3867 97.2077 25.4133 95.957 26.16C94.7063 26.888 93.2223 27.252 91.505 27.252ZM107.088 11.572C109.608 11.572 111.531 12.1507 112.856 13.308C114.181 14.4467 114.844 16.2013 114.844 18.572V27H109.888V25.04C109.123 26.5147 107.629 27.252 105.408 27.252C104.232 27.252 103.215 27.0467 102.356 26.636C101.497 26.2253 100.844 25.6747 100.396 24.984C99.9668 24.2747 99.7521 23.472 99.7521 22.576C99.7521 21.1387 100.303 20.028 101.404 19.244C102.505 18.4413 104.204 18.04 106.5 18.04H109.524C109.431 16.4347 108.357 15.632 106.304 15.632C105.576 15.632 104.839 15.7533 104.092 15.996C103.345 16.22 102.711 16.5373 102.188 16.948L100.396 13.336C101.236 12.776 102.253 12.3467 103.448 12.048C104.661 11.7307 105.875 11.572 107.088 11.572ZM106.892 23.892C107.508 23.892 108.049 23.7427 108.516 23.444C108.983 23.1453 109.319 22.7067 109.524 22.128V20.812H107.228C105.679 20.812 104.904 21.3253 104.904 22.352C104.904 22.8187 105.081 23.192 105.436 23.472C105.791 23.752 106.276 23.892 106.892 23.892ZM123.718 27.252C122.449 27.252 121.198 27.112 119.966 26.832C118.734 26.5333 117.745 26.1507 116.998 25.684L118.594 22.044C119.285 22.4733 120.106 22.8187 121.058 23.08C122.01 23.3227 122.953 23.444 123.886 23.444C124.745 23.444 125.351 23.36 125.706 23.192C126.079 23.0053 126.266 22.744 126.266 22.408C126.266 22.072 126.042 21.8387 125.594 21.708C125.165 21.5587 124.474 21.4187 123.522 21.288C122.309 21.1387 121.273 20.9427 120.414 20.7C119.574 20.4573 118.846 20.0093 118.23 19.356C117.614 18.7027 117.306 17.788 117.306 16.612C117.306 15.6413 117.595 14.7827 118.174 14.036C118.753 13.2707 119.593 12.6733 120.694 12.244C121.814 11.796 123.149 11.572 124.698 11.572C125.799 11.572 126.891 11.684 127.974 11.908C129.057 12.132 129.962 12.4493 130.69 12.86L129.094 16.472C127.75 15.7253 126.294 15.352 124.726 15.352C123.886 15.352 123.27 15.4547 122.878 15.66C122.486 15.8467 122.29 16.0987 122.29 16.416C122.29 16.7707 122.505 17.0227 122.934 17.172C123.363 17.3027 124.073 17.4427 125.062 17.592C126.313 17.7787 127.349 17.9933 128.17 18.236C128.991 18.4787 129.701 18.9267 130.298 19.58C130.914 20.2147 131.222 21.1107 131.222 22.268C131.222 23.22 130.933 24.0787 130.354 24.844C129.775 25.5907 128.917 26.1787 127.778 26.608C126.658 27.0373 125.305 27.252 123.718 27.252ZM139.983 11.572C142.503 11.572 144.425 12.1507 145.751 13.308C147.076 14.4467 147.739 16.2013 147.739 18.572V27H142.783V25.04C142.017 26.5147 140.524 27.252 138.303 27.252C137.127 27.252 136.109 27.0467 135.251 26.636C134.392 26.2253 133.739 25.6747 133.291 24.984C132.861 24.2747 132.647 23.472 132.647 22.576C132.647 21.1387 133.197 20.028 134.299 19.244C135.4 18.4413 137.099 18.04 139.395 18.04H142.419C142.325 16.4347 141.252 15.632 139.199 15.632C138.471 15.632 137.733 15.7533 136.987 15.996C136.24 16.22 135.605 16.5373 135.083 16.948L133.291 13.336C134.131 12.776 135.148 12.3467 136.343 12.048C137.556 11.7307 138.769 11.572 139.983 11.572ZM139.787 23.892C140.403 23.892 140.944 23.7427 141.411 23.444C141.877 23.1453 142.213 22.7067 142.419 22.128V20.812H140.123C138.573 20.812 137.799 21.3253 137.799 22.352C137.799 22.8187 137.976 23.192 138.331 23.472C138.685 23.752 139.171 23.892 139.787 23.892Z" fill="#FF461E"/>
<rect y="36.0038" width="171" height="35.9961" fill="#FF461E"/>
<path d="M8.50766 47.366H13.6377V62H8.50766V47.366ZM11.0727 45.746C10.1367 45.746 9.38066 45.485 8.80466 44.963C8.22866 44.441 7.94066 43.793 7.94066 43.019C7.94066 42.245 8.22866 41.597 8.80466 41.075C9.38066 40.553 10.1367 40.292 11.0727 40.292C12.0087 40.292 12.7647 40.544 13.3407 41.048C13.9167 41.534 14.2047 42.164 14.2047 42.938C14.2047 43.748 13.9167 44.423 13.3407 44.963C12.7647 45.485 12.0087 45.746 11.0727 45.746ZM26.5025 47.123C28.3205 47.123 29.7785 47.663 30.8765 48.743C31.9925 49.823 32.5505 51.452 32.5505 53.63V62H27.4205V54.467C27.4205 52.469 26.6195 51.47 25.0175 51.47C24.1355 51.47 23.4245 51.758 22.8845 52.334C22.3625 52.91 22.1015 53.774 22.1015 54.926V62H16.9715V47.366H21.8585V48.959C22.4345 48.365 23.1185 47.915 23.9105 47.609C24.7025 47.285 25.5665 47.123 26.5025 47.123ZM45.8693 61.406C45.4373 61.676 44.9063 61.883 44.2763 62.027C43.6643 62.171 43.0073 62.243 42.3053 62.243C40.3973 62.243 38.9303 61.775 37.9043 60.839C36.8783 59.903 36.3653 58.508 36.3653 56.654V51.74H34.2323V47.906H36.3653V44.099H41.4953V47.906H44.8433V51.74H41.4953V56.6C41.4953 57.122 41.6303 57.536 41.9003 57.842C42.1883 58.13 42.5663 58.274 43.0343 58.274C43.6283 58.274 44.1503 58.121 44.6003 57.815L45.8693 61.406ZM62.3836 54.71C62.3836 54.746 62.3566 55.169 62.3026 55.979H51.6646C51.8806 56.735 52.2946 57.32 52.9066 57.734C53.5366 58.13 54.3196 58.328 55.2556 58.328C55.9576 58.328 56.5606 58.229 57.0646 58.031C57.5866 57.833 58.1086 57.509 58.6306 57.059L61.3306 59.867C59.9086 61.451 57.8296 62.243 55.0936 62.243C53.3836 62.243 51.8806 61.919 50.5846 61.271C49.2886 60.623 48.2806 59.723 47.5606 58.571C46.8586 57.419 46.5076 56.114 46.5076 54.656C46.5076 53.216 46.8496 51.929 47.5336 50.795C48.2356 49.643 49.1986 48.743 50.4226 48.095C51.6466 47.447 53.0236 47.123 54.5536 47.123C56.0116 47.123 57.3346 47.429 58.5226 48.041C59.7106 48.635 60.6466 49.508 61.3306 50.66C62.0326 51.794 62.3836 53.144 62.3836 54.71ZM54.5806 50.768C53.7886 50.768 53.1226 50.993 52.5826 51.443C52.0606 51.893 51.7276 52.505 51.5836 53.279H57.5776C57.4336 52.505 57.0916 51.893 56.5516 51.443C56.0296 50.993 55.3726 50.768 54.5806 50.768ZM64.7489 41.966H69.8789V62H64.7489V41.966ZM73.2127 47.366H78.3427V62H73.2127V47.366ZM75.7777 45.746C74.8417 45.746 74.0857 45.485 73.5097 44.963C72.9337 44.441 72.6457 43.793 72.6457 43.019C72.6457 42.245 72.9337 41.597 73.5097 41.075C74.0857 40.553 74.8417 40.292 75.7777 40.292C76.7137 40.292 77.4697 40.544 78.0457 41.048C78.6217 41.534 78.9097 42.164 78.9097 42.938C78.9097 43.748 78.6217 44.423 78.0457 44.963C77.4697 45.485 76.7137 45.746 75.7777 45.746ZM97.4176 47.366V59.327C97.4176 62.045 96.6796 64.079 95.2036 65.429C93.7276 66.797 91.6036 67.481 88.8316 67.481C87.3916 67.481 86.0416 67.319 84.7816 66.995C83.5216 66.671 82.4506 66.194 81.5686 65.564L83.4316 61.973C84.0256 62.459 84.7726 62.837 85.6726 63.107C86.5906 63.395 87.4906 63.539 88.3726 63.539C89.7226 63.539 90.7126 63.242 91.3426 62.648C91.9726 62.054 92.2876 61.172 92.2876 60.002V59.516C91.2976 60.668 89.8486 61.244 87.9406 61.244C86.6446 61.244 85.4476 60.956 84.3496 60.38C83.2516 59.786 82.3786 58.958 81.7306 57.896C81.0826 56.816 80.7586 55.574 80.7586 54.17C80.7586 52.784 81.0826 51.56 81.7306 50.498C82.3786 49.418 83.2516 48.59 84.3496 48.014C85.4476 47.42 86.6446 47.123 87.9406 47.123C90.0286 47.123 91.5586 47.798 92.5306 49.148V47.366H97.4176ZM89.1556 57.167C90.0736 57.167 90.8296 56.888 91.4236 56.33C92.0356 55.772 92.3416 55.052 92.3416 54.17C92.3416 53.288 92.0446 52.577 91.4506 52.037C90.8566 51.479 90.0916 51.2 89.1556 51.2C88.2196 51.2 87.4456 51.479 86.8336 52.037C86.2396 52.577 85.9426 53.288 85.9426 54.17C85.9426 55.052 86.2486 55.772 86.8606 56.33C87.4726 56.888 88.2376 57.167 89.1556 57.167ZM115.672 54.71C115.672 54.746 115.645 55.169 115.591 55.979H104.953C105.169 56.735 105.583 57.32 106.195 57.734C106.825 58.13 107.608 58.328 108.544 58.328C109.246 58.328 109.849 58.229 110.353 58.031C110.875 57.833 111.397 57.509 111.919 57.059L114.619 59.867C113.197 61.451 111.118 62.243 108.382 62.243C106.672 62.243 105.169 61.919 103.873 61.271C102.577 60.623 101.569 59.723 100.849 58.571C100.147 57.419 99.7957 56.114 99.7957 54.656C99.7957 53.216 100.138 51.929 100.822 50.795C101.524 49.643 102.487 48.743 103.711 48.095C104.935 47.447 106.312 47.123 107.842 47.123C109.3 47.123 110.623 47.429 111.811 48.041C112.999 48.635 113.935 49.508 114.619 50.66C115.321 51.794 115.672 53.144 115.672 54.71ZM107.869 50.768C107.077 50.768 106.411 50.993 105.871 51.443C105.349 51.893 105.016 52.505 104.872 53.279H110.866C110.722 52.505 110.38 51.893 109.84 51.443C109.318 50.993 108.661 50.768 107.869 50.768ZM127.568 47.123C129.386 47.123 130.844 47.663 131.942 48.743C133.058 49.823 133.616 51.452 133.616 53.63V62H128.486V54.467C128.486 52.469 127.685 51.47 126.083 51.47C125.201 51.47 124.49 51.758 123.95 52.334C123.428 52.91 123.167 53.774 123.167 54.926V62H118.037V47.366H122.924V48.959C123.5 48.365 124.184 47.915 124.976 47.609C125.768 47.285 126.632 47.123 127.568 47.123ZM146.935 61.406C146.503 61.676 145.972 61.883 145.342 62.027C144.73 62.171 144.073 62.243 143.371 62.243C141.463 62.243 139.996 61.775 138.97 60.839C137.944 59.903 137.431 58.508 137.431 56.654V51.74H135.298V47.906H137.431V44.099H142.561V47.906H145.909V51.74H142.561V56.6C142.561 57.122 142.696 57.536 142.966 57.842C143.254 58.13 143.632 58.274 144.1 58.274C144.694 58.274 145.216 58.121 145.666 57.815L146.935 61.406ZM163.449 54.71C163.449 54.746 163.422 55.169 163.368 55.979H152.73C152.946 56.735 153.36 57.32 153.972 57.734C154.602 58.13 155.385 58.328 156.321 58.328C157.023 58.328 157.626 58.229 158.13 58.031C158.652 57.833 159.174 57.509 159.696 57.059L162.396 59.867C160.974 61.451 158.895 62.243 156.159 62.243C154.449 62.243 152.946 61.919 151.65 61.271C150.354 60.623 149.346 59.723 148.626 58.571C147.924 57.419 147.573 56.114 147.573 54.656C147.573 53.216 147.915 51.929 148.599 50.795C149.301 49.643 150.264 48.743 151.488 48.095C152.712 47.447 154.089 47.123 155.619 47.123C157.077 47.123 158.4 47.429 159.588 48.041C160.776 48.635 161.712 49.508 162.396 50.66C163.098 51.794 163.449 53.144 163.449 54.71ZM155.646 50.768C154.854 50.768 154.188 50.993 153.648 51.443C153.126 51.893 152.793 52.505 152.649 53.279H158.643C158.499 52.505 158.157 51.893 157.617 51.443C157.095 50.993 156.438 50.768 155.646 50.768Z" fill="#241B53"/>
</svg>
