<svg width="417" height="140" viewBox="0 0 417 140" fill="none" xmlns="http://www.w3.org/2000/svg">
<g filter="url(#filter0_i_225:21)">
<path fill-rule="evenodd" clip-rule="evenodd" d="M416.208 0.116943H0.207764V139.312H416.208V0.116943ZM49.8111 103.949H33.3196V113.935H49.206C58.5865 113.935 65.9497 111.514 71.2956 106.673C76.7423 101.831 79.4657 94.6697 79.4657 85.1884C79.4657 79.5399 78.5075 74.6983 76.591 70.6637C74.7754 66.6291 72.5564 63.4013 69.9339 60.9806C67.3114 58.4589 63.8315 55.6347 59.4943 52.5078C54.7536 49.1793 51.2233 46.2037 48.9034 43.5812C46.5834 40.9587 45.4235 37.6301 45.4235 33.5955C45.4235 29.46 46.6843 25.8288 49.206 22.702C51.7276 19.5751 55.4092 18.0117 60.2508 18.0117H71.9008V8.02601H59.6456C51.072 8.02601 44.3644 10.4468 39.5228 15.2884C34.6813 20.1299 32.2605 26.5853 32.2605 34.6546C32.2605 39.2944 33.0674 43.2786 34.6813 46.6072C36.2951 49.9358 38.262 52.7096 40.5819 54.9286C43.0027 57.0468 46.1295 59.4171 49.9624 62.0397C53.5936 64.5613 56.4683 66.7803 58.5865 68.6968C60.7047 70.6133 62.4698 73.034 63.8819 75.9591C65.3949 78.7834 66.1514 82.1624 66.1514 86.0962C66.1514 91.1394 64.8402 95.3758 62.2176 98.8052C59.696 102.235 55.5605 103.949 49.8111 103.949ZM107.399 18.0117V113.935H120.714V18.0117H141.895V8.02601H86.2174V18.0117H107.399ZM151.458 87.7604C151.458 105.916 160.385 114.994 178.238 114.994C196.192 114.994 205.169 105.916 205.169 87.7604V8.02601H191.855V90.3325C191.855 95.1741 190.644 98.8557 188.223 101.377C185.803 103.798 182.474 105.008 178.238 105.008C174.001 105.008 170.673 103.798 168.252 101.377C165.932 98.8557 164.772 95.1741 164.772 90.3325V8.02601H151.458V87.7604ZM248.956 8.02601H222.63V113.935H248.956C258.135 113.834 265.246 111.514 270.289 106.975C275.332 102.336 277.854 95.5271 277.854 86.55V35.4111C277.854 26.434 275.332 19.6256 270.289 14.9857C265.246 10.3459 258.135 8.02601 248.956 8.02601ZM260.152 99.713C257.328 102.336 253.596 103.647 248.956 103.647H236.095V18.3143H248.956C253.596 18.3143 257.328 19.676 260.152 22.3994C263.077 25.0219 264.539 28.5522 264.539 32.9903V88.9708C264.539 93.4089 263.077 96.9897 260.152 99.713ZM308.79 8.02601H295.475V113.935H308.79V8.02601ZM333.811 107.883C338.753 112.624 345.915 114.994 355.295 114.994C364.776 114.994 371.988 112.624 376.931 107.883C381.873 103.042 384.344 96.334 384.344 87.7604V34.2007C384.344 25.6271 381.873 18.9699 376.931 14.2293C371.988 9.3877 364.776 6.96692 355.295 6.96692C345.915 6.96692 338.753 9.3877 333.811 14.2293C328.868 18.9699 326.397 25.6271 326.397 34.2007V87.7604C326.397 96.334 328.868 103.042 333.811 107.883ZM366.491 101.226C363.465 103.748 359.733 105.008 355.295 105.008C350.857 105.008 347.125 103.748 344.099 101.226C341.174 98.6035 339.711 94.9723 339.711 90.3325V31.6286C339.711 26.9888 341.174 23.408 344.099 20.8864C347.125 18.2639 350.857 16.9526 355.295 16.9526C359.733 16.9526 363.465 18.2639 366.491 20.8864C369.517 23.408 371.03 26.9888 371.03 31.6286V90.3325C371.03 94.9723 369.517 98.6035 366.491 101.226Z" fill="#F9E44D"/>
</g>
<defs>
<filter id="filter0_i_225:21" x="0.207764" y="0.116943" width="416" height="145.247" filterUnits="userSpaceOnUse" color-interpolation-filters="sRGB">
<feFlood flood-opacity="0" result="BackgroundImageFix"/>
<feBlend mode="normal" in="SourceGraphic" in2="BackgroundImageFix" result="shape"/>
<feColorMatrix in="SourceAlpha" type="matrix" values="0 0 0 0 0 0 0 0 0 0 0 0 0 0 0 0 0 0 127 0" result="hardAlpha"/>
<feOffset dy="6.05195"/>
<feGaussianBlur stdDeviation="3.02597"/>
<feComposite in2="hardAlpha" operator="arithmetic" k2="-1" k3="1"/>
<feColorMatrix type="matrix" values="0 0 0 0 0 0 0 0 0 0 0 0 0 0 0 0 0 0 0.25 0"/>
<feBlend mode="normal" in2="shape" result="effect1_innerShadow_225:21"/>
</filter>
</defs>
</svg>
