<svg width="459" height="181" viewBox="0 0 459 181" fill="none" xmlns="http://www.w3.org/2000/svg">
<g filter="url(#tuntz-logo)">
<path d="M454.5 0H357.5V41H398.5L357.5 117.5L409 117L381 173L454.5 86.5H409L454.5 0Z" fill="#F9E44D"/>
<path d="M351 0H263.5V41H290V117.5H324.5V41H351V0Z" fill="#F9E44D"/>
<path d="M211.5 0H177V117.5H211.5V72.5L221.5 117.5H256.5V0H219V49L211.5 0Z" fill="#F9E44D"/>
<path d="M131.85 0H98V117.5H170.72V0H139L135 66L131.85 0Z" fill="#F9E44D"/>
<path d="M91.5 0H4V41H30.5V117.5H65V41H91.5V0Z" fill="#F9E44D"/>
</g>
<defs>
<filter id="tuntz-logo" x="0" y="0" width="458.5" height="181" filterUnits="userSpaceOnUse" color-interpolation-filters="sRGB">
<feFlood flood-opacity="0" result="BackgroundImageFix"/>
<feColorMatrix in="SourceAlpha" type="matrix" values="0 0 0 0 0 0 0 0 0 0 0 0 0 0 0 0 0 0 127 0" result="hardAlpha"/>
<feOffset dy="4"/>
<feGaussianBlur stdDeviation="2"/>
<feComposite in2="hardAlpha" operator="out"/>
<feColorMatrix type="matrix" values="0 0 0 0 0 0 0 0 0 0 0 0 0 0 0 0 0 0 0.25 0"/>
<feBlend mode="normal" in2="BackgroundImageFix" result="effect1_dropShadow_302:27"/>
<feBlend mode="normal" in="SourceGraphic" in2="effect1_dropShadow_302:27" result="shape"/>
</filter>
</defs>
</svg>
